{
.appVersion = "1364";
classes = (
{
automatic = 1;

glyphs = (
{
color = 4;
glyphname = A;
lastChange = "2023-07-14 09:44:56 +0000";
layers = (
{
anchors = (
{
name = bottom;
position = "{273, -3}";
},
{
name = ogonek;
position = "{477, 0}";
},
{
name = top;
position = "{273, 730}";
}
);
background = {
paths = (
{
closed = 1;
nodes = (
"93 0 LINE",
"273 659 LINE",
"453 0 LINE",
"500 0 LINE",
"298 727 LINE",
"247 727 LINE",
"45 0 LINE"
);
},
{
closed = 1;
nodes = (
"418 196 LINE",
"407 238 LINE",
"138 238 LINE",
"127 196 LINE"
);
}
);
};
layerId = "7C079D0C-96CD-4BD8-8800-0621C7635A78";
paths = (
{
closed = 1;
nodes = (
"93 0 LINE",
"273 659 LINE",
"453 0 LINE",
"500 0 LINE",
"298 727 LINE",
"247 727 LINE",
"45 0 LINE"
);
},
{
closed = 1;
nodes = (
"418 196 LINE",
"407 238 LINE",
"138 238 LINE",
"127 196 LINE"
);
}
);
width = 545;
},
{
anchors = (
{
name = bottom;
position = "{273, -3}";
},
{
name = ogonek;
position = "{471, 0}";
},
{
name = top;
position = "{273, 730}";
}
);
layerId = "291433DC-531A-45CC-B814-57D397372F12";
paths = (
{
closed = 1;
nodes = (
"115 0 LINE",
"273 574 LINE",
"430 0 LINE",
"524 0 LINE",
"321 727 LINE",
"225 727 LINE",
"22 0 LINE"
);
},
{
closed = 1;
nodes = (
"429 175 LINE",
"407 259 LINE",
"138 259 LINE",
"116 175 LINE"
);
}
);
width = 545;
}
);
unicode = 0041;
},
{
color = 4;
glyphname = AE;
lastChange = "2023-07-14 09:44:56 +0000";
layers = (
{
anchors = (
{
name = bottom;
position = "{273, 0}";
},
{
name = top;
position = "{273, 727}";
}
);
layerId = "7C079D0C-96CD-4BD8-8800-0621C7635A78";
paths = (
{
closed = 1;
nodes = (
"54 0 LINE",
"238 685 LINE",
"282 685 LINE",
"282 0 LINE",
"534 0 LINE",
"534 42 LINE",
"327 42 LINE",
"327 322 LINE",
"461 322 LINE",
"461 364 LINE",
"327 364 LINE",
"327 685 LINE",
"534 685 LINE",
"534 727 LINE",
"203 727 LINE",
"6 0 LINE"
);
},
{
closed = 1;
nodes = (
"307 238 LINE",
"307 280 LINE",
"108 280 LINE",
"97 238 LINE"
);
}
);
width = 545;
},
{
anchors = (
{
name = bottom;
position = "{273, 0}";
},
{
name = top;
position = "{273, 727}";
}
);
layerId = "291433DC-531A-45CC-B814-57D397372F12";
paths = (
{
closed = 1;
nodes = (
"95 0 LINE",
"256 644 LINE",
"259 644 LINE",
"259 0 LINE",
"538 0 LINE",
"538 84 LINE",
"350 84 LINE",
"350 301 LINE",
"475 301 LINE",
"475 385 LINE",
"350 385 LINE",
"350 644 LINE",
"538 644 LINE",
"538 727 LINE",
"185 727 LINE",
"3 0 LINE"
);
},
{
closed = 1;
nodes = (
"330 217 LINE",
"330 301 LINE",
"113 301 LINE",
"91 217 LINE"
);
}
);
width = 545;
}
);
unicode = 00C6;
},
{
color = 4;
glyphname = B;
lastChange = "2023-07-14 09:44:56 +0000";
layers = (
{
anchors = (
{
name = bottom;
position = "{273, 0}";
},
{
name = top;
position = "{273, 727}";
}
);
layerId = "7C079D0C-96CD-4BD8-8800-0621C7635A78";
paths = (
{
closed = 1;
nodes = (
"281 0 LINE SMOOTH",
"429 0 OFFCURVE",
"476 49 OFFCURVE",
"476 204 CURVE SMOOTH",
"476 320 OFFCURVE",
"449 365 OFFCURVE",
"361 389 CURVE",
"432 415 OFFCURVE",
"454 454 OFFCURVE",
"454 547 CURVE SMOOTH",
"454 684 OFFCURVE",
"406 727 OFFCURVE",
"258 727 CURVE SMOOTH",
"85 727 LINE",
"85 0 LINE"
);
},
{
closed = 1;
nodes = (
"131 364 LINE",
"281 364 LINE SMOOTH",
"395 364 OFFCURVE",
"431 325 OFFCURVE",
"431 204 CURVE SMOOTH",
"431 81 OFFCURVE",
"395 42 OFFCURVE",
"281 42 CURVE SMOOTH",
"131 42 LINE"
);
},
{
closed = 1;
nodes = (
"131 685 LINE",
"258 685 LINE SMOOTH",
"372 685 OFFCURVE",
"408 653 OFFCURVE",
"408 547 CURVE SMOOTH",
"408 439 OFFCURVE",
"372 405 OFFCURVE",
"258 405 CURVE SMOOTH",
"131 405 LINE"
);
}
);
width = 545;
},
{
anchors = (
{
name = bottom;
position = "{273, 0}";
},
{
name = top;
position = "{273, 727}";
}
);
layerId = "291433DC-531A-45CC-B814-57D397372F12";
paths = (
{
closed = 1;
nodes = (
"281 0 LINE SMOOTH",
"443 0 OFFCURVE",
"499 58 OFFCURVE",
"499 214 CURVE SMOOTH",
"499 316 OFFCURVE",
"476 361 OFFCURVE",
"415 392 CURVE",
"460 422 OFFCURVE",
"476 457 OFFCURVE",
"476 537 CURVE SMOOTH",
"476 675 OFFCURVE",
"419 727 OFFCURVE",
"258 727 CURVE SMOOTH",
"63 727 LINE",
"63 0 LINE"
);
},
{
closed = 1;
nodes = (
"154 343 LINE",
"281 343 LINE SMOOTH",
"381 343 OFFCURVE",
"408 325 OFFCURVE",
"408 214 CURVE SMOOTH",
"408 113 OFFCURVE",
"381 84 OFFCURVE",
"281 84 CURVE SMOOTH",
"154 84 LINE"
);
},
{
closed = 1;
nodes = (
"154 644 LINE",
"258 644 LINE SMOOTH",
"360 644 OFFCURVE",
"385 619 OFFCURVE",
"385 537 CURVE SMOOTH",
"385 441 OFFCURVE",
"359 426 OFFCURVE",
"258 426 CURVE SMOOTH",
"154 426 LINE"
);
}
);
width = 545;
}
);
unicode = 0042;
},
{
color = 4;
glyphname = C;
lastChange = "2023-07-14 09:44:56 +0000";
layers = (
{
anchors = (
{
name = bottom;
position = "{273, 0}";
},
{
name = top;
position = "{273, 727}";
}
);
layerId = "7C079D0C-96CD-4BD8-8800-0621C7635A78";
paths = (
{
closed = 1;
nodes = (
"396 -13 OFFCURVE",
"442 22 OFFCURVE",
"477 133 CURVE",
"434 147 LINE",
"404 57 OFFCURVE",
"369 29 OFFCURVE",
"286 29 CURVE SMOOTH",
"155 29 OFFCURVE",
"113 110 OFFCURVE",
"113 365 CURVE SMOOTH",
"113 618 OFFCURVE",
"155 698 OFFCURVE",
"286 698 CURVE SMOOTH",
"369 698 OFFCURVE",
"404 669 OFFCURVE",
"434 577 CURVE",
"477 593 LINE",
"442 705 OFFCURVE",
"395 740 OFFCURVE",
"286 740 CURVE SMOOTH",
"120 740 OFFCURVE",
"67 650 OFFCURVE",
"67 365 CURVE SMOOTH",
"67 78 OFFCURVE",
"120 -13 OFFCURVE",
"286 -13 CURVE SMOOTH"
);
}
);
width = 545;
},
{
anchors = (
{
name = bottom;
position = "{273, 0}";
},
{
name = top;
position = "{273, 727}";
}
);
layerId = "291433DC-531A-45CC-B814-57D397372F12";
paths = (
{
closed = 1;
nodes = (
"413 -13 OFFCURVE",
"466 33 OFFCURVE",
"505 166 CURVE",
"418 195 LINE",
"388 95 OFFCURVE",
"364 71 OFFCURVE",
"286 71 CURVE SMOOTH",
"172 71 OFFCURVE",
"135 141 OFFCURVE",
"135 365 CURVE SMOOTH",
"135 587 OFFCURVE",
"172 656 OFFCURVE",
"286 656 CURVE SMOOTH",
"364 656 OFFCURVE",
"388 631 OFFCURVE",
"418 529 CURVE",
"505 559 LINE",
"466 694 OFFCURVE",
"412 740 OFFCURVE",
"286 740 CURVE SMOOTH",
"105 740 OFFCURVE",
"45 639 OFFCURVE",
"45 365 CURVE SMOOTH",
"45 89 OFFCURVE",
"105 -13 OFFCURVE",
"286 -13 CURVE SMOOTH"
);
}
);
width = 545;
}
);
unicode = 0043;
},
{
color = 4;
glyphname = D;
lastChange = "2023-07-14 09:44:56 +0000";
layers = (
{
anchors = (
{
name = bottom;
position = "{273, 0}";
},
{
name = center;
position = "{273, 364}";
},
{
name = top;
position = "{273, 727}";
}
);
layerId = "7C079D0C-96CD-4BD8-8800-0621C7635A78";
paths = (
{
closed = 1;
nodes = (
"285 0 LINE SMOOTH",
"442 0 OFFCURVE",
"492 87 OFFCURVE",
"492 364 CURVE SMOOTH",
"492 640 OFFCURVE",
"442 727 OFFCURVE",
"285 727 CURVE SMOOTH",
"77 727 LINE",
"77 0 LINE"
);
},
{
closed = 1;
nodes = (
"123 715 LINE",
"93 685 LINE",
"285 685 LINE SMOOTH",
"407 685 OFFCURVE",
"446 608 OFFCURVE",
"446 364 CURVE SMOOTH",
"446 119 OFFCURVE",
"407 42 OFFCURVE",
"285 42 CURVE SMOOTH",
"93 42 LINE",
"123 13 LINE"
);
}
);
width = 545;
},
{
anchors = (
{
name = bottom;
position = "{273, 0}";
},
{
name = center;
position = "{273, 364}";
},
{
name = top;
position = "{273, 727}";
}
);
layerId = "291433DC-531A-45CC-B814-57D397372F12";
paths = (
{
closed = 1;
nodes = (
"285 0 LINE SMOOTH",
"457 0 OFFCURVE",
"515 98 OFFCURVE",
"515 364 CURVE SMOOTH",
"515 629 OFFCURVE",
"457 727 OFFCURVE",
"285 727 CURVE SMOOTH",
"55 727 LINE",
"55 0 LINE"
);
},
{
closed = 1;
nodes = (
"145 708 LINE",
"75 644 LINE",
"285 644 LINE SMOOTH",
"390 644 OFFCURVE",
"424 577 OFFCURVE",
"424 364 CURVE SMOOTH",
"424 150 OFFCURVE",
"390 84 OFFCURVE",
"285 84 CURVE SMOOTH",
"75 84 LINE",
"145 19 LINE"
);
}
);
width = 545;
}
);
unicode = 0044;
},
{
color = 4;
glyphname = Eth;
lastChange = "2023-07-14 09:44:56 +0000";
layers = (
{
layerId = "7C079D0C-96CD-4BD8-8800-0621C7635A78";
paths = (
{
closed = 1;
nodes = (
"287 0 LINE SMOOTH",
"445 0 OFFCURVE",
"495 87 OFFCURVE",
"495 364 CURVE SMOOTH",
"495 640 OFFCURVE",
"445 727 OFFCURVE",
"287 727 CURVE SMOOTH",
"80 727 LINE",
"80 0 LINE"
);
},
{
closed = 1;
nodes = (
"257 364 LINE",
"257 405 LINE",
"33 405 LINE",
"33 364 LINE"
);
},
{
closed = 1;
nodes = (
"125 715 LINE",
"95 685 LINE",
"287 685 LINE SMOOTH",
"410 685 OFFCURVE",
"449 608 OFFCURVE",
"449 364 CURVE SMOOTH",
"449 119 OFFCURVE",
"410 42 OFFCURVE",
"287 42 CURVE SMOOTH",
"95 42 LINE",
"125 13 LINE"
);
}
);
width = 545;
},
{
layerId = "291433DC-531A-45CC-B814-57D397372F12";
paths = (
{
closed = 1;
nodes = (
"287 0 LINE SMOOTH",
"460 0 OFFCURVE",
"517 98 OFFCURVE",
"517 364 CURVE SMOOTH",
"517 629 OFFCURVE",
"460 727 OFFCURVE",
"287 727 CURVE SMOOTH",
"57 727 LINE",
"57 0 LINE"
);
},
{
closed = 1;
nodes = (
"280 343 LINE",
"280 426 LINE",
"10 426 LINE",
"10 343 LINE"
);
},
{
closed = 1;
nodes = (
"148 708 LINE",
"77 644 LINE",
"287 644 LINE SMOOTH",
"393 644 OFFCURVE",
"426 577 OFFCURVE",
"426 364 CURVE SMOOTH",
"426 150 OFFCURVE",
"393 84 OFFCURVE",
"287 84 CURVE SMOOTH",
"77 84 LINE",
"148 19 LINE"
);
}
);
width = 545;
}
);
unicode = 00D0;
},
{
color = 4;
glyphname = E;
lastChange = "2023-07-14 09:44:56 +0000";
layers = (
{
anchors = (
{
name = bottom;
position = "{285, -3}";
},
{
name = ogonek;
position = "{455, 0}";
},
{
name = top;
position = "{285, 730}";
},
{
name = topleft;
position = "{8, 730}";
}
);
layerId = "7C079D0C-96CD-4BD8-8800-0621C7635A78";
paths = (
{
closed = 1;
nodes = (
"478 0 LINE",
"478 42 LINE",
"119 42 LINE",
"138 23 LINE",
"138 383 LINE",
"110 364 LINE",
"356 364 LINE",
"356 405 LINE",
"110 405 LINE",
"138 386 LINE",
"138 714 LINE",
"110 685 LINE",
"478 685 LINE",
"478 727 LINE",
"93 727 LINE",
"93 0 LINE"
);
}
);
width = 545;
},
{
anchors = (
{
name = bottom;
position = "{285, -3}";
},
{
name = ogonek;
position = "{448, 0}";
},
{
name = top;
position = "{285, 730}";
},
{
name = topleft;
position = "{8, 730}";
}
);
layerId = "291433DC-531A-45CC-B814-57D397372F12";
paths = (
{
closed = 1;
nodes = (
"501 0 LINE",
"501 84 LINE",
"95 84 LINE",
"161 17 LINE",
"161 409 LINE",
"95 343 LINE",
"379 343 LINE",
"379 426 LINE",
"95 426 LINE",
"161 360 LINE",
"161 710 LINE",
"95 644 LINE",
"501 644 LINE",
"501 727 LINE",
"70 727 LINE",
"70 0 LINE"
);
}
);
width = 545;
}
);
unicode = 0045;
},
{
color = 4;
glyphname = F;
lastChange = "2023-07-14 09:44:56 +0000";
layers = (
{
anchors = (
{
name = bottom;
position = "{273, 0}";
},
{
name = top;
position = "{273, 727}";
}
);
layerId = "7C079D0C-96CD-4BD8-8800-0621C7635A78";
paths = (
{
closed = 1;
nodes = (
"139 0 LINE",
"139 350 LINE",
"111 322 LINE",
"357 322 LINE",
"357 364 LINE",
"111 364 LINE",
"139 335 LINE",
"139 714 LINE",
"111 685 LINE",
"479 685 LINE",
"479 727 LINE",
"94 727 LINE",
"94 0 LINE"
);
}
);
width = 545;
},
{
anchors = (
{
name = bottom;
position = "{273, 0}";
},
{
name = top;
position = "{273, 727}";
}
);
layerId = "291433DC-531A-45CC-B814-57D397372F12";
paths = (
{
closed = 1;
nodes = (
"162 0 LINE",
"162 367 LINE",
"95 301 LINE",
"380 301 LINE",
"380 385 LINE",
"95 385 LINE",
"162 318 LINE",
"162 710 LINE",
"95 644 LINE",
"502 644 LINE",
"502 727 LINE",
"71 727 LINE",
"71 0 LINE"
);
}
);
width = 545;
}
);
unicode = 0046;
},
{
color = 4;
glyphname = G;
lastChange = "2023-07-14 09:44:56 +0000";
layers = (
{
anchors = (
{
name = bottom;
position = "{273, 0}";
},
{
name = top;
position = "{273, 727}";
}
);
layerId = "7C079D0C-96CD-4BD8-8800-0621C7635A78";
paths = (
{
closed = 1;
nodes = (
"401 -13 OFFCURVE",
"448 23 OFFCURVE",
"485 135 CURVE",
"485 364 LINE",
"281 364 LINE",
"281 322 LINE",
"439 322 LINE",
"439 141 LINE",
"409 56 OFFCURVE",
"373 29 OFFCURVE",
"290 29 CURVE SMOOTH",
"152 29 OFFCURVE",
"108 109 OFFCURVE",
"108 364 CURVE SMOOTH",
"108 618 OFFCURVE",
"152 698 OFFCURVE",
"290 698 CURVE SMOOTH",
"382 698 OFFCURVE",
"420 666 OFFCURVE",
"447 566 CURVE",
"491 577 LINE",
"456 701 OFFCURVE",
"408 740 OFFCURVE",
"290 740 CURVE SMOOTH",
"117 740 OFFCURVE",
"63 650 OFFCURVE",
"63 364 CURVE SMOOTH",
"63 77 OFFCURVE",
"117 -13 OFFCURVE",
"290 -13 CURVE SMOOTH"
);
}
);
width = 545;
},
{
anchors = (
{
name = bottom;
position = "{273, 0}";
},
{
name = top;
position = "{273, 727}";
}
);
layerId = "291433DC-531A-45CC-B814-57D397372F12";
paths = (
{
closed = 1;
nodes = (
"415 -13 OFFCURVE",
"466 28 OFFCURVE",
"507 156 CURVE",
"507 385 LINE",
"258 385 LINE",
"258 301 LINE",
"416 301 LINE",
"416 169 LINE",
"390 95 OFFCURVE",
"360 71 OFFCURVE",
"290 71 CURVE SMOOTH",
"169 71 OFFCURVE",
"131 141 OFFCURVE",
"131 364 CURVE SMOOTH",
"131 586 OFFCURVE",
"169 656 OFFCURVE",
"290 656 CURVE SMOOTH",
"371 656 OFFCURVE",
"405 623 OFFCURVE",
"431 516 CURVE",
"518 538 LINE",
"480 692 OFFCURVE",
"425 740 OFFCURVE",
"290 740 CURVE SMOOTH",
"100 740 OFFCURVE",
"40 650 OFFCURVE",
"40 364 CURVE SMOOTH",
"40 77 OFFCURVE",
"100 -13 OFFCURVE",
"290 -13 CURVE SMOOTH"
);
}
);
width = 545;
}
);
unicode = 0047;
},
{
color = 4;
glyphname = H;
lastChange = "2023-07-14 09:44:56 +0000";
layers = (
{
anchors = (
{
name = bottom;
position = "{273, 0}";
},
{
name = center;
position = "{273, 364}";
},
{
name = top;
position = "{273, 727}";
},
{
name = topleft;
position = "{18, 727}";
}
);
background = {
paths = (
{
closed = 0;
nodes = (
"455 0 LINE",
"455 733 LINE"
);
},
{
closed = 0;
nodes = (
"136 0 LINE",
"136 733 LINE"
);
},
{
closed = 0;
nodes = (
"455 392 LINE",
"136 392 LINE"
);
}
);
};
layerId = "7C079D0C-96CD-4BD8-8800-0621C7635A78";
paths = (
{
closed = 1;
nodes = (
"469 0 LINE",
"469 727 LINE",
"424 727 LINE",
"424 0 LINE"
);
},
{
closed = 1;
nodes = (
"122 0 LINE",
"122 727 LINE",
"76 727 LINE",
"76 0 LINE"
);
},
{
closed = 1;
nodes = (
"443 364 LINE",
"443 405 LINE",
"103 405 LINE",
"103 364 LINE"
);
}
);
width = 545;
},
{
anchors = (
{
name = bottom;
position = "{273, 0}";
},
{
name = center;
position = "{273, 364}";
},
{
name = top;
position = "{273, 727}";
},
{
name = topleft;
position = "{18, 727}";
}
);
background = {
paths = (
{
closed = 0;
nodes = (
"455 0 LINE",
"455 733 LINE"
);
},
{
closed = 0;
nodes = (
"136 0 LINE",
"136 733 LINE"
);
},
{
closed = 0;
nodes = (
"455 392 LINE",
"136 392 LINE"
);
}
);
};
layerId = "291433DC-531A-45CC-B814-57D397372F12";
paths = (
{
closed = 1;
nodes = (
"492 0 LINE",
"492 727 LINE",
"401 727 LINE",
"401 0 LINE"
);
},
{
closed = 1;
nodes = (
"145 0 LINE",
"145 727 LINE",
"54 727 LINE",
"54 0 LINE"
);
},
{
closed = 1;
nodes = (
"465 343 LINE",
"465 426 LINE",
"80 426 LINE",
"80 343 LINE"
);
}
);
width = 545;
}
);
unicode = 0048;
},
{
color = 4;
glyphname = Hbar;
lastChange = "2023-07-14 09:44:56 +0000";
layers = (
{
components = (
{
name = H;
}
);
layerId = "7C079D0C-96CD-4BD8-8800-0621C7635A78";
paths = (
{
closed = 1;
nodes = (
"518 502 LINE",
"518 544 LINE",
"27 544 LINE",
"27 502 LINE"
);
}
);
width = 545;
},
{
components = (
{
name = H;
}
);
layerId = "291433DC-531A-45CC-B814-57D397372F12";
paths = (
{
closed = 1;
nodes = (
"532 502 LINE",
"532 585 LINE",
"14 585 LINE",
"14 502 LINE"
);
}
);
width = 545;
}
);
unicode = 0126;
},
{
color = 4;
glyphname = I;
lastChange = "2023-07-14 09:44:56 +0000";
layers = (
{
anchors = (
{
name = bottom;
position = "{273, -3}";
},
{
name = ogonek;
position = "{318, 0}";
},
{
name = top;
position = "{273, 730}";
},
{
name = topleft;
position = "{-5, 730}";
}
);
layerId = "7C079D0C-96CD-4BD8-8800-0621C7635A78";
paths = (
{
closed = 1;
nodes = (
"295 0 LINE",
"295 727 LINE",
"250 727 LINE",
"250 0 LINE"
);
},
{
closed = 1;
nodes = (
"443 0 LINE",
"443 42 LINE",
"103 42 LINE",
"103 0 LINE"
);
},
{
closed = 1;
nodes = (
"443 685 LINE",
"443 727 LINE",
"103 727 LINE",
"103 685 LINE"
);
}
);
width = 545;
},
{
anchors = (
{
name = bottom;
position = "{273, -3}";
},
{
name = ogonek;
position = "{309, 0}";
},
{
name = top;
position = "{273, 730}";
},
{
name = topleft;
position = "{-5, 730}";
}
);
layerId = "291433DC-531A-45CC-B814-57D397372F12";
paths = (
{
closed = 1;
nodes = (
"318 0 LINE",
"318 727 LINE",
"227 727 LINE",
"227 0 LINE"
);
},
{
closed = 1;
nodes = (
"465 0 LINE",
"465 84 LINE",
"80 84 LINE",
"80 0 LINE"
);
},
{
closed = 1;
nodes = (
"465 644 LINE",
"465 727 LINE",
"80 727 LINE",
"80 644 LINE"
);
}
);
width = 545;
}
);
unicode = 0049;
},
{
glyphname = IJ;
lastChange = "2023-07-14 09:44:56 +0000";
layers = (
{
layerId = "7C079D0C-96CD-4BD8-8800-0621C7635A78";
paths = (
{
closed = 1;
nodes = (
"241 0 LINE",
"241 727 LINE",
"195 727 LINE",
"195 0 LINE"
);
},
{
closed = 1;
nodes = (
"218 0 LINE",
"218 42 LINE",
"48 42 LINE",
"48 0 LINE"
);
},
{
closed = 1;
nodes = (
"388 685 LINE",
"388 727 LINE",
"48 727 LINE",
"48 685 LINE"
);
},
{
closed = 1;
nodes = (
"190 -121 OFFCURVE",
"230 -131 OFFCURVE",
"288 -131 CURVE SMOOTH",
"454 -131 OFFCURVE",
"506 -52 OFFCURVE",
"506 198 CURVE SMOOTH",
"506 727 LINE",
"342 727 LINE",
"342 685 LINE",
"461 685 LINE",
"461 198 LINE SMOOTH",
"461 -20 OFFCURVE",
"419 -89 OFFCURVE",
"288 -89 CURVE SMOOTH",
"244 -89 OFFCURVE",
"213 -82 OFFCURVE",
"190 -62 CURVE",
"160 -96 LINE"
);
}
);
width = 545;
},
{
layerId = "291433DC-531A-45CC-B814-57D397372F12";
paths = (
{
closed = 1;
nodes = (
"245 0 LINE",
"245 727 LINE",
"155 727 LINE",
"155 0 LINE"
);
},
{
closed = 1;
nodes = (
"200 0 LINE",
"200 84 LINE",
"7 84 LINE",
"7 0 LINE"
);
},
{
closed = 1;
nodes = (
"393 644 LINE",
"393 727 LINE",
"7 727 LINE",
"7 644 LINE"
);
},
{
closed = 1;
nodes = (
"183 -136 OFFCURVE",
"229 -149 OFFCURVE",
"295 -149 CURVE SMOOTH",
"476 -149 OFFCURVE",
"536 -59 OFFCURVE",
"536 201 CURVE SMOOTH",
"536 727 LINE",
"326 727 LINE",
"326 644 LINE",
"445 644 LINE",
"445 201 LINE SMOOTH",
"445 -7 OFFCURVE",
"410 -65 OFFCURVE",
"295 -65 CURVE SMOOTH",
"256 -65 OFFCURVE",
"230 -60 OFFCURVE",
"211 -43 CURVE",
"149 -105 LINE"
);
}
);
width = 545;
}
);
unicode = 0132;
},
{
color = 4;
glyphname = J;
lastChange = "2023-07-14 09:44:56 +0000";
layers = (
{
anchors = (
{
name = bottom;
position = "{273, 0}";
},
{
name = top;
position = "{378, 727}";
}
);
layerId = "7C079D0C-96CD-4BD8-8800-0621C7635A78";
paths = (
{
closed = 1;
nodes = (
"405 -13 OFFCURVE",
"458 66 OFFCURVE",
"458 316 CURVE SMOOTH",
"458 727 LINE",
"294 727 LINE",
"294 685 LINE",
"413 685 LINE",
"413 316 LINE SMOOTH",
"413 98 OFFCURVE",
"371 29 OFFCURVE",
"240 29 CURVE SMOOTH",
"155 29 OFFCURVE",
"120 56 OFFCURVE",
"93 144 CURVE",
"50 132 LINE",
"85 22 OFFCURVE",
"130 -13 OFFCURVE",
"240 -13 CURVE SMOOTH"
);
}
);
width = 545;
},
{
anchors = (
{
name = bottom;
position = "{273, 0}";
},
{
name = top;
position = "{383, 727}";
}
);
layerId = "291433DC-531A-45CC-B814-57D397372F12";
paths = (
{
closed = 1;
nodes = (
"421 -13 OFFCURVE",
"481 77 OFFCURVE",
"481 337 CURVE SMOOTH",
"481 727 LINE",
"271 727 LINE",
"271 644 LINE",
"390 644 LINE",
"390 337 LINE SMOOTH",
"390 129 OFFCURVE",
"355 71 OFFCURVE",
"240 71 CURVE SMOOTH",
"160 71 OFFCURVE",
"135 95 OFFCURVE",
"108 191 CURVE",
"23 167 LINE",
"60 33 OFFCURVE",
"113 -13 OFFCURVE",
"240 -13 CURVE SMOOTH"
);
}
);
width = 545;
}
);
unicode = 004A;
},
{
color = 4;
glyphname = K;
lastChange = "2023-07-14 09:44:56 +0000";
layers = (
{
anchors = (
{
name = bottom;
position = "{273, 0}";
},
{
name = top;
position = "{273, 727}";
}
);
layerId = "7C079D0C-96CD-4BD8-8800-0621C7635A78";
paths = (
{
closed = 1;
nodes = (
"205 364 LINE",
"503 727 LINE",
"446 727 LINE",
"184 405 LINE",
"102 405 LINE",
"102 364 LINE"
);
},
{
closed = 1;
nodes = (
"127 0 LINE",
"127 727 LINE",
"82 727 LINE",
"82 0 LINE"
);
},
{
closed = 1;
nodes = (
"507 0 LINE",
"215 416 LINE",
"185 382 LINE",
"453 0 LINE"
);
}
);
width = 545;
},
{
anchors = (
{
name = bottom;
position = "{273, 0}";
},
{
name = top;
position = "{273, 727}";
}
);
layerId = "291433DC-531A-45CC-B814-57D397372F12";
paths = (
{
closed = 1;
nodes = (
"216 343 LINE",
"545 727 LINE",
"433 727 LINE",
"175 426 LINE",
"85 426 LINE",
"85 343 LINE"
);
},
{
closed = 1;
nodes = (
"150 0 LINE",
"150 727 LINE",
"59 727 LINE",
"59 0 LINE"
);
},
{
closed = 1;
nodes = (
"544 0 LINE",
"252 455 LINE",
"191 385 LINE",
"439 0 LINE"
);
}
);
width = 545;
}
);
unicode = 004B;
},
{
color = 4;
glyphname = L;
lastChange = "2023-07-14 09:44:56 +0000";
layers = (
{
anchors = (
{
name = bottom;
position = "{273, 0}";
},
{
name = center;
position = "{273, 364}";
},
{
name = top;
position = "{148, 727}";
},
{
name = topright;
position = "{527, 727}";
}
);
layerId = "7C079D0C-96CD-4BD8-8800-0621C7635A78";
paths = (
{
closed = 1;
nodes = (
"460 0 LINE",
"460 42 LINE",
"155 42 LINE",
"155 727 LINE",
"110 727 LINE",
"110 0 LINE"
);
}
);
width = 545;
},
{
anchors = (
{
name = bottom;
position = "{273, 0}";
},
{
name = center;
position = "{273, 364}";
},
{
name = top;
position = "{155, 727}";
},
{
name = topright;
position = "{527, 727}";
}
);
layerId = "291433DC-531A-45CC-B814-57D397372F12";
paths = (
{
closed = 1;
nodes = (
"483 0 LINE",
"483 84 LINE",
"178 84 LINE",
"178 727 LINE",
"87 727 LINE",
"87 0 LINE"
);
}
);
width = 545;
}
);
unicode = 004C;
},
{
color = 4;
glyphname = Lslash;
lastChange = "2023-07-14 09:44:56 +0000";
layers = (
{
layerId = "7C079D0C-96CD-4BD8-8800-0621C7635A78";
paths = (
{
closed = 1;
nodes = (
"487 0 LINE",
"487 42 LINE",
"183 42 LINE",
"183 727 LINE",
"137 727 LINE",
"137 0 LINE"
);
},
{
closed = 1;
nodes = (
"305 471 LINE",
"305 514 LINE",
"48 409 LINE",
"48 366 LINE"
);
}
);
width = 545;
},
{
layerId = "291433DC-531A-45CC-B814-57D397372F12";
paths = (
{
closed = 1;
nodes = (
"510 0 LINE",
"510 84 LINE",
"205 84 LINE",
"205 727 LINE",
"115 727 LINE",
"115 0 LINE"
);
},
{
closed = 1;
nodes = (
"327 457 LINE",
"327 545 LINE",
"25 423 LINE",
"25 335 LINE"
);
}
);
width = 545;
}
);
unicode = 0141;
},
{
color = 4;
glyphname = M;
lastChange = "2023-07-14 09:44:56 +0000";
layers = (
{
anchors = (
{
name = bottom;
position = "{273, 0}";
},
{
name = top;
position = "{273, 727}";
}
);
layerId = "7C079D0C-96CD-4BD8-8800-0621C7635A78";
paths = (
{
closed = 1;
nodes = (
"100 0 LINE",
"111 613 LINE",
"250 238 LINE",
"295 238 LINE",
"435 613 LINE",
"445 0 LINE",
"491 0 LINE",
"478 727 LINE",
"432 727 LINE",
"273 304 LINE",
"114 727 LINE",
"67 727 LINE",
"55 0 LINE"
);
}
);
width = 545;
},
{
anchors = (
{
name = bottom;
position = "{273, 0}";
},
{
name = top;
position = "{273, 727}";
}
);
layerId = "291433DC-531A-45CC-B814-57D397372F12";
paths = (
{
closed = 1;
nodes = (
"123 0 LINE",
"132 493 LINE",
"234 217 LINE",
"312 217 LINE",
"414 493 LINE",
"423 0 LINE",
"514 0 LINE",
"501 727 LINE",
"415 727 LINE",
"273 367 LINE",
"130 727 LINE",
"45 727 LINE",
"32 0 LINE"
);
}
);
width = 545;
}
);
unicode = 004D;
},
{
color = 4;
glyphname = N;
lastChange = "2023-07-14 09:44:56 +0000";
layers = (
{
anchors = (
{
name = bottom;
position = "{273, -3}";
},
{
name = top;
position = "{273, 730}";
}
);
layerId = "7C079D0C-96CD-4BD8-8800-0621C7635A78";
paths = (
{
closed = 1;
nodes = (
"124 0 LINE",
"124 727 LINE",
"78 727 LINE",
"418 0 LINE",
"467 0 LINE",
"467 727 LINE",
"422 727 LINE",
"422 0 LINE",
"467 0 LINE",
"127 727 LINE",
"78 727 LINE",
"78 0 LINE"
);
}
);
width = 545;
},
{
anchors = (
{
name = bottom;
position = "{273, -3}";
},
{
name = top;
position = "{273, 730}";
}
);
layerId = "291433DC-531A-45CC-B814-57D397372F12";
paths = (
{
closed = 1;
nodes = (
"146 0 LINE",
"146 727 LINE",
"55 727 LINE",
"393 0 LINE",
"490 0 LINE",
"490 727 LINE",
"399 727 LINE",
"399 0 LINE",
"490 0 LINE",
"153 727 LINE",
"55 727 LINE",
"55 0 LINE"
);
}
);
width = 545;
}
);
unicode = 004E;
},
{
color = 4;
glyphname = Eng;
lastChange = "2023-07-14 09:44:56 +0000";
layers = (
{
components = (
{
name = N;
}
);
layerId = "7C079D0C-96CD-4BD8-8800-0621C7635A78";
paths = (
{
closed = 1;
nodes = (
"455 -141 OFFCURVE",
"467 -69 OFFCURVE",
"467 0 CURVE",
"418 0 LINE",
"430 -29 OFFCURVE",
"414 -99 OFFCURVE",
"338 -99 CURVE",
"338 -141 LINE"
);
}
);
width = 545;
},
{
components = (
{
name = N;
}
);
layerId = "291433DC-531A-45CC-B814-57D397372F12";
paths = (
{
closed = 1;
nodes = (
"448 -160 OFFCURVE",
"490 -122 OFFCURVE",
"490 0 CURVE",
"393 0 LINE",
"405 -31 OFFCURVE",
"392 -77 OFFCURVE",
"315 -77 CURVE",
"315 -161 LINE"
);
}
);
width = 545;
}
);
unicode = 014A;
},
{
color = 4;
glyphname = O;
lastChange = "2023-07-14 09:44:56 +0000";
layers = (
{
anchors = (
{
name = bottom;
position = "{273, -3}";
},
{
name = center;
position = "{273, 364}";
},
{
name = ogonek;
position = "{509, 6}";
},
{
name = top;
position = "{273, 730}";
},
{
name = topleft;
position = "{-5, 730}";
},
{
name = topright;
position = "{550, 730}";
}
);
layerId = "7C079D0C-96CD-4BD8-8800-0621C7635A78";
paths = (
{
closed = 1;
nodes = (
"434 -13 OFFCURVE",
"485 69 OFFCURVE",
"485 327 CURVE SMOOTH",
"485 400 LINE SMOOTH",
"485 658 OFFCURVE",
"434 740 OFFCURVE",
"273 740 CURVE SMOOTH",
"112 740 OFFCURVE",
"61 658 OFFCURVE",
"61 400 CURVE SMOOTH",
"61 327 LINE SMOOTH",
"61 69 OFFCURVE",
"112 -13 OFFCURVE",
"273 -13 CURVE SMOOTH"
);
},
{
closed = 1;
nodes = (
"147 29 OFFCURVE",
"107 101 OFFCURVE",
"106 327 CURVE SMOOTH",
"106 400 LINE SMOOTH",
"105 626 OFFCURVE",
"145 698 OFFCURVE",
"273 698 CURVE SMOOTH",
"399 698 OFFCURVE",
"439 626 OFFCURVE",
"439 400 CURVE SMOOTH",
"439 327 LINE SMOOTH",
"439 101 OFFCURVE",
"399 29 OFFCURVE",
"273 29 CURVE SMOOTH"
);
}
);
width = 545;
},
{
anchors = (
{
name = bottom;
position = "{273, -3}";
},
{
name = center;
position = "{273, 364}";
},
{
name = ogonek;
position = "{509, 6}";
},
{
name = top;
position = "{273, 730}";
},
{
name = topleft;
position = "{-5, 730}";
},
{
name = topright;
position = "{550, 730}";
}
);
layerId = "291433DC-531A-45CC-B814-57D397372F12";
paths = (
{
closed = 1;
nodes = (
"449 -13 OFFCURVE",
"507 80 OFFCURVE",
"507 327 CURVE SMOOTH",
"507 400 LINE SMOOTH",
"507 647 OFFCURVE",
"449 740 OFFCURVE",
"273 740 CURVE SMOOTH",
"96 740 OFFCURVE",
"38 647 OFFCURVE",
"38 400 CURVE SMOOTH",
"38 327 LINE SMOOTH",
"38 80 OFFCURVE",
"96 -13 OFFCURVE",
"273 -13 CURVE SMOOTH"
);
},
{
closed = 1;
nodes = (
"164 71 OFFCURVE",
"129 132 OFFCURVE",
"129 327 CURVE SMOOTH",
"129 400 LINE SMOOTH",
"129 595 OFFCURVE",
"162 656 OFFCURVE",
"273 656 CURVE SMOOTH",
"383 656 OFFCURVE",
"416 595 OFFCURVE",
"416 400 CURVE SMOOTH",
"416 327 LINE SMOOTH",
"416 132 OFFCURVE",
"383 71 OFFCURVE",
"273 71 CURVE SMOOTH"
);
}
);
width = 545;
}
);
unicode = 004F;
},
{
color = 4;
glyphname = Oslash;
lastChange = "2023-07-14 09:44:56 +0000";
layers = (
{
anchors = (
{
name = bottom;
position = "{273, 0}";
},
{
name = top;
position = "{273, 727}";
}
);
layerId = "7C079D0C-96CD-4BD8-8800-0621C7635A78";
paths = (
{
closed = 1;
nodes = (
"109 -45 LINE",
"486 773 LINE",
"436 773 LINE",
"59 -45 LINE"
);
},
{
closed = 1;
nodes = (
"434 -13 OFFCURVE",
"485 69 OFFCURVE",
"485 327 CURVE SMOOTH",
"485 400 LINE SMOOTH",
"485 658 OFFCURVE",
"434 740 OFFCURVE",
"273 740 CURVE SMOOTH",
"112 740 OFFCURVE",
"61 658 OFFCURVE",
"61 400 CURVE SMOOTH",
"61 327 LINE SMOOTH",
"61 69 OFFCURVE",
"112 -13 OFFCURVE",
"273 -13 CURVE SMOOTH"
);
},
{
closed = 1;
nodes = (
"146 29 OFFCURVE",
"106 101 OFFCURVE",
"106 327 CURVE SMOOTH",
"106 400 LINE SMOOTH",
"106 626 OFFCURVE",
"146 698 OFFCURVE",
"273 698 CURVE SMOOTH",
"399 698 OFFCURVE",
"439 626 OFFCURVE",
"439 400 CURVE SMOOTH",
"439 327 LINE SMOOTH",
"439 101 OFFCURVE",
"399 29 OFFCURVE",
"273 29 CURVE SMOOTH"
);
}
);
width = 545;
},
{
anchors = (
{
name = bottom;
position = "{273, 0}";
},
{
name = top;
position = "{273, 727}";
}
);
layerId = "291433DC-531A-45CC-B814-57D397372F12";
paths = (
{
closed = 1;
nodes = (
"125 -45 LINE",
"521 773 LINE",
"421 773 LINE",
"25 -45 LINE"
);
},
{
closed = 1;
nodes = (
"449 -13 OFFCURVE",
"507 80 OFFCURVE",
"507 327 CURVE SMOOTH",
"507 400 LINE SMOOTH",
"507 647 OFFCURVE",
"449 740 OFFCURVE",
"273 740 CURVE SMOOTH",
"96 740 OFFCURVE",
"38 647 OFFCURVE",
"38 400 CURVE SMOOTH",
"38 327 LINE SMOOTH",
"38 80 OFFCURVE",
"96 -13 OFFCURVE",
"273 -13 CURVE SMOOTH"
);
},
{
closed = 1;
nodes = (
"163 71 OFFCURVE",
"129 132 OFFCURVE",
"129 327 CURVE SMOOTH",
"129 400 LINE SMOOTH",
"129 595 OFFCURVE",
"163 656 OFFCURVE",
"273 656 CURVE SMOOTH",
"383 656 OFFCURVE",
"416 595 OFFCURVE",
"416 400 CURVE SMOOTH",
"416 327 LINE SMOOTH",
"416 132 OFFCURVE",
"383 71 OFFCURVE",
"273 71 CURVE SMOOTH"
);
}
);
width = 545;
}
);
unicode = 00D8;
},
{
color = 4;
glyphname = OE;
lastChange = "2023-07-14 09:44:56 +0000";
layers = (
{
anchors = (
{
name = bottom;
position = "{273, 0}";
},
{
name = top;
position = "{273, 727}";
}
);
layerId = "7C079D0C-96CD-4BD8-8800-0621C7635A78";
paths = (
{
closed = 1;
nodes = (
"295 -13 OFFCURVE",
"335 76 OFFCURVE",
"335 360 CURVE SMOOTH",
"335 649 OFFCURVE",
"295 740 OFFCURVE",
"168 740 CURVE SMOOTH",
"42 740 OFFCURVE",
"2 649 OFFCURVE",
"2 363 CURVE SMOOTH",
"2 77 OFFCURVE",
"42 -13 OFFCURVE",
"168 -13 CURVE SMOOTH"
);
},
{
closed = 1;
nodes = (
"76 29 OFFCURVE",
"47 109 OFFCURVE",
"47 363 CURVE SMOOTH",
"47 617 OFFCURVE",
"76 698 OFFCURVE",
"168 698 CURVE SMOOTH",
"260 698 OFFCURVE",
"289 617 OFFCURVE",
"289 363 CURVE SMOOTH",
"289 109 OFFCURVE",
"260 29 OFFCURVE",
"168 29 CURVE SMOOTH"
);
},
{
closed = 1;
nodes = (
"544 0 LINE",
"544 42 LINE",
"309 42 LINE",
"335 15 LINE",
"335 391 LINE",
"309 364 LINE",
"461 364 LINE",
"461 405 LINE",
"309 405 LINE",
"335 378 LINE",
"335 713 LINE",
"309 685 LINE",
"544 685 LINE",
"544 727 LINE",
"289 727 LINE",
"289 0 LINE"
);
}
);
width = 545;
},
{
anchors = (
{
name = bottom;
position = "{273, 0}";
},
{
name = top;
position = "{273, 727}";
}
);
layerId = "291433DC-531A-45CC-B814-57D397372F12";
paths = (
{
closed = 1;
nodes = (
"323 -13 OFFCURVE",
"357 87 OFFCURVE",
"357 360 CURVE SMOOTH",
"357 638 OFFCURVE",
"323 740 OFFCURVE",
"179 740 CURVE SMOOTH",
"46 740 OFFCURVE",
"1 639 OFFCURVE",
"1 363 CURVE SMOOTH",
"1 87 OFFCURVE",
"46 -13 OFFCURVE",
"179 -13 CURVE SMOOTH"
);
},
{
closed = 1;
nodes = (
"117 71 OFFCURVE",
"92 142 OFFCURVE",
"92 363 CURVE SMOOTH",
"92 585 OFFCURVE",
"117 656 OFFCURVE",
"179 656 CURVE SMOOTH",
"252 656 OFFCURVE",
"266 585 OFFCURVE",
"266 363 CURVE SMOOTH",
"266 142 OFFCURVE",
"252 71 OFFCURVE",
"179 71 CURVE SMOOTH"
);
},
{
closed = 1;
nodes = (
"545 0 LINE",
"545 84 LINE",
"301 84 LINE",
"357 26 LINE",
"357 400 LINE",
"301 343 LINE",
"473 343 LINE",
"473 426 LINE",
"301 426 LINE",
"357 369 LINE",
"357 701 LINE",
"301 644 LINE",
"545 644 LINE",
"545 727 LINE",
"266 727 LINE",
"266 0 LINE"
);
}
);
width = 545;
}
);
unicode = 0152;
},
{
color = 4;
glyphname = P;
lastChange = "2023-07-14 09:44:56 +0000";
layers = (
{
anchors = (
{
name = bottom;
position = "{273, 0}";
},
{
name = top;
position = "{273, 727}";
}
);
layerId = "7C079D0C-96CD-4BD8-8800-0621C7635A78";
paths = (
{
closed = 1;
nodes = (
"142 0 LINE",
"142 714 LINE",
"114 685 LINE",
"291 685 LINE SMOOTH",
"405 685 OFFCURVE",
"441 647 OFFCURVE",
"441 525 CURVE SMOOTH",
"441 402 OFFCURVE",
"405 364 OFFCURVE",
"291 364 CURVE SMOOTH",
"122 364 LINE",
"122 322 LINE",
"291 322 LINE SMOOTH",
"439 322 OFFCURVE",
"486 371 OFFCURVE",
"486 525 CURVE SMOOTH",
"486 678 OFFCURVE",
"439 727 OFFCURVE",
"291 727 CURVE SMOOTH",
"96 727 LINE",
"96 0 LINE"
);
}
);
width = 545;
},
{
anchors = (
{
name = bottom;
position = "{273, 0}";
},
{
name = top;
position = "{273, 727}";
}
);
layerId = "291433DC-531A-45CC-B814-57D397372F12";
paths = (
{
closed = 1;
nodes = (
"165 0 LINE",
"165 727 LINE",
"80 644 LINE",
"291 644 LINE SMOOTH",
"391 644 OFFCURVE",
"418 615 OFFCURVE",
"418 513 CURVE SMOOTH",
"418 402 OFFCURVE",
"391 382 OFFCURVE",
"291 382 CURVE SMOOTH",
"99 382 LINE",
"99 298 LINE",
"291 298 LINE SMOOTH",
"452 298 OFFCURVE",
"509 347 OFFCURVE",
"509 513 CURVE SMOOTH",
"509 669 OFFCURVE",
"452 727 OFFCURVE",
"291 727 CURVE SMOOTH",
"74 727 LINE",
"74 0 LINE"
);
}
);
width = 545;
}
);
unicode = 0050;
},
{
color = 4;
glyphname = Thorn;
lastChange = "2023-07-14 09:44:56 +0000";
layers = (
{
anchors = (
{
name = bottom;
position = "{273, 0}";
},
{
name = top;
position = "{273, 727}";
}
);
layerId = "7C079D0C-96CD-4BD8-8800-0621C7635A78";
paths = (
{
closed = 1;
nodes = (
"273 178 LINE SMOOTH",
"421 178 OFFCURVE",
"468 223 OFFCURVE",
"468 364 CURVE SMOOTH",
"468 505 OFFCURVE",
"421 549 OFFCURVE",
"273 549 CURVE SMOOTH",
"123 549 LINE",
"123 507 LINE",
"273 507 LINE SMOOTH",
"386 507 OFFCURVE",
"423 473 OFFCURVE",
"423 364 CURVE SMOOTH",
"423 255 OFFCURVE",
"386 220 OFFCURVE",
"273 220 CURVE SMOOTH",
"123 220 LINE",
"123 178 LINE"
);
},
{
closed = 1;
nodes = (
"142 0 LINE",
"142 727 LINE",
"96 727 LINE",
"96 0 LINE"
);
}
);
width = 545;
},
{
anchors = (
{
name = bottom;
position = "{273, 0}";
},
{
name = top;
position = "{273, 727}";
}
);
layerId = "291433DC-531A-45CC-B814-57D397372F12";
paths = (
{
closed = 1;
nodes = (
"273 157 LINE SMOOTH",
"434 157 OFFCURVE",
"491 211 OFFCURVE",
"491 364 CURVE SMOOTH",
"491 516 OFFCURVE",
"434 570 OFFCURVE",
"273 570 CURVE SMOOTH",
"100 570 LINE",
"100 486 LINE",
"273 486 LINE SMOOTH",
"374 486 OFFCURVE",
"400 461 OFFCURVE",
"400 364 CURVE SMOOTH",
"400 266 OFFCURVE",
"374 241 OFFCURVE",
"273 241 CURVE SMOOTH",
"100 241 LINE",
"100 157 LINE"
);
},
{
closed = 1;
nodes = (
"165 0 LINE",
"165 727 LINE",
"74 727 LINE",
"74 0 LINE"
);
}
);
width = 545;
}
);
unicode = 00DE;
},
{
color = 4;
glyphname = Q;
lastChange = "2023-07-14 09:44:56 +0000";
layers = (
{
anchors = (
{
name = bottom;
position = "{273, 0}";
},
{
name = top;
position = "{273, 727}";
}
);
layerId = "7C079D0C-96CD-4BD8-8800-0621C7635A78";
paths = (
{
closed = 1;
nodes = (
"434 -13 OFFCURVE",
"485 69 OFFCURVE",
"485 327 CURVE SMOOTH",
"485 400 LINE SMOOTH",
"485 658 OFFCURVE",
"434 740 OFFCURVE",
"273 740 CURVE SMOOTH",
"112 740 OFFCURVE",
"61 658 OFFCURVE",
"61 400 CURVE SMOOTH",
"61 327 LINE SMOOTH",
"61 69 OFFCURVE",
"112 -13 OFFCURVE",
"273 -13 CURVE SMOOTH"
);
},
{
closed = 1;
nodes = (
"448 -153 OFFCURVE",
"483 -126 OFFCURVE",
"541 -126 CURVE",
"541 -85 LINE",
"489 -85 OFFCURVE",
"434 -111 OFFCURVE",
"382 -111 CURVE SMOOTH",
"337 -111 OFFCURVE",
"289 -73 OFFCURVE",
"261 -67 CURVE",
"281 -55 OFFCURVE",
"302 -19 OFFCURVE",
"304 8 CURVE",
"258 5 LINE",
"241 -27 OFFCURVE",
"212 -57 OFFCURVE",
"163 -57 CURVE",
"163 -99 LINE",
"188 -99 LINE SMOOTH",
"280 -99 OFFCURVE",
"300 -153 OFFCURVE",
"382 -153 CURVE SMOOTH"
);
},
{
closed = 1;
nodes = (
"147 29 OFFCURVE",
"107 101 OFFCURVE",
"106 327 CURVE SMOOTH",
"106 400 LINE SMOOTH",
"105 626 OFFCURVE",
"145 698 OFFCURVE",
"273 698 CURVE SMOOTH",
"399 698 OFFCURVE",
"439 626 OFFCURVE",
"439 400 CURVE SMOOTH",
"439 327 LINE SMOOTH",
"439 101 OFFCURVE",
"399 29 OFFCURVE",
"273 29 CURVE SMOOTH"
);
}
);
width = 545;
},
{
anchors = (
{
name = bottom;
position = "{273, 0}";
},
{
name = top;
position = "{273, 727}";
}
);
layerId = "291433DC-531A-45CC-B814-57D397372F12";
paths = (
{
closed = 1;
nodes = (
"449 -13 OFFCURVE",
"507 80 OFFCURVE",
"507 327 CURVE SMOOTH",
"507 400 LINE SMOOTH",
"507 647 OFFCURVE",
"449 740 OFFCURVE",
"273 740 CURVE SMOOTH",
"96 740 OFFCURVE",
"38 647 OFFCURVE",
"38 400 CURVE SMOOTH",
"38 327 LINE SMOOTH",
"38 80 OFFCURVE",
"96 -13 OFFCURVE",
"273 -13 CURVE SMOOTH"
);
},
{
closed = 1;
nodes = (
"467 -153 OFFCURVE",
"497 -118 OFFCURVE",
"564 -128 CURVE",
"564 -45 LINE",
"499 -35 OFFCURVE",
"435 -69 OFFCURVE",
"382 -69 CURVE SMOOTH",
"357 -69 OFFCURVE",
"328 -52 OFFCURVE",
"301 -39 CURVE",
"322 -14 OFFCURVE",
"334 20 OFFCURVE",
"324 44 CURVE",
"244 39 LINE",
"225 -5 OFFCURVE",
"194 -21 OFFCURVE",
"140 -14 CURVE",
"140 -99 LINE",
"188 -99 LINE SMOOTH",
"266 -99 OFFCURVE",
"282 -153 OFFCURVE",
"382 -153 CURVE SMOOTH"
);
},
{
closed = 1;
nodes = (
"164 71 OFFCURVE",
"129 132 OFFCURVE",
"129 327 CURVE SMOOTH",
"129 400 LINE SMOOTH",
"129 595 OFFCURVE",
"162 656 OFFCURVE",
"273 656 CURVE SMOOTH",
"383 656 OFFCURVE",
"416 595 OFFCURVE",
"416 400 CURVE SMOOTH",
"416 327 LINE SMOOTH",
"416 132 OFFCURVE",
"383 71 OFFCURVE",
"273 71 CURVE SMOOTH"
);
}
);
width = 545;
}
);
unicode = 0051;
},
{
color = 4;
glyphname = R;
lastChange = "2023-07-14 09:44:56 +0000";
layers = (
{
anchors = (
{
name = bottom;
position = "{273, 0}";
},
{
name = top;
position = "{273, 727}";
}
);
layerId = "7C079D0C-96CD-4BD8-8800-0621C7635A78";
paths = (
{
closed = 1;
nodes = (
"135 0 LINE",
"135 685 LINE",
"284 685 LINE SMOOTH",
"397 685 OFFCURVE",
"434 647 OFFCURVE",
"434 525 CURVE SMOOTH",
"434 402 OFFCURVE",
"397 364 OFFCURVE",
"284 364 CURVE SMOOTH",
"105 364 LINE",
"105 322 LINE",
"284 322 LINE SMOOTH",
"432 322 OFFCURVE",
"479 371 OFFCURVE",
"479 525 CURVE SMOOTH",
"479 678 OFFCURVE",
"432 727 OFFCURVE",
"284 727 CURVE SMOOTH",
"89 727 LINE",
"89 0 LINE"
);
},
{
closed = 1;
nodes = (
"496 0 LINE",
"274 344 LINE",
"220 344 LINE",
"444 0 LINE"
);
}
);
width = 545;
},
{
anchors = (
{
name = bottom;
position = "{273, 0}";
},
{
name = top;
position = "{273, 727}";
}
);
layerId = "291433DC-531A-45CC-B814-57D397372F12";
paths = (
{
closed = 1;
nodes = (
"157 0 LINE",
"157 644 LINE",
"284 644 LINE SMOOTH",
"384 644 OFFCURVE",
"411 615 OFFCURVE",
"411 513 CURVE SMOOTH",
"411 402 OFFCURVE",
"384 382 OFFCURVE",
"284 382 CURVE SMOOTH",
"92 382 LINE",
"92 298 LINE",
"284 298 LINE SMOOTH",
"445 298 OFFCURVE",
"502 347 OFFCURVE",
"502 513 CURVE SMOOTH",
"502 669 OFFCURVE",
"445 727 OFFCURVE",
"284 727 CURVE SMOOTH",
"66 727 LINE",
"66 0 LINE"
);
},
{
closed = 1;
nodes = (
"536 0 LINE",
"290 358 LINE",
"184 358 LINE",
"431 0 LINE"
);
}
);
width = 545;
}
);
unicode = 0052;
},
{
color = 4;
glyphname = S;
lastChange = "2023-07-14 09:44:56 +0000";
layers = (
{
anchors = (
{
name = bottom;
position = "{273, 0}";
},
{
name = top;
position = "{273, 730}";
}
);
layerId = "7C079D0C-96CD-4BD8-8800-0621C7635A78";
paths = (
{
closed = 1;
nodes = (
"427 -13 OFFCURVE",
"476 37 OFFCURVE",
"476 195 CURVE SMOOTH",
"476 308 OFFCURVE",
"427 359 OFFCURVE",
"273 407 CURVE SMOOTH",
"162 442 OFFCURVE",
"127 476 OFFCURVE",
"127 553 CURVE SMOOTH",
"127 664 OFFCURVE",
"162 698 OFFCURVE",
"273 698 CURVE SMOOTH",
"365 698 OFFCURVE",
"404 680 OFFCURVE",
"435 621 CURVE",
"465 655 LINE",
"426 719 OFFCURVE",
"380 740 OFFCURVE",
"273 740 CURVE SMOOTH",
"127 740 OFFCURVE",
"82 695 OFFCURVE",
"82 553 CURVE SMOOTH",
"82 455 OFFCURVE",
"127 410 OFFCURVE",
"273 362 CURVE SMOOTH",
"393 322 OFFCURVE",
"431 283 OFFCURVE",
"431 195 CURVE SMOOTH",
"431 69 OFFCURVE",
"393 29 OFFCURVE",
"273 29 CURVE SMOOTH",
"171 29 OFFCURVE",
"129 51 OFFCURVE",
"98 118 CURVE",
"65 86 LINE",
"105 11 OFFCURVE",
"155 -13 OFFCURVE",
"273 -13 CURVE SMOOTH"
);
}
);
width = 545;
},
{
anchors = (
{
name = bottom;
position = "{273, 0}";
},
{
name = top;
position = "{273, 730}";
}
);
layerId = "291433DC-531A-45CC-B814-57D397372F12";
paths = (
{
closed = 1;
nodes = (
"441 -13 OFFCURVE",
"499 46 OFFCURVE",
"499 206 CURVE SMOOTH",
"499 329 OFFCURVE",
"444 376 OFFCURVE",
"279 427 CURVE SMOOTH",
"177 459 OFFCURVE",
"150 475 OFFCURVE",
"150 542 CURVE SMOOTH",
"150 631 OFFCURVE",
"175 656 OFFCURVE",
"273 656 CURVE SMOOTH",
"372 656 OFFCURVE",
"396 636 OFFCURVE",
"428 561 CURVE",
"493 631 LINE",
"448 713 OFFCURVE",
"394 740 OFFCURVE",
"273 740 CURVE SMOOTH",
"115 740 OFFCURVE",
"59 686 OFFCURVE",
"59 542 CURVE SMOOTH",
"59 435 OFFCURVE",
"111 393 OFFCURVE",
"265 342 CURVE SMOOTH",
"377 305 OFFCURVE",
"408 284 OFFCURVE",
"408 206 CURVE SMOOTH",
"408 102 OFFCURVE",
"379 71 OFFCURVE",
"273 71 CURVE SMOOTH",
"165 71 OFFCURVE",
"138 94 OFFCURVE",
"107 177 CURVE",
"37 112 LINE",
"83 18 OFFCURVE",
"141 -13 OFFCURVE",
"273 -13 CURVE SMOOTH"
);
}
);
width = 545;
}
);
unicode = 0053;
},
{
color = 4;
glyphname = Germandbls;
lastChange = "2023-07-14 09:44:56 +0000";
layers = (
{
anchors = (
{
name = bottom;
position = "{273, 0}";
},
{
name = top;
position = "{273, 727}";
}
);
layerId = "7C079D0C-96CD-4BD8-8800-0621C7635A78";
paths = (
{
closed = 1;
nodes = (
"78 0 LINE",
"78 515 LINE SMOOTH",
"78 617 OFFCURVE",
"144 685 OFFCURVE",
"243 685 CURVE SMOOTH",
"451 685 LINE",
"267 387 LINE",
"319 387 LINE",
"527 727 LINE",
"248 727 LINE SMOOTH",
"115 727 OFFCURVE",
"33 647 OFFCURVE",
"33 515 CURVE SMOOTH",
"33 0 LINE"
);
},
{
closed = 1;
nodes = (
"482 -13 OFFCURVE",
"527 34 OFFCURVE",
"527 208 CURVE SMOOTH",
"527 374 OFFCURVE",
"482 429 OFFCURVE",
"337 429 CURVE SMOOTH",
"306 429 LINE",
"306 387 LINE",
"337 387 LINE SMOOTH",
"447 387 OFFCURVE",
"482 342 OFFCURVE",
"482 208 CURVE SMOOTH",
"482 65 OFFCURVE",
"447 29 OFFCURVE",
"337 29 CURVE SMOOTH",
"241 29 OFFCURVE",
"211 51 OFFCURVE",
"211 120 CURVE",
"165 120 LINE",
"165 19 OFFCURVE",
"206 -13 OFFCURVE",
"337 -13 CURVE SMOOTH"
);
}
);
width = 545;
},
{
anchors = (
{
name = bottom;
position = "{273, 0}";
},
{
name = top;
position = "{273, 727}";
}
);
layerId = "291433DC-531A-45CC-B814-57D397372F12";
paths = (
{
closed = 1;
nodes = (
"92 0 LINE",
"92 504 LINE SMOOTH",
"92 587 OFFCURVE",
"156 644 OFFCURVE",
"253 644 CURVE SMOOTH",
"388 644 LINE",
"198 347 LINE",
"304 347 LINE",
"545 727 LINE",
"258 727 LINE SMOOTH",
"99 727 OFFCURVE",
"1 643 OFFCURVE",
"1 504 CURVE SMOOTH",
"1 0 LINE"
);
},
{
closed = 1;
nodes = (
"473 -13 OFFCURVE",
"524 34 OFFCURVE",
"524 209 CURVE SMOOTH",
"524 375 OFFCURVE",
"473 431 OFFCURVE",
"311 431 CURVE SMOOTH",
"275 431 LINE",
"275 347 LINE",
"311 347 LINE SMOOTH",
"404 347 OFFCURVE",
"433 312 OFFCURVE",
"433 209 CURVE SMOOTH",
"433 97 OFFCURVE",
"404 71 OFFCURVE",
"311 71 CURVE SMOOTH",
"261 71 OFFCURVE",
"245 91 OFFCURVE",
"245 153 CURVE",
"154 153 LINE",
"154 27 OFFCURVE",
"192 -13 OFFCURVE",
"311 -13 CURVE SMOOTH"
);
}
);
width = 545;
}
);
unicode = 1E9E;
},
{
color = 4;
glyphname = T;
lastChange = "2023-07-14 09:44:56 +0000";
layers = (
{
anchors = (
{
name = bottom;
position = "{273, 0}";
},
{
name = center;
position = "{273, 364}";
},
{
name = top;
position = "{273, 727}";
}
);
layerId = "7C079D0C-96CD-4BD8-8800-0621C7635A78";
paths = (
{
closed = 1;
nodes = (
"295 0 LINE",
"295 727 LINE",
"250 727 LINE",
"250 0 LINE"
);
},
{
closed = 1;
nodes = (
"516 685 LINE",
"516 727 LINE",
"29 727 LINE",
"29 685 LINE"
);
}
);
width = 545;
},
{
anchors = (
{
name = bottom;
position = "{273, 0}";
},
{
name = center;
position = "{273, 364}";
},
{
name = top;
position = "{273, 727}";
}
);
layerId = "291433DC-531A-45CC-B814-57D397372F12";
paths = (
{
closed = 1;
nodes = (
"318 0 LINE",
"318 727 LINE",
"227 727 LINE",
"227 0 LINE"
);
},
{
closed = 1;
nodes = (
"539 644 LINE",
"539 727 LINE",
"6 727 LINE",
"6 644 LINE"
);
}
);
width = 545;
}
);
unicode = 0054;
},
{
color = 4;
glyphname = Tbar;
lastChange = "2023-07-14 09:44:56 +0000";
layers = (
{
components = (
{
name = T;
}
);
layerId = "7C079D0C-96CD-4BD8-8800-0621C7635A78";
paths = (
{
closed = 1;
nodes = (
"445 364 LINE",
"445 405 LINE",
"100 405 LINE",
"100 364 LINE"
);
}
);
width = 545;
},
{
components = (
{
name = T;
}
);
layerId = "291433DC-531A-45CC-B814-57D397372F12";
paths = (
{
closed = 1;
nodes = (
"441 343 LINE",
"441 426 LINE",
"105 426 LINE",
"105 343 LINE"
);
}
);
width = 545;
}
);
unicode = 0166;
},
{
color = 4;
glyphname = U;
lastChange = "2023-07-14 09:44:56 +0000";
layers = (
{
anchors = (
{
name = bottom;
position = "{273, -3}";
},
{
name = ogonek;
position = "{318, -1}";
},
{
name = top;
position = "{273, 730}";
},
{
name = topright;
position = "{550, 730}";
}
);
layerId = "7C079D0C-96CD-4BD8-8800-0621C7635A78";
paths = (
{
closed = 1;
nodes = (
"419 -13 OFFCURVE",
"465 55 OFFCURVE",
"465 266 CURVE SMOOTH",
"465 727 LINE",
"420 727 LINE",
"420 266 LINE SMOOTH",
"420 86 OFFCURVE",
"385 29 OFFCURVE",
"273 29 CURVE SMOOTH",
"161 29 OFFCURVE",
"125 86 OFFCURVE",
"125 266 CURVE SMOOTH",
"125 727 LINE",
"80 727 LINE",
"80 266 LINE SMOOTH",
"80 55 OFFCURVE",
"126 -13 OFFCURVE",
"273 -13 CURVE SMOOTH"
);
}
);
width = 545;
},
{
anchors = (
{
name = bottom;
position = "{273, -3}";
},
{
name = ogonek;
position = "{318, 0}";
},
{
name = top;
position = "{273, 730}";
},
{
name = topright;
position = "{550, 730}";
}
);
layerId = "291433DC-531A-45CC-B814-57D397372F12";
paths = (
{
closed = 1;
nodes = (
"434 -13 OFFCURVE",
"488 65 OFFCURVE",
"488 278 CURVE SMOOTH",
"488 727 LINE",
"397 727 LINE",
"397 278 LINE SMOOTH",
"397 117 OFFCURVE",
"368 71 OFFCURVE",
"273 71 CURVE SMOOTH",
"177 71 OFFCURVE",
"148 117 OFFCURVE",
"148 278 CURVE SMOOTH",
"148 727 LINE",
"57 727 LINE",
"57 278 LINE SMOOTH",
"57 65 OFFCURVE",
"112 -13 OFFCURVE",
"273 -13 CURVE SMOOTH"
);
}
);
width = 545;
}
);
unicode = 0055;
},
{
color = 4;
glyphname = V;
lastChange = "2023-07-14 09:44:56 +0000";
layers = (
{
anchors = (
{
name = bottom;
position = "{273, 0}";
},
{
name = top;
position = "{273, 727}";
}
);
layerId = "7C079D0C-96CD-4BD8-8800-0621C7635A78";
paths = (
{
closed = 1;
nodes = (
"298 0 LINE",
"496 727 LINE",
"447 727 LINE",
"273 82 LINE",
"98 727 LINE",
"49 727 LINE",
"247 0 LINE"
);
}
);
width = 545;
},
{
anchors = (
{
name = bottom;
position = "{273, 0}";
},
{
name = top;
position = "{273, 727}";
}
);
layerId = "291433DC-531A-45CC-B814-57D397372F12";
paths = (
{
closed = 1;
nodes = (
"316 0 LINE",
"525 727 LINE",
"429 727 LINE",
"273 168 LINE",
"116 727 LINE",
"20 727 LINE",
"229 0 LINE"
);
}
);
width = 545;
}
);
unicode = 0056;
},
{
color = 4;
glyphname = W;
lastChange = "2023-07-14 09:44:56 +0000";
layers = (
{
anchors = (
{
name = bottom;
position = "{273, -3}";
},
{
name = top;
position = "{273, 730}";
}
);
layerId = "7C079D0C-96CD-4BD8-8800-0621C7635A78";
paths = (
{
closed = 1;
nodes = (
"175 0 LINE",
"273 405 LINE",
"370 0 LINE",
"416 0 LINE",
"514 727 LINE",
"467 727 LINE",
"386 105 LINE",
"295 487 LINE",
"250 487 LINE",
"159 105 LINE",
"78 727 LINE",
"32 727 LINE",
"129 0 LINE"
);
}
);
width = 545;
},
{
anchors = (
{
name = bottom;
position = "{273, -3}";
},
{
name = top;
position = "{273, 730}";
}
);
layerId = "291433DC-531A-45CC-B814-57D397372F12";
paths = (
{
closed = 1;
nodes = (
"198 0 LINE",
"273 308 LINE",
"352 0 LINE",
"436 0 LINE",
"539 727 LINE",
"447 727 LINE",
"380 230 LINE",
"314 508 LINE",
"232 508 LINE",
"165 230 LINE",
"98 727 LINE",
"6 727 LINE",
"109 0 LINE"
);
}
);
width = 545;
}
);
unicode = 0057;
},
{
color = 4;
glyphname = X;
lastChange = "2023-07-14 09:44:56 +0000";
layers = (
{
anchors = (
{
name = bottom;
position = "{273, 0}";
},
{
name = top;
position = "{273, 727}";
}
);
layerId = "7C079D0C-96CD-4BD8-8800-0621C7635A78";
paths = (
{
closed = 1;
nodes = (
"490 0 LINE",
"105 727 LINE",
"55 727 LINE",
"440 0 LINE"
);
},
{
closed = 1;
nodes = (
"105 0 LINE",
"490 727 LINE",
"440 727 LINE",
"55 0 LINE"
);
}
);
width = 545;
},
{
anchors = (
{
name = bottom;
position = "{273, 0}";
},
{
name = top;
position = "{273, 727}";
}
);
layerId = "291433DC-531A-45CC-B814-57D397372F12";
paths = (
{
closed = 1;
nodes = (
"526 0 LINE",
"120 727 LINE",
"19 727 LINE",
"425 0 LINE"
);
},
{
closed = 1;
nodes = (
"120 0 LINE",
"526 727 LINE",
"425 727 LINE",
"19 0 LINE"
);
}
);
width = 545;
}
);
unicode = 0058;
},
{
color = 4;
glyphname = Y;
lastChange = "2023-07-14 09:44:56 +0000";
layers = (
{
anchors = (
{
name = bottom;
position = "{273, -3}";
},
{
name = top;
position = "{273, 730}";
},
{
name = topleft;
position = "{-5, 730}";
}
);
layerId = "7C079D0C-96CD-4BD8-8800-0621C7635A78";
paths = (
{
closed = 1;
nodes = (
"295 0 LINE",
"295 280 LINE",
"507 727 LINE",
"457 727 LINE",
"273 336 LINE",
"88 727 LINE",
"38 727 LINE",
"250 280 LINE",
"250 0 LINE"
);
}
);
width = 545;
},
{
anchors = (
{
name = bottom;
position = "{273, -3}";
},
{
name = top;
position = "{273, 730}";
},
{
name = topleft;
position = "{-5, 730}";
}
);
layerId = "291433DC-531A-45CC-B814-57D397372F12";
paths = (
{
closed = 1;
nodes = (
"318 0 LINE",
"318 266 LINE",
"542 727 LINE",
"443 727 LINE",
"273 380 LINE",
"103 727 LINE",
"4 727 LINE",
"227 266 LINE",
"227 0 LINE"
);
}
);
width = 545;
}
);
unicode = 0059;
},
{
color = 4;
glyphname = Z;
lastChange = "2023-07-14 09:44:56 +0000";
layers = (
{
anchors = (
{
name = bottom;
position = "{273, 0}";
},
{
name = center;
position = "{273, 364}";
},
{
name = top;
position = "{273, 727}";
}
);
layerId = "7C079D0C-96CD-4BD8-8800-0621C7635A78";
paths = (
{
closed = 1;
nodes = (
"490 0 LINE",
"490 42 LINE",
"107 42 LINE",
"492 689 LINE",
"492 727 LINE",
"55 727 LINE",
"55 685 LINE",
"438 685 LINE",
"54 37 LINE",
"54 0 LINE"
);
}
);
width = 545;
},
{
anchors = (
{
name = bottom;
position = "{273, 0}";
},
{
name = center;
position = "{273, 364}";
},
{
name = top;
position = "{273, 727}";
}
);
layerId = "291433DC-531A-45CC-B814-57D397372F12";
paths = (
{
closed = 1;
nodes = (
"513 0 LINE",
"513 84 LINE",
"145 84 LINE",
"515 663 LINE",
"515 727 LINE",
"33 727 LINE",
"33 644 LINE",
"400 644 LINE",
"31 64 LINE",
"31 0 LINE"
);
}
);
width = 545;
}
);
unicode = 005A;
},
{
color = 4;
glyphname = a;
lastChange = "2023-07-14 09:44:56 +0000";
layers = (
{
anchors = (
{
name = bottom;
position = "{282, 0}";
},
{
name = ogonek;
position = "{495, 0}";
},
{
name = top;
position = "{282, 562}";
}
);
background = {
paths = (
{
closed = 1;
nodes = (
"345 -13 OFFCURVE",
"384 9 OFFCURVE",
"416 77 CURVE",
"427 18 OFFCURVE",
"452 0 OFFCURVE",
"518 0 CURVE",
"518 42 LINE",
"465 42 OFFCURVE",
"447 65 OFFCURVE",
"447 142 CURVE SMOOTH",
"447 381 LINE SMOOTH",
"447 528 OFFCURVE",
"402 575 OFFCURVE",
"258 575 CURVE SMOOTH",
"154 575 OFFCURVE",
"112 545 OFFCURVE",
"84 453 CURVE",
"127 442 LINE",
"148 511 OFFCURVE",
"180 533 OFFCURVE",
"258 533 CURVE SMOOTH",
"367 533 OFFCURVE",
"402 496 OFFCURVE",
"402 381 CURVE SMOOTH",
"402 322 LINE",
"258 322 LINE SMOOTH",
"115 322 OFFCURVE",
"69 281 OFFCURVE",
"69 151 CURVE SMOOTH",
"69 26 OFFCURVE",
"115 -13 OFFCURVE",
"258 -13 CURVE SMOOTH"
);
},
{
closed = 1;
nodes = (
"149 29 OFFCURVE",
"115 58 OFFCURVE",
"115 151 CURVE SMOOTH",
"115 249 OFFCURVE",
"149 280 OFFCURVE",
"258 280 CURVE SMOOTH",
"402 280 LINE",
"402 196 LINE SMOOTH",
"402 69 OFFCURVE",
"367 29 OFFCURVE",
"258 29 CURVE SMOOTH"
);
}
);
};
layerId = "7C079D0C-96CD-4BD8-8800-0621C7635A78";
paths = (
{
closed = 1;
nodes = (
"345 -13 OFFCURVE",
"384 9 OFFCURVE",
"416 77 CURVE",
"427 18 OFFCURVE",
"452 0 OFFCURVE",
"518 0 CURVE",
"518 42 LINE",
"465 42 OFFCURVE",
"447 65 OFFCURVE",
"447 142 CURVE SMOOTH",
"447 381 LINE SMOOTH",
"447 528 OFFCURVE",
"402 575 OFFCURVE",
"258 575 CURVE SMOOTH",
"154 575 OFFCURVE",
"112 545 OFFCURVE",
"84 453 CURVE",
"127 442 LINE",
"148 511 OFFCURVE",
"180 533 OFFCURVE",
"258 533 CURVE SMOOTH",
"367 533 OFFCURVE",
"402 496 OFFCURVE",
"402 381 CURVE SMOOTH",
"402 322 LINE",
"258 322 LINE SMOOTH",
"115 322 OFFCURVE",
"69 281 OFFCURVE",
"69 151 CURVE SMOOTH",
"69 26 OFFCURVE",
"115 -13 OFFCURVE",
"258 -13 CURVE SMOOTH"
);
},
{
closed = 1;
nodes = (
"149 29 OFFCURVE",
"115 58 OFFCURVE",
"115 151 CURVE SMOOTH",
"115 249 OFFCURVE",
"149 280 OFFCURVE",
"258 280 CURVE SMOOTH",
"402 280 LINE",
"402 196 LINE SMOOTH",
"402 69 OFFCURVE",
"367 29 OFFCURVE",
"258 29 CURVE SMOOTH"
);
}
);
width = 545;
},
{
anchors = (
{
name = bottom;
position = "{282, 0}";
},
{
name = ogonek;
position = "{488, 1}";
},
{
name = top;
position = "{282, 562}";
}
);
background = {
paths = (
{
closed = 1;
nodes = (
"333 -13 OFFCURVE",
"377 3 OFFCURVE",
"411 45 CURVE",
"432 9 OFFCURVE",
"472 -3 OFFCURVE",
"541 1 CURVE",
"541 85 LINE",
"483 81 OFFCURVE",
"470 85 OFFCURVE",
"470 153 CURVE SMOOTH",
"470 372 LINE SMOOTH",
"470 510 OFFCURVE",
"415 575 OFFCURVE",
"258 575 CURVE SMOOTH",
"136 575 OFFCURVE",
"86 525 OFFCURVE",
"56 408 CURVE",
"144 386 LINE",
"163 463 OFFCURVE",
"183 482 OFFCURVE",
"258 482 CURVE SMOOTH",
"354 482 OFFCURVE",
"379 455 OFFCURVE",
"379 372 CURVE SMOOTH",
"379 343 LINE",
"258 343 LINE SMOOTH",
"102 343 OFFCURVE",
"46 304 OFFCURVE",
"46 162 CURVE SMOOTH",
"46 35 OFFCURVE",
"102 -13 OFFCURVE",
"258 -13 CURVE SMOOTH"
);
},
{
closed = 1;
nodes = (
"161 71 OFFCURVE",
"137 92 OFFCURVE",
"137 162 CURVE SMOOTH",
"137 248 OFFCURVE",
"162 259 OFFCURVE",
"258 259 CURVE SMOOTH",
"379 259 LINE",
"379 205 LINE SMOOTH",
"379 101 OFFCURVE",
"354 71 OFFCURVE",
"258 71 CURVE SMOOTH"
);
}
);
};
layerId = "291433DC-531A-45CC-B814-57D397372F12";
paths = (
{
closed = 1;
nodes = (
"333 -13 OFFCURVE",
"377 3 OFFCURVE",
"411 45 CURVE",
"432 9 OFFCURVE",
"472 -3 OFFCURVE",
"541 1 CURVE",
"541 85 LINE",
"483 81 OFFCURVE",
"470 85 OFFCURVE",
"470 153 CURVE SMOOTH",
"470 372 LINE SMOOTH",
"470 510 OFFCURVE",
"415 575 OFFCURVE",
"258 575 CURVE SMOOTH",
"136 575 OFFCURVE",
"86 525 OFFCURVE",
"56 408 CURVE",
"144 386 LINE",
"163 463 OFFCURVE",
"183 482 OFFCURVE",
"258 482 CURVE SMOOTH",
"354 482 OFFCURVE",
"379 455 OFFCURVE",
"379 372 CURVE SMOOTH",
"379 343 LINE",
"258 343 LINE SMOOTH",
"102 343 OFFCURVE",
"46 304 OFFCURVE",
"46 162 CURVE SMOOTH",
"46 35 OFFCURVE",
"102 -13 OFFCURVE",
"258 -13 CURVE SMOOTH"
);
},
{
closed = 1;
nodes = (
"161 71 OFFCURVE",
"137 92 OFFCURVE",
"137 162 CURVE SMOOTH",
"137 248 OFFCURVE",
"162 259 OFFCURVE",
"258 259 CURVE SMOOTH",
"379 259 LINE",
"379 205 LINE SMOOTH",
"379 101 OFFCURVE",
"354 71 OFFCURVE",
"258 71 CURVE SMOOTH"
);
}
);
width = 545;
}
);
unicode = 0061;
},
{
color = 4;
glyphname = ae;
lastChange = "2023-07-14 09:44:56 +0000";
layers = (
{
anchors = (
{
name = bottom;
position = "{273, 0}";
},
{
name = top;
position = "{273, 562}";
}
);
background = {
paths = (
{
closed = 1;
nodes = (
"352 580 OFFCURVE",
"315 547 OFFCURVE",
"302 477 CURVE",
"279 547 OFFCURVE",
"238 580 OFFCURVE",
"175 580 CURVE SMOOTH",
"108 580 OFFCURVE",
"65 540 OFFCURVE",
"41 454 CURVE",
"92 441 LINE",
"110 504 OFFCURVE",
"136 533 OFFCURVE",
"175 533 CURVE SMOOTH",
"239 533 OFFCURVE",
"269 485 OFFCURVE",
"269 384 CURVE SMOOTH",
"269 319 LINE",
"175 319 LINE SMOOTH",
"75 319 OFFCURVE",
"27 266 OFFCURVE",
"27 154 CURVE SMOOTH",
"27 41 OFFCURVE",
"75 -13 OFFCURVE",
"175 -13 CURVE SMOOTH",
"235 -13 OFFCURVE",
"275 22 OFFCURVE",
"302 95 CURVE",
"315 22 OFFCURVE",
"351 -13 OFFCURVE",
"415 -13 CURVE SMOOTH",
"457 -13 OFFCURVE",
"499 17 OFFCURVE",
"545 82 CURVE",
"504 110 LINE",
"465 59 OFFCURVE",
"435 35 OFFCURVE",
"415 35 CURVE SMOOTH",
"355 35 OFFCURVE",
"325 111 OFFCURVE",
"322 272 CURVE",
"564 272 LINE",
"565 482 OFFCURVE",
"517 580 OFFCURVE",
"415 580 CURVE SMOOTH"
);
},
{
closed = 1;
nodes = (
"331 465 OFFCURVE",
"360 533 OFFCURVE",
"415 533 CURVE SMOOTH",
"471 533 OFFCURVE",
"502 465 OFFCURVE",
"510 319 CURVE",
"323 319 LINE"
);
},
{
closed = 1;
nodes = (
"269 87 OFFCURVE",
"239 35 OFFCURVE",
"175 35 CURVE SMOOTH",
"110 35 OFFCURVE",
"80 73 OFFCURVE",
"80 154 CURVE SMOOTH",
"80 234 OFFCURVE",
"110 272 OFFCURVE",
"175 272 CURVE SMOOTH",
"269 272 LINE",
"269 199 LINE SMOOTH"
);
}
);
};
layerId = "7C079D0C-96CD-4BD8-8800-0621C7635A78";
paths = (
{
closed = 1;
nodes = (
"219 -13 OFFCURVE",
"260 13 OFFCURVE",
"275 90 CURVE",
"299 13 OFFCURVE",
"337 -13 OFFCURVE",
"399 -13 CURVE SMOOTH",
"465 -13 OFFCURVE",
"503 9 OFFCURVE",
"527 78 CURVE",
"490 103 LINE",
"468 46 OFFCURVE",
"440 29 OFFCURVE",
"399 29 CURVE SMOOTH",
"320 29 OFFCURVE",
"295 89 OFFCURVE",
"295 280 CURVE",
"531 280 LINE",
"531 504 OFFCURVE",
"499 575 OFFCURVE",
"399 575 CURVE SMOOTH",
"325 575 OFFCURVE",
"295 548 OFFCURVE",
"275 472 CURVE",
"259 548 OFFCURVE",
"218 575 OFFCURVE",
"145 575 CURVE SMOOTH",
"72 575 OFFCURVE",
"43 545 OFFCURVE",
"24 453 CURVE",
"69 442 LINE",
"83 511 OFFCURVE",
"101 533 OFFCURVE",
"145 533 CURVE SMOOTH",
"225 533 OFFCURVE",
"249 496 OFFCURVE",
"249 381 CURVE SMOOTH",
"249 322 LINE",
"173 322 LINE SMOOTH",
"53 322 OFFCURVE",
"15 281 OFFCURVE",
"15 151 CURVE SMOOTH",
"15 26 OFFCURVE",
"46 -13 OFFCURVE",
"145 -13 CURVE SMOOTH"
);
},
{
closed = 1;
nodes = (
"81 29 OFFCURVE",
"60 58 OFFCURVE",
"60 151 CURVE SMOOTH",
"60 249 OFFCURVE",
"87 280 OFFCURVE",
"173 280 CURVE SMOOTH",
"249 280 LINE",
"249 196 LINE SMOOTH",
"249 69 OFFCURVE",
"225 29 OFFCURVE",
"145 29 CURVE SMOOTH"
);
},
{
closed = 1;
nodes = (
"295 482 OFFCURVE",
"320 533 OFFCURVE",
"399 533 CURVE SMOOTH",
"465 533 OFFCURVE",
"485 482 OFFCURVE",
"485 322 CURVE",
"295 322 LINE"
);
}
);
width = 545;
},
{
anchors = (
{
name = bottom;
position = "{273, 0}";
},
{
name = top;
position = "{273, 562}";
}
);
background = {
paths = (
{
closed = 1;
nodes = (
"352 580 OFFCURVE",
"315 547 OFFCURVE",
"302 477 CURVE",
"279 547 OFFCURVE",
"238 580 OFFCURVE",
"175 580 CURVE SMOOTH",
"108 580 OFFCURVE",
"65 540 OFFCURVE",
"41 454 CURVE",
"92 441 LINE",
"110 504 OFFCURVE",
"136 533 OFFCURVE",
"175 533 CURVE SMOOTH",
"239 533 OFFCURVE",
"269 485 OFFCURVE",
"269 384 CURVE SMOOTH",
"269 319 LINE",
"175 319 LINE SMOOTH",
"75 319 OFFCURVE",
"27 266 OFFCURVE",
"27 154 CURVE SMOOTH",
"27 41 OFFCURVE",
"75 -13 OFFCURVE",
"175 -13 CURVE SMOOTH",
"235 -13 OFFCURVE",
"275 22 OFFCURVE",
"302 95 CURVE",
"315 22 OFFCURVE",
"351 -13 OFFCURVE",
"415 -13 CURVE SMOOTH",
"457 -13 OFFCURVE",
"499 17 OFFCURVE",
"545 82 CURVE",
"504 110 LINE",
"465 59 OFFCURVE",
"435 35 OFFCURVE",
"415 35 CURVE SMOOTH",
"355 35 OFFCURVE",
"325 111 OFFCURVE",
"322 272 CURVE",
"564 272 LINE",
"565 482 OFFCURVE",
"517 580 OFFCURVE",
"415 580 CURVE SMOOTH"
);
},
{
closed = 1;
nodes = (
"331 465 OFFCURVE",
"360 533 OFFCURVE",
"415 533 CURVE SMOOTH",
"471 533 OFFCURVE",
"502 465 OFFCURVE",
"510 319 CURVE",
"323 319 LINE"
);
},
{
closed = 1;
nodes = (
"269 87 OFFCURVE",
"239 35 OFFCURVE",
"175 35 CURVE SMOOTH",
"110 35 OFFCURVE",
"80 73 OFFCURVE",
"80 154 CURVE SMOOTH",
"80 234 OFFCURVE",
"110 272 OFFCURVE",
"175 272 CURVE SMOOTH",
"269 272 LINE",
"269 199 LINE SMOOTH"
);
}
);
};
layerId = "291433DC-531A-45CC-B814-57D397372F12";
paths = (
{
closed = 1;
nodes = (
"215 -13 OFFCURVE",
"250 6 OFFCURVE",
"276 55 CURVE",
"306 6 OFFCURVE",
"338 -13 OFFCURVE",
"395 -13 CURVE SMOOTH",
"471 -13 OFFCURVE",
"516 18 OFFCURVE",
"547 106 CURVE",
"474 155 LINE",
"446 86 OFFCURVE",
"424 71 OFFCURVE",
"395 71 CURVE SMOOTH",
"336 71 OFFCURVE",
"319 117 OFFCURVE",
"317 259 CURVE",
"545 259 LINE",
"547 488 OFFCURVE",
"511 575 OFFCURVE",
"395 575 CURVE SMOOTH",
"331 575 OFFCURVE",
"297 557 OFFCURVE",
"273 513 CURVE",
"246 557 OFFCURVE",
"212 575 OFFCURVE",
"149 575 CURVE SMOOTH",
"63 575 OFFCURVE",
"26 534 OFFCURVE",
"5 416 CURVE",
"95 395 LINE",
"109 475 OFFCURVE",
"120 491 OFFCURVE",
"149 491 CURVE SMOOTH",
"213 491 OFFCURVE",
"226 465 OFFCURVE",
"226 378 CURVE SMOOTH",
"226 343 LINE",
"176 343 LINE SMOOTH",
"47 343 OFFCURVE",
"0 302 OFFCURVE",
"0 161 CURVE SMOOTH",
"0 36 OFFCURVE",
"40 -13 OFFCURVE",
"149 -13 CURVE SMOOTH"
);
},
{
closed = 1;
nodes = (
"105 71 OFFCURVE",
"91 89 OFFCURVE",
"91 161 CURVE SMOOTH",
"91 248 OFFCURVE",
"109 259 OFFCURVE",
"176 259 CURVE SMOOTH",
"226 259 LINE",
"226 206 LINE SMOOTH",
"226 99 OFFCURVE",
"212 71 OFFCURVE",
"149 71 CURVE SMOOTH"
);
},
{
closed = 1;
nodes = (
"319 455 OFFCURVE",
"335 491 OFFCURVE",
"395 491 CURVE SMOOTH",
"435 491 OFFCURVE",
"453 455 OFFCURVE",
"455 343 CURVE",
"317 343 LINE"
);
}
);
width = 545;
}
);
unicode = 00E6;
},
{
color = 4;
glyphname = b;
lastChange = "2023-07-14 09:44:56 +0000";
layers = (
{
anchors = (
{
name = bottom;
position = "{273, 0}";
},
{
name = top;
position = "{273, 909}";
}
);
layerId = "7C079D0C-96CD-4BD8-8800-0621C7635A78";
paths = (
{
closed = 1;
nodes = (
"427 -13 OFFCURVE",
"473 57 OFFCURVE",
"473 280 CURVE SMOOTH",
"473 504 OFFCURVE",
"427 575 OFFCURVE",
"284 575 CURVE SMOOTH",
"217 575 OFFCURVE",
"165 555 OFFCURVE",
"139 496 CURVE",
"139 727 LINE",
"94 727 LINE",
"94 65 LINE",
"143 6 OFFCURVE",
"188 -13 OFFCURVE",
"284 -13 CURVE SMOOTH"
);
},
{
closed = 1;
nodes = (
"212 29 OFFCURVE",
"177 41 OFFCURVE",
"139 79 CURVE",
"139 376 LINE SMOOTH",
"139 495 OFFCURVE",
"174 533 OFFCURVE",
"284 533 CURVE SMOOTH",
"393 533 OFFCURVE",
"427 472 OFFCURVE",
"427 280 CURVE SMOOTH",
"427 89 OFFCURVE",
"393 29 OFFCURVE",
"284 29 CURVE SMOOTH"
);
}
);
width = 545;
},
{
anchors = (
{
name = bottom;
position = "{273, 0}";
},
{
name = top;
position = "{273, 909}";
}
);
layerId = "291433DC-531A-45CC-B814-57D397372F12";
paths = (
{
closed = 1;
nodes = (
"443 -13 OFFCURVE",
"495 68 OFFCURVE",
"495 280 CURVE SMOOTH",
"495 493 OFFCURVE",
"443 575 OFFCURVE",
"284 575 CURVE SMOOTH",
"232 575 OFFCURVE",
"192 564 OFFCURVE",
"162 541 CURVE",
"162 727 LINE",
"71 727 LINE",
"71 79 LINE",
"125 11 OFFCURVE",
"179 -13 OFFCURVE",
"284 -13 CURVE SMOOTH"
);
},
{
closed = 1;
nodes = (
"221 71 OFFCURVE",
"194 79 OFFCURVE",
"162 108 CURVE",
"162 355 LINE SMOOTH",
"162 464 OFFCURVE",
"187 491 OFFCURVE",
"284 491 CURVE SMOOTH",
"376 491 OFFCURVE",
"405 441 OFFCURVE",
"405 280 CURVE SMOOTH",
"405 120 OFFCURVE",
"376 71 OFFCURVE",
"284 71 CURVE SMOOTH"
);
}
);
width = 545;
}
);
unicode = 0062;
},
{
color = 4;
glyphname = c;
lastChange = "2023-07-14 09:44:56 +0000";
layers = (
{
anchors = (
{
name = bottom;
position = "{273, 0}";
},
{
name = top;
position = "{273, 562}";
}
);
layerId = "7C079D0C-96CD-4BD8-8800-0621C7635A78";
paths = (
{
closed = 1;
nodes = (
"377 -13 OFFCURVE",
"421 10 OFFCURVE",
"470 81 CURVE",
"432 104 LINE",
"391 47 OFFCURVE",
"356 29 OFFCURVE",
"289 29 CURVE SMOOTH",
"161 29 OFFCURVE",
"121 89 OFFCURVE",
"121 281 CURVE SMOOTH",
"121 473 OFFCURVE",
"162 533 OFFCURVE",
"293 533 CURVE SMOOTH",
"360 533 OFFCURVE",
"393 515 OFFCURVE",
"432 459 CURVE",
"470 482 LINE",
"422 553 OFFCURVE",
"380 575 OFFCURVE",
"293 575 CURVE SMOOTH",
"127 575 OFFCURVE",
"75 504 OFFCURVE",
"75 281 CURVE SMOOTH",
"75 58 OFFCURVE",
"126 -13 OFFCURVE",
"289 -13 CURVE SMOOTH"
);
}
);
width = 545;
},
{
anchors = (
{
name = bottom;
position = "{273, 0}";
},
{
name = top;
position = "{273, 562}";
}
);
layerId = "291433DC-531A-45CC-B814-57D397372F12";
paths = (
{
closed = 1;
nodes = (
"392 -13 OFFCURVE",
"444 18 OFFCURVE",
"501 108 CURVE",
"425 154 LINE",
"381 88 OFFCURVE",
"355 71 OFFCURVE",
"289 71 CURVE SMOOTH",
"176 71 OFFCURVE",
"144 120 OFFCURVE",
"144 281 CURVE SMOOTH",
"144 442 OFFCURVE",
"177 491 OFFCURVE",
"293 491 CURVE SMOOTH",
"359 491 OFFCURVE",
"383 475 OFFCURVE",
"425 409 CURVE",
"501 455 LINE",
"445 545 OFFCURVE",
"395 575 OFFCURVE",
"293 575 CURVE SMOOTH",
"113 575 OFFCURVE",
"53 494 OFFCURVE",
"53 281 CURVE SMOOTH",
"53 68 OFFCURVE",
"112 -13 OFFCURVE",
"289 -13 CURVE SMOOTH"
);
}
);
width = 545;
}
);
unicode = 0063;
},
{
color = 4;
glyphname = d;
lastChange = "2023-07-14 09:44:56 +0000";
layers = (
{
anchors = (
{
name = bottom;
position = "{273, 0}";
},
{
name = center;
position = "{273, 281}";
},
{
name = top;
position = "{273, 909}";
},
{
name = topright;
position = "{527, 562}";
}
);
layerId = "7C079D0C-96CD-4BD8-8800-0621C7635A78";
paths = (
{
closed = 1;
nodes = (
"338 -13 OFFCURVE",
"393 2 OFFCURVE",
"419 47 CURVE",
"419 0 LINE",
"465 0 LINE",
"465 727 LINE",
"419 727 LINE",
"419 493 LINE",
"395 555 OFFCURVE",
"340 575 OFFCURVE",
"268 575 CURVE SMOOTH",
"120 575 OFFCURVE",
"73 504 OFFCURVE",
"73 280 CURVE SMOOTH",
"73 57 OFFCURVE",
"120 -13 OFFCURVE",
"268 -13 CURVE SMOOTH"
);
},
{
closed = 1;
nodes = (
"155 29 OFFCURVE",
"118 89 OFFCURVE",
"118 280 CURVE SMOOTH",
"118 472 OFFCURVE",
"155 533 OFFCURVE",
"268 533 CURVE SMOOTH",
"357 533 OFFCURVE",
"419 493 OFFCURVE",
"419 378 CURVE SMOOTH",
"419 109 LINE SMOOTH",
"419 47 OFFCURVE",
"347 29 OFFCURVE",
"268 29 CURVE SMOOTH"
);
}
);
width = 545;
},
{
anchors = (
{
name = bottom;
position = "{273, 0}";
},
{
name = center;
position = "{273, 281}";
},
{
name = top;
position = "{273, 909}";
},
{
name = topright;
position = "{527, 562}";
}
);
layerId = "291433DC-531A-45CC-B814-57D397372F12";
paths = (
{
closed = 1;
nodes = (
"323 -13 OFFCURVE",
"365 -4 OFFCURVE",
"396 15 CURVE",
"396 0 LINE",
"487 0 LINE",
"487 727 LINE",
"396 727 LINE",
"396 539 LINE",
"365 563 OFFCURVE",
"323 575 OFFCURVE",
"268 575 CURVE SMOOTH",
"105 575 OFFCURVE",
"50 493 OFFCURVE",
"50 280 CURVE SMOOTH",
"50 68 OFFCURVE",
"105 -13 OFFCURVE",
"268 -13 CURVE SMOOTH"
);
},
{
closed = 1;
nodes = (
"171 71 OFFCURVE",
"141 120 OFFCURVE",
"141 280 CURVE SMOOTH",
"141 441 OFFCURVE",
"171 491 OFFCURVE",
"268 491 CURVE SMOOTH",
"356 491 OFFCURVE",
"396 449 OFFCURVE",
"396 357 CURVE SMOOTH",
"396 130 LINE SMOOTH",
"396 92 OFFCURVE",
"355 71 OFFCURVE",
"268 71 CURVE SMOOTH"
);
}
);
width = 545;
}
);
unicode = 0064;
},
{
color = 4;
glyphname = eth;
lastChange = "2023-07-14 09:44:56 +0000";
layers = (
{
layerId = "7C079D0C-96CD-4BD8-8800-0621C7635A78";
paths = (
{
closed = 1;
nodes = (
"428 -13 OFFCURVE",
"477 45 OFFCURVE",
"477 226 CURVE SMOOTH",
"477 408 OFFCURVE",
"428 465 OFFCURVE",
"273 465 CURVE SMOOTH",
"117 465 OFFCURVE",
"68 408 OFFCURVE",
"68 226 CURVE SMOOTH",
"68 45 OFFCURVE",
"117 -13 OFFCURVE",
"273 -13 CURVE SMOOTH"
);
},
{
closed = 1;
nodes = (
"152 29 OFFCURVE",
"114 76 OFFCURVE",
"114 226 CURVE SMOOTH",
"114 376 OFFCURVE",
"152 424 OFFCURVE",
"273 424 CURVE SMOOTH",
"394 424 OFFCURVE",
"432 376 OFFCURVE",
"432 226 CURVE SMOOTH",
"432 76 OFFCURVE",
"394 29 OFFCURVE",
"273 29 CURVE SMOOTH"
);
},
{
closed = 1;
nodes = (
"477 226 LINE",
"477 573 OFFCURVE",
"332 727 OFFCURVE",
"134 727 CURVE",
"134 685 LINE",
"304 685 OFFCURVE",
"432 546 OFFCURVE",
"432 226 CURVE"
);
},
{
closed = 1;
nodes = (
"448 691 LINE",
"426 727 LINE",
"160 580 LINE",
"182 544 LINE"
);
}
);
width = 545;
},
{
layerId = "291433DC-531A-45CC-B814-57D397372F12";
paths = (
{
closed = 1;
nodes = (
"442 -13 OFFCURVE",
"500 55 OFFCURVE",
"500 226 CURVE SMOOTH",
"500 399 OFFCURVE",
"442 466 OFFCURVE",
"273 466 CURVE SMOOTH",
"104 466 OFFCURVE",
"45 399 OFFCURVE",
"45 226 CURVE SMOOTH",
"45 55 OFFCURVE",
"104 -13 OFFCURVE",
"273 -13 CURVE SMOOTH"
);
},
{
closed = 1;
nodes = (
"166 71 OFFCURVE",
"136 108 OFFCURVE",
"136 226 CURVE SMOOTH",
"136 345 OFFCURVE",
"166 383 OFFCURVE",
"273 383 CURVE SMOOTH",
"379 383 OFFCURVE",
"409 345 OFFCURVE",
"409 226 CURVE SMOOTH",
"409 108 OFFCURVE",
"379 71 OFFCURVE",
"273 71 CURVE SMOOTH"
);
},
{
closed = 1;
nodes = (
"500 215 LINE",
"505 548 OFFCURVE",
"362 741 OFFCURVE",
"111 727 CURVE",
"111 644 LINE",
"304 658 OFFCURVE",
"415 500 OFFCURVE",
"409 215 CURVE"
);
},
{
closed = 1;
nodes = (
"479 655 LINE",
"435 727 LINE",
"129 558 LINE",
"174 485 LINE"
);
}
);
width = 545;
}
);
unicode = 00F0;
},
{
color = 4;
glyphname = dcaron;
lastChange = "2023-07-14 09:44:56 +0000";
layers = (
{
components = (
{
name = caroncomb.alt;
transform = "{0.8, 0, 0, 0.8, 280, 145}";
}
);
layerId = "7C079D0C-96CD-4BD8-8800-0621C7635A78";
paths = (
{
closed = 1;
nodes = (
"293 -13 OFFCURVE",
"347 2 OFFCURVE",
"374 47 CURVE",
"374 0 LINE",
"419 0 LINE",
"419 727 LINE",
"374 727 LINE",
"374 493 LINE",
"349 555 OFFCURVE",
"295 575 OFFCURVE",
"232 575 CURVE SMOOTH",
"93 575 OFFCURVE",
"45 504 OFFCURVE",
"45 280 CURVE SMOOTH",
"45 57 OFFCURVE",
"93 -13 OFFCURVE",
"232 -13 CURVE SMOOTH"
);
},
{
closed = 1;
nodes = (
"127 29 OFFCURVE",
"91 89 OFFCURVE",
"91 280 CURVE SMOOTH",
"91 472 OFFCURVE",
"127 533 OFFCURVE",
"232 533 CURVE SMOOTH",
"312 533 OFFCURVE",
"374 493 OFFCURVE",
"374 378 CURVE SMOOTH",
"374 109 LINE SMOOTH",
"374 47 OFFCURVE",
"302 29 OFFCURVE",
"232 29 CURVE SMOOTH"
);
}
);
width = 545;
},
{
components = (
{
name = caroncomb.alt;
transform = "{0.8, 0, 0, 0.8, 278, 145}";
}
);
layerId = "291433DC-531A-45CC-B814-57D397372F12";
paths = (
{
closed = 1;
nodes = (
"250 -13 OFFCURVE",
"284 -4 OFFCURVE",
"315 15 CURVE",
"315 0 LINE",
"405 0 LINE",
"405 727 LINE",
"315 727 LINE",
"315 539 LINE",
"284 563 OFFCURVE",
"250 575 OFFCURVE",
"205 575 CURVE SMOOTH",
"59 575 OFFCURVE",
"5 493 OFFCURVE",
"5 280 CURVE SMOOTH",
"5 68 OFFCURVE",
"59 -13 OFFCURVE",
"205 -13 CURVE SMOOTH"
);
},
{
closed = 1;
nodes = (
"125 71 OFFCURVE",
"95 120 OFFCURVE",
"95 280 CURVE SMOOTH",
"95 441 OFFCURVE",
"125 491 OFFCURVE",
"205 491 CURVE SMOOTH",
"275 491 OFFCURVE",
"315 449 OFFCURVE",
"315 357 CURVE SMOOTH",
"315 130 LINE SMOOTH",
"315 92 OFFCURVE",
"273 71 OFFCURVE",
"205 71 CURVE SMOOTH"
);
}
);
width = 545;
}
);
unicode = 010F;
},
{
color = 4;
glyphname = dcroat;
lastChange = "2023-07-14 09:44:56 +0000";
layers = (
{
components = (
{
name = d;
}
);
layerId = "7C079D0C-96CD-4BD8-8800-0621C7635A78";
paths = (
{
closed = 1;
nodes = (
"518 620 LINE",
"518 662 LINE",
"300 662 LINE",
"300 620 LINE"
);
}
);
width = 545;
},
{
components = (
{
name = d;
}
);
layerId = "291433DC-531A-45CC-B814-57D397372F12";
paths = (
{
closed = 1;
nodes = (
"541 597 LINE",
"541 681 LINE",
"273 681 LINE",
"273 597 LINE"
);
}
);
width = 545;
}
);
unicode = 0111;
},
{
color = 4;
glyphname = e;
lastChange = "2023-07-14 09:44:56 +0000";
layers = (
{
anchors = (
{
name = bottom;
position = "{273, 0}";
},
{
name = ogonek;
position = "{344, 0}";
},
{
name = top;
position = "{273, 562}";
}
);
layerId = "7C079D0C-96CD-4BD8-8800-0621C7635A78";
paths = (
{
closed = 1;
nodes = (
"366 -13 OFFCURVE",
"411 9 OFFCURVE",
"462 78 CURVE",
"425 103 LINE",
"381 46 OFFCURVE",
"345 29 OFFCURVE",
"275 29 CURVE SMOOTH",
"149 29 OFFCURVE",
"110 92 OFFCURVE",
"110 289 CURVE SMOOTH",
"110 475 OFFCURVE",
"149 533 OFFCURVE",
"275 533 CURVE SMOOTH",
"396 533 OFFCURVE",
"435 482 OFFCURVE",
"435 322 CURVE",
"91 322 LINE",
"91 280 LINE",
"481 280 LINE",
"481 504 OFFCURVE",
"432 575 OFFCURVE",
"275 575 CURVE SMOOTH",
"115 575 OFFCURVE",
"65 504 OFFCURVE",
"65 281 CURVE SMOOTH",
"65 58 OFFCURVE",
"115 -13 OFFCURVE",
"275 -13 CURVE SMOOTH"
);
}
);
width = 545;
},
{
anchors = (
{
name = bottom;
position = "{273, 0}";
},
{
name = ogonek;
position = "{320, 0}";
},
{
name = top;
position = "{273, 562}";
}
);
layerId = "291433DC-531A-45CC-B814-57D397372F12";
paths = (
{
closed = 1;
nodes = (
"380 -13 OFFCURVE",
"433 15 OFFCURVE",
"493 105 CURVE",
"420 153 LINE",
"375 91 OFFCURVE",
"339 71 OFFCURVE",
"275 71 CURVE SMOOTH",
"167 71 OFFCURVE",
"133 124 OFFCURVE",
"133 289 CURVE SMOOTH",
"133 443 OFFCURVE",
"167 491 OFFCURVE",
"275 491 CURVE SMOOTH",
"378 491 OFFCURVE",
"411 455 OFFCURVE",
"411 343 CURVE",
"68 343 LINE",
"68 259 LINE",
"504 259 LINE",
"504 499 OFFCURVE",
"449 575 OFFCURVE",
"275 575 CURVE SMOOTH",
"98 575 OFFCURVE",
"42 504 OFFCURVE",
"42 281 CURVE SMOOTH",
"42 58 OFFCURVE",
"98 -13 OFFCURVE",
"275 -13 CURVE SMOOTH"
);
}
);
width = 545;
}
);
unicode = 0065;
},
{
color = 4;
glyphname = f;
lastChange = "2023-07-14 09:44:56 +0000";
layers = (
{
anchors = (
{
name = bottom;
position = "{273, 0}";
},
{
name = top;
position = "{273, 909}";
}
);
layerId = "7C079D0C-96CD-4BD8-8800-0621C7635A78";
paths = (
{
closed = 1;
nodes = (
"220 0 LINE",
"220 555 LINE SMOOTH",
"220 664 OFFCURVE",
"251 698 OFFCURVE",
"347 698 CURVE SMOOTH",
"418 698 OFFCURVE",
"445 685 OFFCURVE",
"462 645 CURVE",
"505 659 LINE",
"481 721 OFFCURVE",
"444 740 OFFCURVE",
"347 740 CURVE SMOOTH",
"216 740 OFFCURVE",
"175 695 OFFCURVE",
"175 555 CURVE SMOOTH",
"175 0 LINE"
);
},
{
closed = 1;
nodes = (
"382 405 LINE",
"382 447 LINE",
"62 447 LINE",
"62 405 LINE"
);
}
);
width = 545;
},
{
anchors = (
{
name = bottom;
position = "{273, 0}";
},
{
name = top;
position = "{273, 909}";
}
);
layerId = "291433DC-531A-45CC-B814-57D397372F12";
paths = (
{
closed = 1;
nodes = (
"243 0 LINE",
"243 534 LINE SMOOTH",
"243 632 OFFCURVE",
"265 656 OFFCURVE",
"347 656 CURVE SMOOTH",
"421 656 OFFCURVE",
"433 645 OFFCURVE",
"447 596 CURVE",
"533 625 LINE",
"507 711 OFFCURVE",
"462 740 OFFCURVE",
"347 740 CURVE SMOOTH",
"203 740 OFFCURVE",
"152 685 OFFCURVE",
"152 534 CURVE SMOOTH",
"152 0 LINE"
);
},
{
closed = 1;
nodes = (
"405 385 LINE",
"405 468 LINE",
"39 468 LINE",
"39 385 LINE"
);
}
);
width = 545;
}
);
unicode = 0066;
},
{
color = 4;
glyphname = g;
lastChange = "2023-07-14 09:44:56 +0000";
layers = (
{
anchors = (
{
name = bottom;
position = "{273, -227}";
},
{
name = top;
position = "{273, 562}";
}
);
layerId = "7C079D0C-96CD-4BD8-8800-0621C7635A78";
paths = (
{
closed = 1;
nodes = (
"415 -178 OFFCURVE",
"461 -125 OFFCURVE",
"461 43 CURVE SMOOTH",
"461 562 LINE",
"415 562 LINE",
"415 515 LINE",
"389 560 OFFCURVE",
"335 575 OFFCURVE",
"265 575 CURVE SMOOTH",
"116 575 OFFCURVE",
"69 517 OFFCURVE",
"69 336 CURVE SMOOTH",
"69 113 OFFCURVE",
"116 42 OFFCURVE",
"265 42 CURVE SMOOTH",
"336 42 OFFCURVE",
"391 62 OFFCURVE",
"415 124 CURVE",
"415 35 LINE SMOOTH",
"415 -95 OFFCURVE",
"381 -136 OFFCURVE",
"271 -136 CURVE SMOOTH",
"221 -136 OFFCURVE",
"195 -127 OFFCURVE",
"168 -100 CURVE",
"135 -128 LINE",
"172 -166 OFFCURVE",
"205 -178 OFFCURVE",
"271 -178 CURVE SMOOTH"
);
},
{
closed = 1;
nodes = (
"151 84 OFFCURVE",
"115 145 OFFCURVE",
"115 336 CURVE SMOOTH",
"115 485 OFFCURVE",
"151 533 OFFCURVE",
"265 533 CURVE SMOOTH",
"344 533 OFFCURVE",
"415 515 OFFCURVE",
"415 453 CURVE SMOOTH",
"415 238 LINE SMOOTH",
"415 124 OFFCURVE",
"354 84 OFFCURVE",
"265 84 CURVE SMOOTH"
);
}
);
width = 545;
},
{
anchors = (
{
name = bottom;
position = "{273, -227}";
},
{
name = top;
position = "{273, 562}";
}
);
layerId = "291433DC-531A-45CC-B814-57D397372F12";
paths = (
{
closed = 1;
nodes = (
"429 -178 OFFCURVE",
"484 -115 OFFCURVE",
"484 55 CURVE SMOOTH",
"484 562 LINE",
"393 562 LINE",
"393 546 LINE",
"362 565 OFFCURVE",
"319 575 OFFCURVE",
"265 575 CURVE SMOOTH",
"103 575 OFFCURVE",
"46 507 OFFCURVE",
"46 336 CURVE SMOOTH",
"46 115 OFFCURVE",
"101 33 OFFCURVE",
"265 33 CURVE SMOOTH",
"319 33 OFFCURVE",
"362 45 OFFCURVE",
"393 68 CURVE",
"393 46 LINE SMOOTH",
"393 -64 OFFCURVE",
"366 -95 OFFCURVE",
"271 -95 CURVE SMOOTH",
"218 -95 OFFCURVE",
"202 -85 OFFCURVE",
"170 -49 CURVE",
"104 -105 LINE",
"150 -160 OFFCURVE",
"190 -178 OFFCURVE",
"271 -178 CURVE SMOOTH"
);
},
{
closed = 1;
nodes = (
"167 116 OFFCURVE",
"137 166 OFFCURVE",
"137 336 CURVE SMOOTH",
"137 454 OFFCURVE",
"165 491 OFFCURVE",
"265 491 CURVE SMOOTH",
"351 491 OFFCURVE",
"393 470 OFFCURVE",
"393 432 CURVE SMOOTH",
"393 250 LINE SMOOTH",
"393 158 OFFCURVE",
"353 116 OFFCURVE",
"265 116 CURVE SMOOTH"
);
}
);
width = 545;
}
);
unicode = 0067;
},
{
color = 4;
glyphname = h;
lastChange = "2023-07-14 09:44:56 +0000";
layers = (
{
anchors = (
{
name = bottom;
position = "{273, 0}";
},
{
name = center;
position = "{273, 455}";
},
{
name = top;
position = "{120, 682}";
}
);
layerId = "7C079D0C-96CD-4BD8-8800-0621C7635A78";
paths = (
{
closed = 1;
nodes = (
"140 0 LINE",
"140 376 LINE SMOOTH",
"140 502 OFFCURVE",
"174 533 OFFCURVE",
"282 533 CURVE SMOOTH",
"390 533 OFFCURVE",
"425 475 OFFCURVE",
"425 295 CURVE SMOOTH",
"425 0 LINE",
"470 0 LINE",
"470 295 LINE SMOOTH",
"470 507 OFFCURVE",
"425 575 OFFCURVE",
"282 575 CURVE SMOOTH",
"212 575 OFFCURVE",
"160 557 OFFCURVE",
"140 502 CURVE",
"140 727 LINE",
"95 727 LINE",
"95 0 LINE"
);
}
);
width = 545;
},
{
anchors = (
{
name = bottom;
position = "{273, 0}";
},
{
name = center;
position = "{273, 455}";
},
{
name = top;
position = "{120, 700}";
}
);
layerId = "291433DC-531A-45CC-B814-57D397372F12";
paths = (
{
closed = 1;
nodes = (
"163 0 LINE",
"163 355 LINE SMOOTH",
"163 467 OFFCURVE",
"185 491 OFFCURVE",
"282 491 CURVE SMOOTH",
"374 491 OFFCURVE",
"402 445 OFFCURVE",
"402 274 CURVE SMOOTH",
"402 0 LINE",
"493 0 LINE",
"493 274 LINE SMOOTH",
"493 496 OFFCURVE",
"440 575 OFFCURVE",
"282 575 CURVE SMOOTH",
"231 575 OFFCURVE",
"191 565 OFFCURVE",
"163 545 CURVE",
"163 727 LINE",
"72 727 LINE",
"72 0 LINE"
);
}
);
width = 545;
}
);
unicode = 0068;
},
{
color = 4;
glyphname = hbar;
lastChange = "2023-07-14 09:44:56 +0000";
layers = (
{
components = (
{
name = h;
}
);
layerId = "7C079D0C-96CD-4BD8-8800-0621C7635A78";
paths = (
{
closed = 1;
nodes = (
"245 620 LINE",
"245 662 LINE",
"27 662 LINE",
"27 620 LINE"
);
}
);
width = 545;
},
{
components = (
{
name = h;
}
);
layerId = "291433DC-531A-45CC-B814-57D397372F12";
paths = (
{
closed = 1;
nodes = (
"273 597 LINE",
"273 681 LINE",
"5 681 LINE",
"5 597 LINE"
);
}
);
width = 545;
}
);
unicode = 0127;
},
{
color = 4;
glyphname = idotless;
lastChange = "2023-07-14 09:44:56 +0000";
layers = (
{
anchors = (
{
name = bottom;
position = "{282, 0}";
},
{
name = ogonek;
position = "{341, 0}";
},
{
name = top;
position = "{277, 562}";
}
);
layerId = "7C079D0C-96CD-4BD8-8800-0621C7635A78";
paths = (
{
closed = 1;
nodes = (
"319 0 LINE",
"319 562 LINE",
"159 562 LINE",
"159 520 LINE",
"302 520 LINE",
"274 548 LINE",
"274 0 LINE"
);
},
{
closed = 1;
nodes = (
"478 0 LINE",
"478 42 LINE",
"115 42 LINE",
"115 0 LINE"
);
}
);
width = 545;
},
{
anchors = (
{
name = bottom;
position = "{282, 0}";
},
{
name = ogonek;
position = "{335, 0}";
},
{
name = top;
position = "{277, 562}";
}
);
layerId = "291433DC-531A-45CC-B814-57D397372F12";
paths = (
{
closed = 1;
nodes = (
"342 0 LINE",
"342 562 LINE",
"136 562 LINE",
"136 478 LINE",
"308 478 LINE",
"251 535 LINE",
"251 0 LINE"
);
},
{
closed = 1;
nodes = (
"501 0 LINE",
"501 84 LINE",
"92 84 LINE",
"92 0 LINE"
);
}
);
width = 545;
}
);
unicode = 0131;
},
{
glyphname = ij;
lastChange = "2023-07-14 09:44:56 +0000";
layers = (
{
components = (
{
alignment = -1;
name = dotaccent;
transform = "{1, 0, 0, 1, -105, 0}";
},
{
alignment = -1;
name = dotaccent;
transform = "{1, 0, 0, 1, 154, 0}";
}
);
layerId = "7C079D0C-96CD-4BD8-8800-0621C7635A78";
paths = (
{
closed = 1;
nodes = (
"210 0 LINE",
"210 562 LINE",
"86 562 LINE",
"86 520 LINE",
"193 520 LINE",
"165 548 LINE",
"165 0 LINE"
);
},
{
closed = 1;
nodes = (
"333 0 LINE",
"333 42 LINE",
"42 42 LINE",
"42 0 LINE"
);
},
{
closed = 1;
nodes = (
"425 -178 OFFCURVE",
"471 -125 OFFCURVE",
"471 43 CURVE SMOOTH",
"471 562 LINE",
"193 562 LINE",
"193 520 LINE",
"425 520 LINE",
"425 43 LINE SMOOTH",
"425 -94 OFFCURVE",
"391 -136 OFFCURVE",
"281 -136 CURVE SMOOTH",
"231 -136 OFFCURVE",
"205 -127 OFFCURVE",
"178 -100 CURVE",
"145 -128 LINE",
"182 -166 OFFCURVE",
"215 -178 OFFCURVE",
"281 -178 CURVE SMOOTH"
);
}
);
width = 545;
},
{
components = (
{
alignment = -1;
name = dotaccent;
transform = "{1, 0, 0, 1, -83, 0}";
},
{
alignment = -1;
name = dotaccent;
transform = "{1, 0, 0, 1, 187, 0}";
}
);
layerId = "291433DC-531A-45CC-B814-57D397372F12";
paths = (
{
closed = 1;
nodes = (
"255 0 LINE",
"255 562 LINE",
"49 562 LINE",
"49 478 LINE",
"221 478 LINE",
"164 535 LINE",
"164 0 LINE"
);
},
{
closed = 1;
nodes = (
"359 0 LINE",
"359 84 LINE",
"5 84 LINE",
"5 0 LINE"
);
},
{
closed = 1;
nodes = (
"473 -178 OFFCURVE",
"527 -115 OFFCURVE",
"527 64 CURVE SMOOTH",
"527 562 LINE",
"213 562 LINE",
"213 478 LINE",
"436 478 LINE",
"436 64 LINE SMOOTH",
"436 -62 OFFCURVE",
"410 -95 OFFCURVE",
"315 -95 CURVE SMOOTH",
"262 -95 OFFCURVE",
"245 -85 OFFCURVE",
"214 -49 CURVE",
"147 -105 LINE",
"194 -160 OFFCURVE",
"234 -178 OFFCURVE",
"315 -178 CURVE SMOOTH"
);
}
);
width = 545;
}
);
unicode = 0133;
},
{
color = 4;
glyphname = jdotless;
lastChange = "2023-07-14 09:44:56 +0000";
layers = (
{
anchors = (
{
name = bottom;
position = "{273, -227}";
},
{
name = top;
position = "{362, 562}";
}
);
layerId = "7C079D0C-96CD-4BD8-8800-0621C7635A78";
paths = (
{
closed = 1;
nodes = (
"361 -178 OFFCURVE",
"406 -125 OFFCURVE",
"406 43 CURVE SMOOTH",
"406 562 LINE",
"246 562 LINE",
"246 520 LINE",
"361 520 LINE",
"361 43 LINE SMOOTH",
"361 -94 OFFCURVE",
"326 -136 OFFCURVE",
"216 -136 CURVE SMOOTH",
"166 -136 OFFCURVE",
"141 -127 OFFCURVE",
"114 -100 CURVE",
"80 -128 LINE",
"117 -166 OFFCURVE",
"150 -178 OFFCURVE",
"216 -178 CURVE SMOOTH"
);
}
);
width = 545;
},
{
anchors = (
{
name = bottom;
position = "{273, -227}";
},
{
name = top;
position = "{362, 562}";
}
);
layerId = "291433DC-531A-45CC-B814-57D397372F12";
paths = (
{
closed = 1;
nodes = (
"375 -178 OFFCURVE",
"429 -115 OFFCURVE",
"429 64 CURVE SMOOTH",
"429 562 LINE",
"224 562 LINE",
"224 478 LINE",
"338 478 LINE",
"338 64 LINE SMOOTH",
"338 -62 OFFCURVE",
"312 -95 OFFCURVE",
"216 -95 CURVE SMOOTH",
"164 -95 OFFCURVE",
"147 -85 OFFCURVE",
"115 -49 CURVE",
"49 -105 LINE",
"95 -160 OFFCURVE",
"135 -178 OFFCURVE",
"216 -178 CURVE SMOOTH"
);
}
);
width = 545;
}
);
unicode = 0237;
},
{
color = 4;
glyphname = k;
lastChange = "2023-07-14 09:44:56 +0000";
layers = (
{
anchors = (
{
name = bottom;
position = "{273, 0}";
},
{
name = top;
position = "{273, 909}";
}
);
layerId = "7C079D0C-96CD-4BD8-8800-0621C7635A78";
paths = (
{
closed = 1;
nodes = (
"160 0 LINE",
"160 280 LINE",
"211 280 LINE",
"426 0 LINE",
"481 0 LINE",
"248 303 LINE",
"445 562 LINE",
"390 562 LINE",
"207 322 LINE",
"160 322 LINE",
"160 727 LINE",
"115 727 LINE",
"115 0 LINE"
);
}
);
width = 545;
},
{
anchors = (
{
name = bottom;
position = "{273, 0}";
},
{
name = top;
position = "{273, 909}";
}
);
layerId = "291433DC-531A-45CC-B814-57D397372F12";
paths = (
{
closed = 1;
nodes = (
"183 0 LINE",
"183 259 LINE",
"199 259 LINE",
"415 0 LINE",
"525 0 LINE",
"276 303 LINE",
"488 562 LINE",
"378 562 LINE",
"195 343 LINE",
"183 343 LINE",
"183 727 LINE",
"92 727 LINE",
"92 0 LINE"
);
}
);
width = 545;
}
);
unicode = 006B;
},
{
color = 4;
glyphname = l;
lastChange = "2023-07-14 09:44:56 +0000";
layers = (
{
anchors = (
{
name = bottom;
position = "{336, 0}";
},
{
name = center;
position = "{273, 455}";
},
{
name = top;
position = "{273, 727}";
},
{
name = topright;
position = "{527, 727}";
}
);
layerId = "7C079D0C-96CD-4BD8-8800-0621C7635A78";
paths = (
{
closed = 1;
nodes = (
"403 -13 OFFCURVE",
"427 -4 OFFCURVE",
"473 24 CURVE",
"446 64 LINE",
"415 37 OFFCURVE",
"396 29 OFFCURVE",
"369 29 CURVE SMOOTH",
"299 29 OFFCURVE",
"277 68 OFFCURVE",
"277 192 CURVE SMOOTH",
"277 727 LINE",
"117 727 LINE",
"117 685 LINE",
"232 685 LINE",
"232 192 LINE SMOOTH",
"232 36 OFFCURVE",
"265 -13 OFFCURVE",
"369 -13 CURVE SMOOTH"
);
}
);
width = 545;
},
{
anchors = (
{
name = bottom;
position = "{345, 0}";
},
{
name = center;
position = "{273, 455}";
},
{
name = top;
position = "{273, 727}";
},
{
name = topright;
position = "{527, 727}";
}
);
layerId = "291433DC-531A-45CC-B814-57D397372F12";
paths = (
{
closed = 1;
nodes = (
"418 -13 OFFCURVE",
"451 0 OFFCURVE",
"503 40 CURVE",
"452 117 LINE",
"410 82 OFFCURVE",
"390 71 OFFCURVE",
"367 71 CURVE SMOOTH",
"316 71 OFFCURVE",
"300 101 OFFCURVE",
"300 195 CURVE SMOOTH",
"300 727 LINE",
"95 727 LINE",
"95 644 LINE",
"209 644 LINE",
"209 195 LINE SMOOTH",
"209 37 OFFCURVE",
"247 -13 OFFCURVE",
"367 -13 CURVE SMOOTH"
);
}
);
width = 545;
}
);
unicode = 006C;
},
{
color = 4;
glyphname = lslash;
lastChange = "2023-07-14 09:44:56 +0000";
layers = (
{
components = (
{
name = l;
}
);
layerId = "7C079D0C-96CD-4BD8-8800-0621C7635A78";
paths = (
{
closed = 1;
nodes = (
"383 471 LINE",
"383 514 LINE",
"126 409 LINE",
"126 366 LINE"
);
}
);
width = 545;
},
{
components = (
{
name = l;
}
);
layerId = "291433DC-531A-45CC-B814-57D397372F12";
paths = (
{
closed = 1;
nodes = (
"405 457 LINE",
"405 545 LINE",
"104 423 LINE",
"104 335 LINE"
);
}
);
width = 545;
}
);
unicode = 0142;
},
{
color = 4;
glyphname = m;
lastChange = "2023-07-14 09:44:56 +0000";
layers = (
{
anchors = (
{
name = bottom;
position = "{273, 0}";
},
{
name = top;
position = "{273, 562}";
}
);
layerId = "7C079D0C-96CD-4BD8-8800-0621C7635A78";
paths = (
{
closed = 1;
nodes = (
"98 0 LINE",
"98 367 LINE SMOOTH",
"98 494 OFFCURVE",
"120 534 OFFCURVE",
"190 534 CURVE SMOOTH",
"235 534 OFFCURVE",
"250 493 OFFCURVE",
"250 364 CURVE SMOOTH",
"250 0 LINE",
"295 0 LINE",
"295 367 LINE SMOOTH",
"295 494 OFFCURVE",
"317 534 OFFCURVE",
"387 534 CURVE SMOOTH",
"433 534 OFFCURVE",
"447 495 OFFCURVE",
"447 369 CURVE SMOOTH",
"447 0 LINE",
"493 0 LINE",
"493 369 LINE SMOOTH",
"493 525 OFFCURVE",
"467 575 OFFCURVE",
"387 575 CURVE SMOOTH",
"334 575 OFFCURVE",
"307 554 OFFCURVE",
"276 489 CURVE",
"259 554 OFFCURVE",
"238 575 OFFCURVE",
"190 575 CURVE SMOOTH",
"144 575 OFFCURVE",
"121 559 OFFCURVE",
"98 509 CURVE",
"98 562 LINE",
"53 562 LINE",
"53 0 LINE"
);
}
);
width = 545;
},
{
anchors = (
{
name = bottom;
position = "{273, 0}";
},
{
name = top;
position = "{273, 562}";
}
);
layerId = "291433DC-531A-45CC-B814-57D397372F12";
paths = (
{
closed = 1;
nodes = (
"120 0 LINE",
"120 355 LINE SMOOTH",
"120 452 OFFCURVE",
"136 484 OFFCURVE",
"189 484 CURVE SMOOTH",
"218 484 OFFCURVE",
"227 448 OFFCURVE",
"227 343 CURVE SMOOTH",
"227 0 LINE",
"318 0 LINE",
"318 355 LINE SMOOTH",
"318 452 OFFCURVE",
"335 484 OFFCURVE",
"387 484 CURVE SMOOTH",
"416 484 OFFCURVE",
"425 450 OFFCURVE",
"425 348 CURVE SMOOTH",
"425 0 LINE",
"516 0 LINE",
"516 348 LINE SMOOTH",
"516 519 OFFCURVE",
"485 575 OFFCURVE",
"387 575 CURVE SMOOTH",
"338 575 OFFCURVE",
"313 561 OFFCURVE",
"282 519 CURVE",
"260 561 OFFCURVE",
"238 575 OFFCURVE",
"189 575 CURVE SMOOTH",
"164 575 OFFCURVE",
"147 568 OFFCURVE",
"120 553 CURVE",
"120 562 LINE",
"29 562 LINE",
"29 0 LINE"
);
}
);
width = 545;
}
);
unicode = 006D;
},
{
color = 4;
glyphname = n;
lastChange = "2023-07-14 09:44:56 +0000";
layers = (
{
anchors = (
{
name = bottom;
position = "{273, 0}";
},
{
name = top;
position = "{273, 562}";
}
);
layerId = "7C079D0C-96CD-4BD8-8800-0621C7635A78";
paths = (
{
closed = 1;
nodes = (
"135 0 LINE",
"135 376 LINE SMOOTH",
"135 504 OFFCURVE",
"174 533 OFFCURVE",
"298 533 CURVE SMOOTH",
"392 533 OFFCURVE",
"421 493 OFFCURVE",
"421 366 CURVE SMOOTH",
"421 0 LINE",
"466 0 LINE",
"466 366 LINE SMOOTH",
"466 525 OFFCURVE",
"426 575 OFFCURVE",
"298 575 CURVE SMOOTH",
"207 575 OFFCURVE",
"168 554 OFFCURVE",
"135 504 CURVE",
"135 562 LINE",
"89 562 LINE",
"89 0 LINE"
);
}
);
width = 545;
},
{
anchors = (
{
name = bottom;
position = "{273, 0}";
},
{
name = top;
position = "{273, 562}";
}
);
layerId = "291433DC-531A-45CC-B814-57D397372F12";
paths = (
{
closed = 1;
nodes = (
"157 0 LINE",
"157 355 LINE SMOOTH",
"157 465 OFFCURVE",
"181 491 OFFCURVE",
"298 491 CURVE SMOOTH",
"375 491 OFFCURVE",
"398 456 OFFCURVE",
"398 345 CURVE SMOOTH",
"398 0 LINE",
"489 0 LINE",
"489 345 LINE SMOOTH",
"489 520 OFFCURVE",
"444 575 OFFCURVE",
"298 575 CURVE SMOOTH",
"233 575 OFFCURVE",
"190 561 OFFCURVE",
"157 538 CURVE",
"157 562 LINE",
"66 562 LINE",
"66 0 LINE"
);
}
);
width = 545;
}
);
unicode = 006E;
},
{
color = 4;
glyphname = eng;
lastChange = "2023-07-14 09:44:56 +0000";
layers = (
{
components = (
{
name = n;
}
);
layerId = "7C079D0C-96CD-4BD8-8800-0621C7635A78";
paths = (
{
closed = 1;
nodes = (
"435 -141 OFFCURVE",
"466 -107 OFFCURVE",
"466 0 CURVE",
"421 0 LINE",
"421 -88 OFFCURVE",
"405 -99 OFFCURVE",
"337 -99 CURVE",
"337 -141 LINE"
);
}
);
width = 545;
},
{
components = (
{
name = n;
}
);
layerId = "291433DC-531A-45CC-B814-57D397372F12";
paths = (
{
closed = 1;
nodes = (
"450 -161 OFFCURVE",
"489 -115 OFFCURVE",
"489 0 CURVE",
"398 0 LINE",
"398 -59 OFFCURVE",
"385 -77 OFFCURVE",
"315 -77 CURVE",
"315 -161 LINE"
);
}
);
width = 545;
}
);
unicode = 014B;
},
{
color = 4;
glyphname = o;
lastChange = "2023-07-14 09:44:56 +0000";
layers = (
{
anchors = (
{
name = bottom;
position = "{273, 0}";
},
{
name = center;
position = "{273, 281}";
},
{
name = ogonek;
position = "{491, 9}";
},
{
name = top;
position = "{273, 562}";
},
{
name = topright;
position = "{527, 562}";
}
);
layerId = "7C079D0C-96CD-4BD8-8800-0621C7635A78";
paths = (
{
closed = 1;
nodes = (
"421 -13 OFFCURVE",
"468 58 OFFCURVE",
"468 281 CURVE SMOOTH",
"468 504 OFFCURVE",
"421 575 OFFCURVE",
"273 575 CURVE SMOOTH",
"125 575 OFFCURVE",
"77 504 OFFCURVE",
"77 281 CURVE SMOOTH",
"77 58 OFFCURVE",
"125 -13 OFFCURVE",
"273 -13 CURVE SMOOTH"
);
},
{
closed = 1;
nodes = (
"159 29 OFFCURVE",
"123 89 OFFCURVE",
"123 281 CURVE SMOOTH",
"123 473 OFFCURVE",
"159 533 OFFCURVE",
"273 533 CURVE SMOOTH",
"386 533 OFFCURVE",
"423 473 OFFCURVE",
"423 281 CURVE SMOOTH",
"423 89 OFFCURVE",
"386 29 OFFCURVE",
"273 29 CURVE SMOOTH"
);
}
);
width = 545;
},
{
anchors = (
{
name = bottom;
position = "{273, 0}";
},
{
name = center;
position = "{273, 281}";
},
{
name = ogonek;
position = "{491, 9}";
},
{
name = top;
position = "{273, 562}";
},
{
name = topright;
position = "{527, 562}";
}
);
layerId = "291433DC-531A-45CC-B814-57D397372F12";
paths = (
{
closed = 1;
nodes = (
"436 -13 OFFCURVE",
"491 69 OFFCURVE",
"491 281 CURVE SMOOTH",
"491 493 OFFCURVE",
"436 575 OFFCURVE",
"273 575 CURVE SMOOTH",
"109 575 OFFCURVE",
"55 493 OFFCURVE",
"55 281 CURVE SMOOTH",
"55 69 OFFCURVE",
"109 -13 OFFCURVE",
"273 -13 CURVE SMOOTH"
);
},
{
closed = 1;
nodes = (
"175 71 OFFCURVE",
"145 120 OFFCURVE",
"145 281 CURVE SMOOTH",
"145 442 OFFCURVE",
"175 491 OFFCURVE",
"273 491 CURVE SMOOTH",
"370 491 OFFCURVE",
"400 442 OFFCURVE",
"400 281 CURVE SMOOTH",
"400 120 OFFCURVE",
"370 71 OFFCURVE",
"273 71 CURVE SMOOTH"
);
}
);
width = 545;
}
);
unicode = 006F;
},
{
color = 4;
glyphname = oslash;
lastChange = "2023-07-14 09:44:56 +0000";
layers = (
{
anchors = (
{
name = top;
position = "{273, 562}";
}
);
components = (
{
name = o;
}
);
layerId = "7C079D0C-96CD-4BD8-8800-0621C7635A78";
paths = (
{
closed = 1;
nodes = (
"121 -28 LINE",
"475 591 LINE",
"423 591 LINE",
"69 -28 LINE"
);
}
);
width = 545;
},
{
anchors = (
{
name = top;
position = "{273, 562}";
}
);
components = (
{
name = o;
}
);
layerId = "291433DC-531A-45CC-B814-57D397372F12";
paths = (
{
closed = 1;
nodes = (
"135 -28 LINE",
"512 591 LINE",
"409 591 LINE",
"32 -28 LINE"
);
}
);
width = 545;
}
);
unicode = 00F8;
},
{
color = 4;
glyphname = oe;
lastChange = "2023-07-14 09:44:56 +0000";
layers = (
{
anchors = (
{
name = bottom;
position = "{273, 0}";
},
{
name = top;
position = "{273, 562}";
}
);
layerId = "7C079D0C-96CD-4BD8-8800-0621C7635A78";
paths = (
{
closed = 1;
nodes = (
"220 -13 OFFCURVE",
"248 12 OFFCURVE",
"274 88 CURVE",
"298 12 OFFCURVE",
"328 -13 OFFCURVE",
"398 -13 CURVE SMOOTH",
"453 -13 OFFCURVE",
"482 9 OFFCURVE",
"518 77 CURVE",
"481 103 LINE",
"450 46 OFFCURVE",
"431 29 OFFCURVE",
"398 29 CURVE SMOOTH",
"322 29 OFFCURVE",
"295 89 OFFCURVE",
"295 280 CURVE",
"531 280 LINE",
"531 504 OFFCURVE",
"500 575 OFFCURVE",
"398 575 CURVE SMOOTH",
"328 575 OFFCURVE",
"298 550 OFFCURVE",
"274 474 CURVE",
"248 550 OFFCURVE",
"220 575 OFFCURVE",
"156 575 CURVE SMOOTH",
"48 575 OFFCURVE",
"15 504 OFFCURVE",
"15 281 CURVE SMOOTH",
"15 58 OFFCURVE",
"48 -13 OFFCURVE",
"156 -13 CURVE SMOOTH"
);
},
{
closed = 1;
nodes = (
"83 29 OFFCURVE",
"60 89 OFFCURVE",
"60 281 CURVE SMOOTH",
"60 473 OFFCURVE",
"83 533 OFFCURVE",
"156 533 CURVE SMOOTH",
"227 533 OFFCURVE",
"250 473 OFFCURVE",
"250 281 CURVE SMOOTH",
"250 89 OFFCURVE",
"227 29 OFFCURVE",
"156 29 CURVE SMOOTH"
);
},
{
closed = 1;
nodes = (
"296 482 OFFCURVE",
"321 533 OFFCURVE",
"398 533 CURVE SMOOTH",
"464 533 OFFCURVE",
"485 482 OFFCURVE",
"485 322 CURVE",
"296 322 LINE"
);
}
);
width = 545;
},
{
anchors = (
{
name = bottom;
position = "{273, 0}";
},
{
name = top;
position = "{273, 562}";
}
);
layerId = "291433DC-531A-45CC-B814-57D397372F12";
paths = (
{
closed = 1;
nodes = (
"216 -34 OFFCURVE",
"248 -15 OFFCURVE",
"274 31 CURVE",
"300 -15 OFFCURVE",
"332 -34 OFFCURVE",
"394 -34 CURVE SMOOTH",
"458 -34 OFFCURVE",
"495 -3 OFFCURVE",
"538 84 CURVE",
"465 135 LINE",
"428 65 OFFCURVE",
"415 50 OFFCURVE",
"394 50 CURVE SMOOTH",
"337 50 OFFCURVE",
"320 97 OFFCURVE",
"318 259 CURVE",
"545 259 LINE",
"547 511 OFFCURVE",
"512 595 OFFCURVE",
"394 595 CURVE SMOOTH",
"332 595 OFFCURVE",
"300 577 OFFCURVE",
"274 531 CURVE",
"248 577 OFFCURVE",
"216 595 OFFCURVE",
"160 595 CURVE SMOOTH",
"40 595 OFFCURVE",
"0 515 OFFCURVE",
"0 281 CURVE SMOOTH",
"0 47 OFFCURVE",
"40 -34 OFFCURVE",
"160 -34 CURVE SMOOTH"
);
},
{
closed = 1;
nodes = (
"110 50 OFFCURVE",
"91 100 OFFCURVE",
"91 281 CURVE SMOOTH",
"91 462 OFFCURVE",
"110 512 OFFCURVE",
"160 512 CURVE SMOOTH",
"213 512 OFFCURVE",
"227 461 OFFCURVE",
"227 281 CURVE SMOOTH",
"227 101 OFFCURVE",
"213 50 OFFCURVE",
"160 50 CURVE SMOOTH"
);
},
{
closed = 1;
nodes = (
"321 475 OFFCURVE",
"336 512 OFFCURVE",
"394 512 CURVE SMOOTH",
"435 512 OFFCURVE",
"452 475 OFFCURVE",
"454 343 CURVE",
"319 343 LINE"
);
}
);
width = 545;
}
);
unicode = 0153;
},
{
color = 4;
glyphname = p;
lastChange = "2023-07-14 09:44:56 +0000";
layers = (
{
anchors = (
{
name = bottom;
position = "{273, 0}";
},
{
name = top;
position = "{273, 562}";
}
);
layerId = "7C079D0C-96CD-4BD8-8800-0621C7635A78";
paths = (
{
closed = 1;
nodes = (
"128 -165 LINE",
"128 69 LINE",
"153 7 OFFCURVE",
"207 -13 OFFCURVE",
"279 -13 CURVE SMOOTH",
"427 -13 OFFCURVE",
"475 58 OFFCURVE",
"475 282 CURVE SMOOTH",
"475 505 OFFCURVE",
"427 575 OFFCURVE",
"279 575 CURVE SMOOTH",
"209 575 OFFCURVE",
"155 560 OFFCURVE",
"128 515 CURVE",
"128 562 LINE",
"83 562 LINE",
"83 -165 LINE"
);
},
{
closed = 1;
nodes = (
"190 29 OFFCURVE",
"128 69 OFFCURVE",
"128 184 CURVE SMOOTH",
"128 453 LINE SMOOTH",
"128 515 OFFCURVE",
"200 533 OFFCURVE",
"279 533 CURVE SMOOTH",
"393 533 OFFCURVE",
"429 473 OFFCURVE",
"429 282 CURVE SMOOTH",
"429 90 OFFCURVE",
"393 29 OFFCURVE",
"279 29 CURVE SMOOTH"
);
}
);
width = 545;
},
{
anchors = (
{
name = bottom;
position = "{273, 0}";
},
{
name = top;
position = "{273, 562}";
}
);
layerId = "291433DC-531A-45CC-B814-57D397372F12";
paths = (
{
closed = 1;
nodes = (
"151 -165 LINE",
"151 23 LINE",
"182 -1 OFFCURVE",
"225 -13 OFFCURVE",
"279 -13 CURVE SMOOTH",
"443 -13 OFFCURVE",
"497 69 OFFCURVE",
"497 282 CURVE SMOOTH",
"497 494 OFFCURVE",
"443 575 OFFCURVE",
"279 575 CURVE SMOOTH",
"225 575 OFFCURVE",
"182 565 OFFCURVE",
"151 546 CURVE",
"151 562 LINE",
"60 562 LINE",
"60 -165 LINE"
);
},
{
closed = 1;
nodes = (
"191 71 OFFCURVE",
"151 113 OFFCURVE",
"151 205 CURVE SMOOTH",
"151 432 LINE SMOOTH",
"151 470 OFFCURVE",
"193 491 OFFCURVE",
"279 491 CURVE SMOOTH",
"376 491 OFFCURVE",
"406 442 OFFCURVE",
"406 282 CURVE SMOOTH",
"406 121 OFFCURVE",
"376 71 OFFCURVE",
"279 71 CURVE SMOOTH"
);
}
);
width = 545;
}
);
unicode = 0070;
},
{
color = 4;
glyphname = thorn;
lastChange = "2023-07-14 09:44:56 +0000";
layers = (
{
anchors = (
{
name = bottom;
position = "{273, 0}";
},
{
name = top;
position = "{273, 562}";
}
);
layerId = "7C079D0C-96CD-4BD8-8800-0621C7635A78";
paths = (
{
closed = 1;
nodes = (
"128 -165 LINE",
"128 69 LINE",
"153 7 OFFCURVE",
"207 -13 OFFCURVE",
"279 -13 CURVE SMOOTH",
"427 -13 OFFCURVE",
"475 58 OFFCURVE",
"475 282 CURVE SMOOTH",
"475 505 OFFCURVE",
"427 575 OFFCURVE",
"279 575 CURVE SMOOTH",
"209 575 OFFCURVE",
"155 560 OFFCURVE",
"128 515 CURVE",
"128 727 LINE",
"83 727 LINE",
"83 -165 LINE"
);
},
{
closed = 1;
nodes = (
"190 29 OFFCURVE",
"128 69 OFFCURVE",
"128 184 CURVE SMOOTH",
"128 453 LINE SMOOTH",
"128 515 OFFCURVE",
"200 533 OFFCURVE",
"279 533 CURVE SMOOTH",
"393 533 OFFCURVE",
"429 473 OFFCURVE",
"429 282 CURVE SMOOTH",
"429 90 OFFCURVE",
"393 29 OFFCURVE",
"279 29 CURVE SMOOTH"
);
}
);
width = 545;
},
{
anchors = (
{
name = bottom;
position = "{273, 0}";
},
{
name = top;
position = "{273, 562}";
}
);
layerId = "291433DC-531A-45CC-B814-57D397372F12";
paths = (
{
closed = 1;
nodes = (
"151 -165 LINE",
"151 23 LINE",
"182 -1 OFFCURVE",
"225 -13 OFFCURVE",
"279 -13 CURVE SMOOTH",
"443 -13 OFFCURVE",
"497 69 OFFCURVE",
"497 282 CURVE SMOOTH",
"497 494 OFFCURVE",
"443 575 OFFCURVE",
"279 575 CURVE SMOOTH",
"225 575 OFFCURVE",
"182 565 OFFCURVE",
"151 546 CURVE",
"151 727 LINE",
"60 727 LINE",
"60 -165 LINE"
);
},
{
closed = 1;
nodes = (
"191 71 OFFCURVE",
"151 113 OFFCURVE",
"151 205 CURVE SMOOTH",
"151 432 LINE SMOOTH",
"151 470 OFFCURVE",
"193 491 OFFCURVE",
"279 491 CURVE SMOOTH",
"376 491 OFFCURVE",
"406 442 OFFCURVE",
"406 282 CURVE SMOOTH",
"406 121 OFFCURVE",
"376 71 OFFCURVE",
"279 71 CURVE SMOOTH"
);
}
);
width = 545;
}
);
unicode = 00FE;
},
{
color = 4;
glyphname = q;
lastChange = "2023-07-14 09:44:56 +0000";
layers = (
{
anchors = (
{
name = bottom;
position = "{273, 0}";
},
{
name = top;
position = "{273, 562}";
}
);
layerId = "7C079D0C-96CD-4BD8-8800-0621C7635A78";
paths = (
{
closed = 1;
nodes = (
"463 -165 LINE",
"463 562 LINE",
"417 562 LINE",
"417 515 LINE",
"391 560 OFFCURVE",
"336 575 OFFCURVE",
"266 575 CURVE SMOOTH",
"118 575 OFFCURVE",
"71 505 OFFCURVE",
"71 282 CURVE SMOOTH",
"71 58 OFFCURVE",
"118 -13 OFFCURVE",
"266 -13 CURVE SMOOTH",
"338 -13 OFFCURVE",
"393 7 OFFCURVE",
"417 69 CURVE",
"417 -165 LINE"
);
},
{
closed = 1;
nodes = (
"153 29 OFFCURVE",
"116 90 OFFCURVE",
"116 282 CURVE SMOOTH",
"116 473 OFFCURVE",
"153 533 OFFCURVE",
"266 533 CURVE SMOOTH",
"345 533 OFFCURVE",
"417 515 OFFCURVE",
"417 453 CURVE SMOOTH",
"417 184 LINE SMOOTH",
"417 69 OFFCURVE",
"355 29 OFFCURVE",
"266 29 CURVE SMOOTH"
);
}
);
width = 545;
},
{
anchors = (
{
name = bottom;
position = "{273, 0}";
},
{
name = top;
position = "{273, 562}";
}
);
layerId = "291433DC-531A-45CC-B814-57D397372F12";
paths = (
{
closed = 1;
nodes = (
"485 -165 LINE",
"485 562 LINE",
"395 562 LINE",
"395 546 LINE",
"364 565 OFFCURVE",
"321 575 OFFCURVE",
"266 575 CURVE SMOOTH",
"103 575 OFFCURVE",
"48 494 OFFCURVE",
"48 282 CURVE SMOOTH",
"48 69 OFFCURVE",
"103 -13 OFFCURVE",
"266 -13 CURVE SMOOTH",
"321 -13 OFFCURVE",
"364 -1 OFFCURVE",
"395 23 CURVE",
"395 -165 LINE"
);
},
{
closed = 1;
nodes = (
"169 71 OFFCURVE",
"139 121 OFFCURVE",
"139 282 CURVE SMOOTH",
"139 442 OFFCURVE",
"169 491 OFFCURVE",
"266 491 CURVE SMOOTH",
"353 491 OFFCURVE",
"395 470 OFFCURVE",
"395 432 CURVE SMOOTH",
"395 205 LINE SMOOTH",
"395 113 OFFCURVE",
"355 71 OFFCURVE",
"266 71 CURVE SMOOTH"
);
}
);
width = 545;
}
);
unicode = 0071;
},
{
color = 4;
glyphname = r;
lastChange = "2023-07-14 09:44:56 +0000";
layers = (
{
anchors = (
{
name = bottom;
position = "{273, 0}";
},
{
name = top;
position = "{273, 562}";
}
);
layerId = "7C079D0C-96CD-4BD8-8800-0621C7635A78";
paths = (
{
closed = 1;
nodes = (
"159 0 LINE",
"159 327 LINE SMOOTH",
"159 395 OFFCURVE",
"197 533 OFFCURVE",
"320 533 CURVE SMOOTH",
"383 533 OFFCURVE",
"411 513 OFFCURVE",
"435 450 CURVE",
"475 468 LINE",
"441 549 OFFCURVE",
"404 575 OFFCURVE",
"320 575 CURVE SMOOTH",
"240 575 OFFCURVE",
"178 513 OFFCURVE",
"159 452 CURVE",
"159 562 LINE",
"114 562 LINE",
"114 0 LINE"
);
}
);
width = 545;
},
{
anchors = (
{
name = bottom;
position = "{273, 0}";
},
{
name = top;
position = "{273, 562}";
}
);
layerId = "291433DC-531A-45CC-B814-57D397372F12";
paths = (
{
closed = 1;
nodes = (
"182 0 LINE",
"182 297 LINE SMOOTH",
"182 402 OFFCURVE",
"215 491 OFFCURVE",
"320 491 CURVE SMOOTH",
"380 491 OFFCURVE",
"397 473 OFFCURVE",
"422 400 CURVE",
"504 437 LINE",
"465 539 OFFCURVE",
"419 575 OFFCURVE",
"320 575 CURVE SMOOTH",
"256 575 OFFCURVE",
"205 535 OFFCURVE",
"182 501 CURVE",
"182 562 LINE",
"91 562 LINE",
"91 0 LINE"
);
}
);
width = 545;
}
);
unicode = 0072;
},
{
color = 4;
glyphname = s;
lastChange = "2023-07-14 09:44:56 +0000";
layers = (
{
anchors = (
{
name = bottom;
position = "{273, 0}";
},
{
name = top;
position = "{273, 562}";
}
);
layerId = "7C079D0C-96CD-4BD8-8800-0621C7635A78";
paths = (
{
closed = 1;
nodes = (
"421 -13 OFFCURVE",
"475 26 OFFCURVE",
"475 152 CURVE SMOOTH",
"475 258 OFFCURVE",
"428 297 OFFCURVE",
"277 317 CURVE SMOOTH",
"173 331 OFFCURVE",
"140 365 OFFCURVE",
"140 418 CURVE SMOOTH",
"140 505 OFFCURVE",
"177 533 OFFCURVE",
"295 533 CURVE SMOOTH",
"367 533 OFFCURVE",
"400 516 OFFCURVE",
"432 466 CURVE",
"465 498 LINE",
"425 556 OFFCURVE",
"384 575 OFFCURVE",
"295 575 CURVE SMOOTH",
"143 575 OFFCURVE",
"95 537 OFFCURVE",
"95 418 CURVE SMOOTH",
"95 339 OFFCURVE",
"137 291 OFFCURVE",
"277 274 CURVE SMOOTH",
"394 259 OFFCURVE",
"430 231 OFFCURVE",
"430 152 CURVE SMOOTH",
"430 58 OFFCURVE",
"386 29 OFFCURVE",
"250 29 CURVE SMOOTH",
"184 29 OFFCURVE",
"153 48 OFFCURVE",
"123 107 CURVE",
"87 78 LINE",
"126 9 OFFCURVE",
"165 -13 OFFCURVE",
"250 -13 CURVE SMOOTH"
);
}
);
width = 545;
},
{
anchors = (
{
name = bottom;
position = "{273, 0}";
},
{
name = top;
position = "{273, 562}";
}
);
layerId = "291433DC-531A-45CC-B814-57D397372F12";
paths = (
{
closed = 1;
nodes = (
"433 -13 OFFCURVE",
"498 35 OFFCURVE",
"498 161 CURVE SMOOTH",
"498 279 OFFCURVE",
"442 315 OFFCURVE",
"280 338 CURVE SMOOTH",
"195 350 OFFCURVE",
"163 363 OFFCURVE",
"163 408 CURVE SMOOTH",
"163 472 OFFCURVE",
"189 491 OFFCURVE",
"295 491 CURVE SMOOTH",
"370 491 OFFCURVE",
"391 475 OFFCURVE",
"426 410 CURVE",
"493 475 LINE",
"446 549 OFFCURVE",
"398 575 OFFCURVE",
"295 575 CURVE SMOOTH",
"131 575 OFFCURVE",
"72 529 OFFCURVE",
"72 408 CURVE SMOOTH",
"72 310 OFFCURVE",
"135 270 OFFCURVE",
"275 253 CURVE SMOOTH",
"382 239 OFFCURVE",
"407 227 OFFCURVE",
"407 161 CURVE SMOOTH",
"407 93 OFFCURVE",
"376 71 OFFCURVE",
"250 71 CURVE SMOOTH",
"184 71 OFFCURVE",
"164 89 OFFCURVE",
"131 163 CURVE",
"59 104 LINE",
"105 17 OFFCURVE",
"152 -13 OFFCURVE",
"250 -13 CURVE SMOOTH"
);
}
);
width = 545;
}
);
unicode = 0073;
},
{
color = 4;
glyphname = germandbls;
lastChange = "2023-07-14 09:44:56 +0000";
layers = (
{
anchors = (
{
name = bottom;
position = "{273, 0}";
},
{
name = top;
position = "{273, 562}";
}
);
layerId = "7C079D0C-96CD-4BD8-8800-0621C7635A78";
paths = (
{
closed = 1;
nodes = (
"126 0 LINE",
"126 547 LINE SMOOTH",
"126 662 OFFCURVE",
"157 698 OFFCURVE",
"254 698 CURVE SMOOTH",
"367 698 OFFCURVE",
"404 662 OFFCURVE",
"404 547 CURVE SMOOTH",
"404 441 OFFCURVE",
"367 407 OFFCURVE",
"254 407 CURVE SMOOTH",
"245 407 LINE",
"245 365 LINE",
"276 365 LINE SMOOTH",
"390 365 OFFCURVE",
"426 326 OFFCURVE",
"426 204 CURVE SMOOTH",
"426 81 OFFCURVE",
"390 42 OFFCURVE",
"276 42 CURVE SMOOTH",
"226 42 LINE",
"226 0 LINE",
"276 0 LINE SMOOTH",
"425 0 OFFCURVE",
"472 49 OFFCURVE",
"472 204 CURVE SMOOTH",
"472 315 OFFCURVE",
"448 361 OFFCURVE",
"375 391 CURVE",
"431 421 OFFCURVE",
"449 459 OFFCURVE",
"449 547 CURVE SMOOTH",
"449 694 OFFCURVE",
"402 740 OFFCURVE",
"254 740 CURVE SMOOTH",
"123 740 OFFCURVE",
"81 694 OFFCURVE",
"81 547 CURVE SMOOTH",
"81 0 LINE"
);
}
);
width = 545;
},
{
anchors = (
{
name = bottom;
position = "{273, 0}";
},
{
name = top;
position = "{273, 562}";
}
);
layerId = "291433DC-531A-45CC-B814-57D397372F12";
paths = (
{
closed = 1;
nodes = (
"149 0 LINE",
"149 537 LINE SMOOTH",
"149 630 OFFCURVE",
"172 656 OFFCURVE",
"254 656 CURVE SMOOTH",
"355 656 OFFCURVE",
"381 629 OFFCURVE",
"381 537 CURVE SMOOTH",
"381 443 OFFCURVE",
"355 428 OFFCURVE",
"254 428 CURVE SMOOTH",
"222 428 LINE",
"222 345 LINE",
"276 345 LINE SMOOTH",
"376 345 OFFCURVE",
"404 325 OFFCURVE",
"404 214 CURVE SMOOTH",
"404 113 OFFCURVE",
"376 84 OFFCURVE",
"276 84 CURVE SMOOTH",
"222 84 LINE",
"222 0 LINE",
"276 0 LINE SMOOTH",
"438 0 OFFCURVE",
"495 58 OFFCURVE",
"495 214 CURVE SMOOTH",
"495 315 OFFCURVE",
"475 359 OFFCURVE",
"417 394 CURVE",
"457 425 OFFCURVE",
"472 460 OFFCURVE",
"472 537 CURVE SMOOTH",
"472 685 OFFCURVE",
"415 740 OFFCURVE",
"254 740 CURVE SMOOTH",
"109 740 OFFCURVE",
"58 684 OFFCURVE",
"58 537 CURVE SMOOTH",
"58 0 LINE"
);
}
);
width = 545;
}
);
unicode = 00DF;
},
{
color = 4;
glyphname = t;
lastChange = "2023-07-14 09:44:56 +0000";
layers = (
{
anchors = (
{
name = bottom;
position = "{327, 0}";
},
{
name = center;
position = "{273, 281}";
},
{
name = top;
position = "{273, 562}";
},
{
name = topright;
position = "{527, 562}";
}
);
layerId = "7C079D0C-96CD-4BD8-8800-0621C7635A78";
paths = (
{
closed = 1;
nodes = (
"421 -13 OFFCURVE",
"456 6 OFFCURVE",
"480 68 CURVE",
"437 83 LINE",
"421 42 OFFCURVE",
"395 29 OFFCURVE",
"332 29 CURVE SMOOTH",
"249 29 OFFCURVE",
"223 76 OFFCURVE",
"223 185 CURVE SMOOTH",
"223 520 LINE",
"412 520 LINE",
"412 562 LINE",
"223 562 LINE",
"223 727 LINE",
"177 727 LINE",
"177 562 LINE",
"65 562 LINE",
"65 520 LINE",
"177 520 LINE",
"177 185 LINE SMOOTH",
"177 45 OFFCURVE",
"215 -13 OFFCURVE",
"332 -13 CURVE SMOOTH"
);
}
);
width = 545;
},
{
anchors = (
{
name = bottom;
position = "{327, 0}";
},
{
name = center;
position = "{273, 281}";
},
{
name = top;
position = "{273, 562}";
},
{
name = topright;
position = "{527, 562}";
}
);
layerId = "291433DC-531A-45CC-B814-57D397372F12";
paths = (
{
closed = 1;
nodes = (
"439 -13 OFFCURVE",
"482 16 OFFCURVE",
"508 102 CURVE",
"423 131 LINE",
"407 82 OFFCURVE",
"397 71 OFFCURVE",
"332 71 CURVE SMOOTH",
"267 71 OFFCURVE",
"245 103 OFFCURVE",
"245 206 CURVE SMOOTH",
"245 486 LINE",
"435 486 LINE",
"435 570 LINE",
"245 570 LINE",
"245 727 LINE",
"155 727 LINE",
"155 570 LINE",
"42 570 LINE",
"42 486 LINE",
"155 486 LINE",
"155 206 LINE SMOOTH",
"155 50 OFFCURVE",
"204 -13 OFFCURVE",
"332 -13 CURVE SMOOTH"
);
}
);
width = 545;
}
);
unicode = 0074;
},
{
color = 4;
glyphname = tbar;
lastChange = "2023-07-14 09:44:56 +0000";
layers = (
{
components = (
{
name = t;
}
);
layerId = "7C079D0C-96CD-4BD8-8800-0621C7635A78";
paths = (
{
closed = 1;
nodes = (
"412 322 LINE",
"412 364 LINE",
"65 364 LINE",
"65 322 LINE"
);
}
);
width = 545;
},
{
components = (
{
name = t;
}
);
layerId = "291433DC-531A-45CC-B814-57D397372F12";
paths = (
{
closed = 1;
nodes = (
"435 280 LINE",
"435 364 LINE",
"42 364 LINE",
"42 280 LINE"
);
}
);
width = 545;
}
);
unicode = 0167;
},
{
color = 4;
glyphname = u;
lastChange = "2023-07-14 09:44:56 +0000";
layers = (
{
anchors = (
{
name = bottom;
position = "{273, 0}";
},
{
name = ogonek;
position = "{443, 0}";
},
{
name = top;
position = "{273, 562}";
},
{
name = topright;
position = "{527, 562}";
}
);
layerId = "7C079D0C-96CD-4BD8-8800-0621C7635A78";
paths = (
{
closed = 1;
nodes = (
"348 -13 OFFCURVE",
"387 4 OFFCURVE",
"421 54 CURVE",
"421 0 LINE",
"466 0 LINE",
"466 562 LINE",
"421 562 LINE",
"421 166 LINE SMOOTH",
"421 62 OFFCURVE",
"382 29 OFFCURVE",
"257 29 CURVE SMOOTH",
"164 29 OFFCURVE",
"135 68 OFFCURVE",
"135 191 CURVE SMOOTH",
"135 562 LINE",
"89 562 LINE",
"89 191 LINE SMOOTH",
"89 36 OFFCURVE",
"129 -13 OFFCURVE",
"257 -13 CURVE SMOOTH"
);
}
);
width = 545;
},
{
anchors = (
{
name = bottom;
position = "{273, 0}";
},
{
name = ogonek;
position = "{437, 0}";
},
{
name = top;
position = "{273, 562}";
},
{
name = topright;
position = "{527, 562}";
}
);
layerId = "291433DC-531A-45CC-B814-57D397372F12";
paths = (
{
closed = 1;
nodes = (
"323 -13 OFFCURVE",
"365 -4 OFFCURVE",
"398 19 CURVE",
"398 0 LINE",
"489 0 LINE",
"489 562 LINE",
"398 562 LINE",
"398 187 LINE SMOOTH",
"398 95 OFFCURVE",
"370 71 OFFCURVE",
"257 71 CURVE SMOOTH",
"179 71 OFFCURVE",
"157 99 OFFCURVE",
"157 212 CURVE SMOOTH",
"157 562 LINE",
"66 562 LINE",
"66 212 LINE SMOOTH",
"66 45 OFFCURVE",
"115 -13 OFFCURVE",
"257 -13 CURVE SMOOTH"
);
}
);
width = 545;
}
);
unicode = 0075;
},
{
color = 4;
glyphname = v;
lastChange = "2023-07-14 09:44:56 +0000";
layers = (
{
anchors = (
{
name = bottom;
position = "{273, 0}";
},
{
name = top;
position = "{273, 562}";
}
);
layerId = "7C079D0C-96CD-4BD8-8800-0621C7635A78";
paths = (
{
closed = 1;
nodes = (
"296 0 LINE",
"484 562 LINE",
"436 562 LINE",
"272 75 LINE",
"108 562 LINE",
"62 562 LINE",
"247 0 LINE"
);
}
);
width = 545;
},
{
anchors = (
{
name = bottom;
position = "{273, 0}";
},
{
name = top;
position = "{273, 562}";
}
);
layerId = "291433DC-531A-45CC-B814-57D397372F12";
paths = (
{
closed = 1;
nodes = (
"314 0 LINE",
"514 562 LINE",
"420 562 LINE",
"272 137 LINE",
"125 562 LINE",
"32 562 LINE",
"230 0 LINE"
);
}
);
width = 545;
}
);
unicode = 0076;
},
{
color = 4;
glyphname = w;
lastChange = "2023-07-14 09:44:56 +0000";
layers = (
{
anchors = (
{
name = bottom;
position = "{273, 0}";
},
{
name = top;
position = "{273, 562}";
}
);
layerId = "7C079D0C-96CD-4BD8-8800-0621C7635A78";
paths = (
{
closed = 1;
nodes = (
"176 0 LINE",
"273 312 LINE",
"368 0 LINE",
"414 0 LINE",
"510 562 LINE",
"464 562 LINE",
"385 88 LINE",
"295 380 LINE",
"250 380 LINE",
"160 88 LINE",
"82 562 LINE",
"35 562 LINE",
"131 0 LINE"
);
}
);
width = 545;
},
{
anchors = (
{
name = bottom;
position = "{273, 0}";
},
{
name = top;
position = "{273, 562}";
}
);
layerId = "291433DC-531A-45CC-B814-57D397372F12";
paths = (
{
closed = 1;
nodes = (
"194 0 LINE",
"273 235 LINE",
"351 0 LINE",
"433 0 LINE",
"536 562 LINE",
"445 562 LINE",
"378 187 LINE",
"313 401 LINE",
"233 401 LINE",
"166 186 LINE",
"101 562 LINE",
"9 562 LINE",
"112 0 LINE"
);
}
);
width = 545;
}
);
unicode = 0077;
},
{
color = 4;
glyphname = x;
lastChange = "2023-07-14 09:44:56 +0000";
layers = (
{
anchors = (
{
name = bottom;
position = "{273, 0}";
},
{
name = top;
position = "{273, 562}";
}
);
layerId = "7C079D0C-96CD-4BD8-8800-0621C7635A78";
paths = (
{
closed = 1;
nodes = (
"468 0 LINE",
"129 562 LINE",
"77 562 LINE",
"416 0 LINE"
);
},
{
closed = 1;
nodes = (
"129 0 LINE",
"468 562 LINE",
"416 562 LINE",
"77 0 LINE"
);
}
);
width = 545;
},
{
anchors = (
{
name = bottom;
position = "{273, 0}";
},
{
name = top;
position = "{273, 562}";
}
);
layerId = "291433DC-531A-45CC-B814-57D397372F12";
paths = (
{
closed = 1;
nodes = (
"506 0 LINE",
"143 562 LINE",
"39 562 LINE",
"403 0 LINE"
);
},
{
closed = 1;
nodes = (
"143 0 LINE",
"506 562 LINE",
"403 562 LINE",
"39 0 LINE"
);
}
);
width = 545;
}
);
unicode = 0078;
},
{
color = 4;
glyphname = y;
lastChange = "2023-07-14 09:44:56 +0000";
layers = (
{
anchors = (
{
name = bottom;
position = "{391, 0}";
},
{
name = top;
position = "{273, 562}";
}
);
layerId = "7C079D0C-96CD-4BD8-8800-0621C7635A78";
paths = (
{
closed = 1;
nodes = (
"226 -178 OFFCURVE",
"274 -135 OFFCURVE",
"317 -2 CURVE SMOOTH",
"501 562 LINE",
"454 562 LINE",
"295 65 LINE",
"137 562 LINE",
"90 562 LINE",
"270 -3 LINE",
"236 -105 OFFCURVE",
"201 -136 OFFCURVE",
"122 -136 CURVE SMOOTH",
"100 -136 OFFCURVE",
"85 -132 OFFCURVE",
"58 -117 CURVE",
"40 -155 LINE",
"67 -173 OFFCURVE",
"87 -178 OFFCURVE",
"122 -178 CURVE SMOOTH"
);
}
);
width = 545;
},
{
anchors = (
{
name = bottom;
position = "{436, 0}";
},
{
name = top;
position = "{273, 562}";
}
);
layerId = "291433DC-531A-45CC-B814-57D397372F12";
paths = (
{
closed = 1;
nodes = (
"237 -178 OFFCURVE",
"289 -129 OFFCURVE",
"339 13 CURVE SMOOTH",
"532 562 LINE",
"436 562 LINE",
"295 139 LINE",
"155 562 LINE",
"60 562 LINE",
"246 18 LINE",
"216 -71 OFFCURVE",
"188 -95 OFFCURVE",
"122 -95 CURVE SMOOTH",
"99 -95 OFFCURVE",
"88 -89 OFFCURVE",
"48 -65 CURVE",
"12 -142 LINE",
"49 -168 OFFCURVE",
"76 -178 OFFCURVE",
"122 -178 CURVE SMOOTH"
);
}
);
width = 545;
}
);
unicode = 0079;
},
{
color = 4;
glyphname = z;
lastChange = "2023-07-14 09:44:56 +0000";
layers = (
{
anchors = (
{
name = bottom;
position = "{273, 0}";
},
{
name = center;
position = "{273, 281}";
},
{
name = top;
position = "{273, 562}";
}
);
layerId = "7C079D0C-96CD-4BD8-8800-0621C7635A78";
paths = (
{
closed = 1;
nodes = (
"453 0 LINE",
"453 42 LINE",
"154 42 LINE",
"452 534 LINE",
"452 562 LINE",
"93 562 LINE",
"93 520 LINE",
"390 520 LINE",
"92 28 LINE",
"92 0 LINE"
);
}
);
width = 545;
},
{
anchors = (
{
name = bottom;
position = "{273, 0}";
},
{
name = center;
position = "{273, 281}";
},
{
name = top;
position = "{273, 562}";
}
);
layerId = "291433DC-531A-45CC-B814-57D397372F12";
paths = (
{
closed = 1;
nodes = (
"475 0 LINE",
"475 84 LINE",
"193 84 LINE",
"475 507 LINE",
"475 562 LINE",
"70 562 LINE",
"70 478 LINE",
"351 478 LINE",
"69 55 LINE",
"69 0 LINE"
);
}
);
width = 545;
}
);
unicode = 007A;
},
{
color = 4;
glyphname = a.ss01;
lastChange = "2023-07-14 09:44:56 +0000";
layers = (
{
anchors = (
{
name = bottom;
position = "{273, 0}";
},
{
name = ogonek;
position = "{488, 2}";
},
{
name = top;
position = "{273, 562}";
}
);
layerId = "7C079D0C-96CD-4BD8-8800-0621C7635A78";
paths = (
{
closed = 1;
nodes = (
"492 35 OFFCURVE",
"477 29 OFFCURVE",
"465 29 CURVE SMOOTH",
"428 29 OFFCURVE",
"421 54 OFFCURVE",
"418 90 CURVE",
"418 423 OFFCURVE",
"419 484 OFFCURVE",
"415 499 CURVE SMOOTH",
"403 560 OFFCURVE",
"345 575 OFFCURVE",
"272 575 CURVE SMOOTH",
"132 575 OFFCURVE",
"19 328 OFFCURVE",
"59 141 CURVE SMOOTH",
"78 48 OFFCURVE",
"151 -13 OFFCURVE",
"240 -13 CURVE SMOOTH",
"302 -13 OFFCURVE",
"355 35 OFFCURVE",
"375 103 CURVE",
"375 88 OFFCURVE",
"375 64 OFFCURVE",
"381 36 CURVE SMOOTH",
"387 6 OFFCURVE",
"415 -13 OFFCURVE",
"450 -13 CURVE SMOOTH",
"484 -13 OFFCURVE",
"513 -1 OFFCURVE",
"526 15 CURVE",
"502 47 LINE"
);
},
{
closed = 1;
nodes = (
"173 29 OFFCURVE",
"118 77 OFFCURVE",
"103 148 CURVE SMOOTH",
"69 306 OFFCURVE",
"165 533 OFFCURVE",
"273 533 CURVE SMOOTH",
"335 533 OFFCURVE",
"365 522 OFFCURVE",
"373 487 CURVE SMOOTH",
"376 469 OFFCURVE",
"376 375 OFFCURVE",
"377 230 CURVE",
"365 109 OFFCURVE",
"309 29 OFFCURVE",
"239 29 CURVE SMOOTH"
);
}
);
width = 545;
},
{
anchors = (
{
name = bottom;
position = "{273, 0}";
},
{
name = ogonek;
position = "{480, 10}";
},
{
name = top;
position = "{273, 562}";
}
);
layerId = "291433DC-531A-45CC-B814-57D397372F12";
paths = (
{
closed = 1;
nodes = (
"495 84 OFFCURVE",
"481 71 OFFCURVE",
"469 71 CURVE SMOOTH",
"443 71 OFFCURVE",
"437 85 OFFCURVE",
"435 116 CURVE",
"440 441 OFFCURVE",
"440 467 OFFCURVE",
"435 486 CURVE SMOOTH",
"421 548 OFFCURVE",
"373 575 OFFCURVE",
"275 575 CURVE SMOOTH",
"122 575 OFFCURVE",
"-4 362 OFFCURVE",
"42 154 CURVE SMOOTH",
"60 54 OFFCURVE",
"137 -13 OFFCURVE",
"236 -13 CURVE SMOOTH",
"284 -13 OFFCURVE",
"326 11 OFFCURVE",
"353 45 CURVE",
"354 45 OFFCURVE",
"356 48 OFFCURVE",
"358 49 CURVE",
"369 12 OFFCURVE",
"403 -13 OFFCURVE",
"446 -13 CURVE SMOOTH",
"493 -13 OFFCURVE",
"540 9 OFFCURVE",
"550 39 CURVE",
"504 107 LINE"
);
},
{
closed = 1;
nodes = (
"185 71 OFFCURVE",
"135 114 OFFCURVE",
"120 177 CURVE SMOOTH",
"91 322 OFFCURVE",
"182 491 OFFCURVE",
"269 491 CURVE SMOOTH",
"326 491 OFFCURVE",
"347 482 OFFCURVE",
"354 459 CURVE SMOOTH",
"356 444 OFFCURVE",
"355 352 OFFCURVE",
"359 229 CURVE",
"345 142 OFFCURVE",
"297 71 OFFCURVE",
"243 71 CURVE SMOOTH"
);
}
);
width = 545;
}
);
},
{
color = 4;
glyphname = ordfeminine;
lastChange = "2023-07-14 09:44:56 +0000";
layers = (
{
components = (
{
name = hyphen;
transform = "{1, 0, 0, 1, 5, -128}";
}
);
layerId = "7C079D0C-96CD-4BD8-8800-0621C7635A78";
paths = (
{
closed = 1;
nodes = (
"313 337 OFFCURVE",
"337 352 OFFCURVE",
"361 399 CURVE",
"368 358 OFFCURVE",
"385 345 OFFCURVE",
"432 345 CURVE",
"432 388 LINE",
"405 389 OFFCURVE",
"397 396 OFFCURVE",
"397 419 CURVE SMOOTH",
"397 605 LINE SMOOTH",
"397 707 OFFCURVE",
"364 740 OFFCURVE",
"258 740 CURVE SMOOTH",
"181 740 OFFCURVE",
"150 717 OFFCURVE",
"128 645 CURVE",
"173 637 LINE",
"187 684 OFFCURVE",
"208 698 OFFCURVE",
"258 698 CURVE SMOOTH",
"329 698 OFFCURVE",
"352 675 OFFCURVE",
"352 605 CURVE SMOOTH",
"352 559 LINE",
"258 559 LINE SMOOTH",
"152 559 OFFCURVE",
"118 534 OFFCURVE",
"118 453 CURVE SMOOTH",
"118 365 OFFCURVE",
"152 337 OFFCURVE",
"258 337 CURVE SMOOTH"
);
},
{
closed = 1;
nodes = (
"186 379 OFFCURVE",
"164 396 OFFCURVE",
"164 453 CURVE SMOOTH",
"164 507 OFFCURVE",
"186 525 OFFCURVE",
"258 525 CURVE SMOOTH",
"352 525 LINE",
"352 483 LINE SMOOTH",
"352 404 OFFCURVE",
"329 379 OFFCURVE",
"258 379 CURVE SMOOTH"
);
}
);
width = 545;
},
{
components = (
{
name = hyphen;
transform = "{1, 0, 0, 1, 5, -182}";
}
);
layerId = "291433DC-531A-45CC-B814-57D397372F12";
paths = (
{
closed = 1;
nodes = (
"309 295 OFFCURVE",
"333 305 OFFCURVE",
"363 332 CURVE",
"378 308 OFFCURVE",
"403 302 OFFCURVE",
"464 305 CURVE",
"464 386 LINE",
"437 389 OFFCURVE",
"429 392 OFFCURVE",
"429 398 CURVE SMOOTH",
"429 584 LINE SMOOTH",
"429 703 OFFCURVE",
"390 740 OFFCURVE",
"267 740 CURVE SMOOTH",
"171 740 OFFCURVE",
"133 708 OFFCURVE",
"109 607 CURVE",
"198 593 LINE",
"211 641 OFFCURVE",
"227 656 OFFCURVE",
"267 656 CURVE SMOOTH",
"321 656 OFFCURVE",
"338 639 OFFCURVE",
"338 584 CURVE SMOOTH",
"338 559 LINE",
"267 559 LINE SMOOTH",
"144 559 OFFCURVE",
"105 528 OFFCURVE",
"105 432 CURVE SMOOTH",
"105 328 OFFCURVE",
"144 295 OFFCURVE",
"267 295 CURVE SMOOTH"
);
},
{
closed = 1;
nodes = (
"213 379 OFFCURVE",
"195 392 OFFCURVE",
"195 432 CURVE SMOOTH",
"195 471 OFFCURVE",
"213 483 OFFCURVE",
"267 483 CURVE SMOOTH",
"338 483 LINE",
"338 453 LINE SMOOTH",
"338 396 OFFCURVE",
"321 379 OFFCURVE",
"267 379 CURVE SMOOTH"
);
}
);
width = 545;
}
);
unicode = 00AA;
},
{
color = 4;
glyphname = ordmasculine;
lastChange = "2023-07-14 09:44:56 +0000";
layers = (
{
components = (
{
name = hyphen;
transform = "{1, 0, 0, 1, 0, -128}";
}
);
layerId = "7C079D0C-96CD-4BD8-8800-0621C7635A78";
paths = (
{
closed = 1;
nodes = (
"386 337 OFFCURVE",
"423 385 OFFCURVE",
"423 539 CURVE SMOOTH",
"423 692 OFFCURVE",
"386 740 OFFCURVE",
"273 740 CURVE SMOOTH",
"159 740 OFFCURVE",
"123 692 OFFCURVE",
"123 539 CURVE SMOOTH",
"123 385 OFFCURVE",
"159 337 OFFCURVE",
"273 337 CURVE SMOOTH"
);
},
{
closed = 1;
nodes = (
"194 379 OFFCURVE",
"168 417 OFFCURVE",
"168 539 CURVE SMOOTH",
"168 660 OFFCURVE",
"194 698 OFFCURVE",
"273 698 CURVE SMOOTH",
"352 698 OFFCURVE",
"377 660 OFFCURVE",
"377 539 CURVE SMOOTH",
"377 417 OFFCURVE",
"352 379 OFFCURVE",
"273 379 CURVE SMOOTH"
);
}
);
width = 545;
},
{
components = (
{
name = hyphen;
transform = "{1, 0, 0, 1, 0, -182}";
}
);
layerId = "291433DC-531A-45CC-B814-57D397372F12";
paths = (
{
closed = 1;
nodes = (
"404 295 OFFCURVE",
"445 349 OFFCURVE",
"445 518 CURVE SMOOTH",
"445 686 OFFCURVE",
"404 740 OFFCURVE",
"273 740 CURVE SMOOTH",
"142 740 OFFCURVE",
"100 686 OFFCURVE",
"100 518 CURVE SMOOTH",
"100 349 OFFCURVE",
"142 295 OFFCURVE",
"273 295 CURVE SMOOTH"
);
},
{
closed = 1;
nodes = (
"211 379 OFFCURVE",
"191 413 OFFCURVE",
"191 518 CURVE SMOOTH",
"191 624 OFFCURVE",
"211 656 OFFCURVE",
"273 656 CURVE SMOOTH",
"335 656 OFFCURVE",
"355 624 OFFCURVE",
"355 518 CURVE SMOOTH",
"355 413 OFFCURVE",
"335 379 OFFCURVE",
"273 379 CURVE SMOOTH"
);
}
);
width = 545;
}
);
unicode = 00BA;
},
{
color = 4;
glyphname = ainferior;
lastChange = "2023-07-14 09:44:56 +0000";
layers = (
{
layerId = "7C079D0C-96CD-4BD8-8800-0621C7635A78";
paths = (
{
closed = 1;
nodes = (
"315 -58 OFFCURVE",
"339 -45 OFFCURVE",
"361 0 CURVE",
"368 -41 OFFCURVE",
"385 -54 OFFCURVE",
"432 -54 CURVE",
"432 -11 LINE",
"405 -10 OFFCURVE",
"397 -3 OFFCURVE",
"397 20 CURVE SMOOTH",
"397 209 LINE SMOOTH",
"397 312 OFFCURVE",
"364 345 OFFCURVE",
"258 345 CURVE SMOOTH",
"181 345 OFFCURVE",
"150 322 OFFCURVE",
"128 249 CURVE",
"173 242 LINE",
"187 288 OFFCURVE",
"208 303 OFFCURVE",
"258 303 CURVE SMOOTH",
"329 303 OFFCURVE",
"352 280 OFFCURVE",
"352 209 CURVE SMOOTH",
"352 164 LINE",
"258 164 LINE SMOOTH",
"152 164 OFFCURVE",
"118 138 OFFCURVE",
"118 57 CURVE SMOOTH",
"118 -31 OFFCURVE",
"152 -58 OFFCURVE",
"258 -58 CURVE SMOOTH"
);
},
{
closed = 1;
nodes = (
"186 -16 OFFCURVE",
"164 1 OFFCURVE",
"164 57 CURVE SMOOTH",
"164 112 OFFCURVE",
"186 129 OFFCURVE",
"258 129 CURVE SMOOTH",
"352 129 LINE",
"352 87 LINE SMOOTH",
"352 8 OFFCURVE",
"329 -16 OFFCURVE",
"258 -16 CURVE SMOOTH"
);
}
);
width = 545;
},
{
layerId = "291433DC-531A-45CC-B814-57D397372F12";
paths = (
{
closed = 1;
nodes = (
"314 -58 OFFCURVE",
"336 -51 OFFCURVE",
"363 -26 CURVE",
"376 -47 OFFCURVE",
"401 -54 OFFCURVE",
"464 -54 CURVE",
"464 29 LINE",
"437 32 OFFCURVE",
"429 35 OFFCURVE",
"429 41 CURVE SMOOTH",
"429 230 LINE SMOOTH",
"429 349 OFFCURVE",
"390 386 OFFCURVE",
"267 386 CURVE SMOOTH",
"171 386 OFFCURVE",
"133 355 OFFCURVE",
"109 254 CURVE",
"198 239 LINE",
"211 287 OFFCURVE",
"227 303 OFFCURVE",
"267 303 CURVE SMOOTH",
"321 303 OFFCURVE",
"338 285 OFFCURVE",
"338 230 CURVE SMOOTH",
"338 205 LINE",
"267 205 LINE SMOOTH",
"144 205 OFFCURVE",
"105 175 OFFCURVE",
"105 78 CURVE SMOOTH",
"105 -25 OFFCURVE",
"144 -58 OFFCURVE",
"267 -58 CURVE SMOOTH"
);
},
{
closed = 1;
nodes = (
"213 25 OFFCURVE",
"195 38 OFFCURVE",
"195 78 CURVE SMOOTH",
"195 117 OFFCURVE",
"213 129 OFFCURVE",
"267 129 CURVE SMOOTH",
"338 129 LINE",
"338 99 LINE SMOOTH",
"338 43 OFFCURVE",
"321 25 OFFCURVE",
"267 25 CURVE SMOOTH"
);
}
);
width = 545;
}
);
unicode = 2090;
},
{
color = 4;
glyphname = einferior;
lastChange = "2023-07-14 09:44:56 +0000";
layers = (
{
layerId = "7C079D0C-96CD-4BD8-8800-0621C7635A78";
paths = (
{
closed = 1;
nodes = (
"356 -58 OFFCURVE",
"387 -38 OFFCURVE",
"416 24 CURVE",
"380 48 LINE",
"358 -1 OFFCURVE",
"335 -16 OFFCURVE",
"285 -16 CURVE SMOOTH",
"200 -16 OFFCURVE",
"174 22 OFFCURVE",
"174 142 CURVE SMOOTH",
"174 265 OFFCURVE",
"200 303 OFFCURVE",
"285 303 CURVE SMOOTH",
"347 303 OFFCURVE",
"370 272 OFFCURVE",
"380 175 CURVE",
"155 175 LINE",
"155 133 LINE",
"426 133 LINE",
"426 294 OFFCURVE",
"393 345 OFFCURVE",
"285 345 CURVE SMOOTH",
"165 345 OFFCURVE",
"128 294 OFFCURVE",
"128 134 CURVE SMOOTH",
"128 -12 OFFCURVE",
"165 -58 OFFCURVE",
"285 -58 CURVE SMOOTH"
);
}
);
width = 545;
},
{
layerId = "291433DC-531A-45CC-B814-57D397372F12";
paths = (
{
closed = 1;
nodes = (
"374 -58 OFFCURVE",
"412 -34 OFFCURVE",
"444 43 CURVE",
"370 93 LINE",
"348 42 OFFCURVE",
"328 25 OFFCURVE",
"285 25 CURVE SMOOTH",
"217 25 OFFCURVE",
"196 59 OFFCURVE",
"196 165 CURVE SMOOTH",
"196 270 OFFCURVE",
"217 303 OFFCURVE",
"285 303 CURVE SMOOTH",
"328 303 OFFCURVE",
"345 283 OFFCURVE",
"355 219 CURVE",
"132 219 LINE",
"132 135 LINE",
"449 135 LINE",
"449 326 OFFCURVE",
"414 386 OFFCURVE",
"285 386 CURVE SMOOTH",
"148 386 OFFCURVE",
"105 332 OFFCURVE",
"105 157 CURVE SMOOTH",
"105 -6 OFFCURVE",
"148 -58 OFFCURVE",
"285 -58 CURVE SMOOTH"
);
}
);
width = 545;
}
);
unicode = 2091;
},
{
color = 4;
glyphname = imod;
lastChange = "2023-07-14 09:44:56 +0000";
layers = (
{
layerId = "7C079D0C-96CD-4BD8-8800-0621C7635A78";
paths = (
{
closed = 1;
nodes = (
"319 258 LINE",
"319 644 LINE",
"197 644 LINE",
"197 602 LINE",
"302 602 LINE",
"274 630 LINE",
"274 258 LINE"
);
},
{
closed = 1;
nodes = (
"424 258 LINE",
"424 300 LINE",
"169 300 LINE",
"169 258 LINE"
);
},
{
closed = 1;
nodes = (
"310 723 OFFCURVE",
"319 731 OFFCURVE",
"319 758 CURVE SMOOTH",
"319 784 OFFCURVE",
"310 792 OFFCURVE",
"282 792 CURVE SMOOTH",
"254 792 OFFCURVE",
"245 784 OFFCURVE",
"245 758 CURVE SMOOTH",
"245 731 OFFCURVE",
"254 723 OFFCURVE",
"282 723 CURVE SMOOTH"
);
}
);
width = 545;
},
{
layerId = "291433DC-531A-45CC-B814-57D397372F12";
paths = (
{
closed = 1;
nodes = (
"342 207 LINE",
"342 635 LINE",
"175 635 LINE",
"175 551 LINE",
"308 551 LINE",
"251 608 LINE",
"251 207 LINE"
);
},
{
closed = 1;
nodes = (
"446 207 LINE",
"446 291 LINE",
"146 291 LINE",
"146 207 LINE"
);
},
{
closed = 1;
nodes = (
"328 705 OFFCURVE",
"345 719 OFFCURVE",
"345 755 CURVE SMOOTH",
"345 790 OFFCURVE",
"328 805 OFFCURVE",
"291 805 CURVE SMOOTH",
"254 805 OFFCURVE",
"237 790 OFFCURVE",
"237 755 CURVE SMOOTH",
"237 719 OFFCURVE",
"254 705 OFFCURVE",
"291 705 CURVE SMOOTH"
);
}
);
width = 545;
}
);
unicode = 2071;
},
{
color = 4;
glyphname = nmod;
lastChange = "2023-07-14 09:44:56 +0000";
layers = (
{
layerId = "7C079D0C-96CD-4BD8-8800-0621C7635A78";
paths = (
{
closed = 1;
nodes = (
"171 258 LINE",
"171 485 LINE SMOOTH",
"171 584 OFFCURVE",
"199 615 OFFCURVE",
"289 615 CURVE SMOOTH",
"355 615 OFFCURVE",
"375 576 OFFCURVE",
"375 457 CURVE SMOOTH",
"375 258 LINE",
"421 258 LINE",
"421 457 LINE SMOOTH",
"421 608 OFFCURVE",
"389 656 OFFCURVE",
"289 656 CURVE SMOOTH",
"226 656 OFFCURVE",
"198 644 OFFCURVE",
"171 604 CURVE",
"171 652 LINE",
"125 652 LINE",
"125 258 LINE"
);
}
);
width = 545;
},
{
layerId = "291433DC-531A-45CC-B814-57D397372F12";
paths = (
{
closed = 1;
nodes = (
"194 207 LINE",
"194 437 LINE SMOOTH",
"194 534 OFFCURVE",
"216 564 OFFCURVE",
"289 564 CURVE SMOOTH",
"337 564 OFFCURVE",
"353 531 OFFCURVE",
"353 427 CURVE SMOOTH",
"353 207 LINE",
"444 207 LINE",
"444 427 LINE SMOOTH",
"444 595 OFFCURVE",
"406 647 OFFCURVE",
"289 647 CURVE SMOOTH",
"260 647 OFFCURVE",
"237 638 OFFCURVE",
"194 611 CURVE",
"194 643 LINE",
"103 643 LINE",
"103 207 LINE"
);
}
);
width = 545;
}
);
unicode = 207F;
},
{
color = 4;
glyphname = oinferior;
lastChange = "2023-07-14 09:44:56 +0000";
layers = (
{
layerId = "7C079D0C-96CD-4BD8-8800-0621C7635A78";
paths = (
{
closed = 1;
nodes = (
"386 -58 OFFCURVE",
"423 -10 OFFCURVE",
"423 144 CURVE SMOOTH",
"423 296 OFFCURVE",
"386 345 OFFCURVE",
"273 345 CURVE SMOOTH",
"159 345 OFFCURVE",
"123 296 OFFCURVE",
"123 144 CURVE SMOOTH",
"123 -10 OFFCURVE",
"159 -58 OFFCURVE",
"273 -58 CURVE SMOOTH"
);
},
{
closed = 1;
nodes = (
"194 -16 OFFCURVE",
"168 22 OFFCURVE",
"168 144 CURVE SMOOTH",
"168 265 OFFCURVE",
"194 303 OFFCURVE",
"273 303 CURVE SMOOTH",
"352 303 OFFCURVE",
"377 265 OFFCURVE",
"377 144 CURVE SMOOTH",
"377 22 OFFCURVE",
"352 -16 OFFCURVE",
"273 -16 CURVE SMOOTH"
);
}
);
width = 545;
},
{
layerId = "291433DC-531A-45CC-B814-57D397372F12";
paths = (
{
closed = 1;
nodes = (
"404 -58 OFFCURVE",
"445 -5 OFFCURVE",
"445 165 CURVE SMOOTH",
"445 333 OFFCURVE",
"404 386 OFFCURVE",
"273 386 CURVE SMOOTH",
"142 386 OFFCURVE",
"100 333 OFFCURVE",
"100 165 CURVE SMOOTH",
"100 -5 OFFCURVE",
"142 -58 OFFCURVE",
"273 -58 CURVE SMOOTH"
);
},
{
closed = 1;
nodes = (
"211 25 OFFCURVE",
"191 59 OFFCURVE",
"191 165 CURVE SMOOTH",
"191 270 OFFCURVE",
"211 303 OFFCURVE",
"273 303 CURVE SMOOTH",
"335 303 OFFCURVE",
"355 270 OFFCURVE",
"355 165 CURVE SMOOTH",
"355 59 OFFCURVE",
"335 25 OFFCURVE",
"273 25 CURVE SMOOTH"
);
}
);
width = 545;
}
);
unicode = 2092;
},
{
color = 4;
glyphname = schwainferior;
lastChange = "2023-07-14 09:44:56 +0000";
layers = (
{
layerId = "7C079D0C-96CD-4BD8-8800-0621C7635A78";
paths = (
{
closed = 1;
nodes = (
"189 345 OFFCURVE",
"158 325 OFFCURVE",
"129 263 CURVE",
"165 238 LINE",
"187 287 OFFCURVE",
"211 303 OFFCURVE",
"261 303 CURVE SMOOTH",
"345 303 OFFCURVE",
"372 265 OFFCURVE",
"372 145 CURVE SMOOTH",
"372 22 OFFCURVE",
"345 -16 OFFCURVE",
"261 -16 CURVE SMOOTH",
"198 -16 OFFCURVE",
"175 15 OFFCURVE",
"165 112 CURVE",
"391 112 LINE",
"391 154 LINE",
"119 154 LINE",
"119 -7 OFFCURVE",
"153 -58 OFFCURVE",
"261 -58 CURVE SMOOTH",
"380 -58 OFFCURVE",
"417 -7 OFFCURVE",
"417 153 CURVE SMOOTH",
"417 298 OFFCURVE",
"380 345 OFFCURVE",
"261 345 CURVE SMOOTH"
);
}
);
width = 545;
},
{
layerId = "291433DC-531A-45CC-B814-57D397372F12";
paths = (
{
closed = 1;
nodes = (
"172 386 OFFCURVE",
"134 362 OFFCURVE",
"102 285 CURVE",
"175 235 LINE",
"197 286 OFFCURVE",
"217 303 OFFCURVE",
"261 303 CURVE SMOOTH",
"328 303 OFFCURVE",
"349 269 OFFCURVE",
"349 163 CURVE SMOOTH",
"349 58 OFFCURVE",
"328 25 OFFCURVE",
"261 25 CURVE SMOOTH",
"217 25 OFFCURVE",
"200 45 OFFCURVE",
"191 109 CURVE",
"414 109 LINE",
"414 193 LINE",
"96 193 LINE",
"96 2 OFFCURVE",
"132 -58 OFFCURVE",
"261 -58 CURVE SMOOTH",
"397 -58 OFFCURVE",
"440 -4 OFFCURVE",
"440 171 CURVE SMOOTH",
"440 335 OFFCURVE",
"397 386 OFFCURVE",
"261 386 CURVE SMOOTH"
);
}
);
width = 545;
}
);
unicode = 2094;
},
{
color = 4;
glyphname = xinferior;
lastChange = "2023-07-14 09:44:56 +0000";
layers = (
{
layerId = "7C079D0C-96CD-4BD8-8800-0621C7635A78";
paths = (
{
closed = 1;
nodes = (
"371 340 LINE",
"423 340 LINE",
"175 -54 LINE",
"123 -54 LINE"
);
},
{
closed = 1;
nodes = (
"123 340 LINE",
"175 340 LINE",
"423 -54 LINE",
"371 -54 LINE"
);
}
);
width = 545;
},
{
layerId = "291433DC-531A-45CC-B814-57D397372F12";
paths = (
{
closed = 1;
nodes = (
"357 382 LINE",
"461 382 LINE",
"188 -54 LINE",
"85 -54 LINE"
);
},
{
closed = 1;
nodes = (
"85 382 LINE",
"188 382 LINE",
"461 -54 LINE",
"357 -54 LINE"
);
}
);
width = 545;
}
);
unicode = 2093;
},
{
color = 4;
glyphname = "Yn-cy";
lastChange = "2023-07-14 09:44:56 +0000";
layers = (
{
layerId = "7C079D0C-96CD-4BD8-8800-0621C7635A78";
paths = (
{
closed = 1;
nodes = (
"295 -165 LINE",
"295 727 LINE",
"250 727 LINE",
"250 -165 LINE"
);
},
{
closed = 1;
nodes = (
"273 685 LINE",
"459 240 LINE",
"506 240 LINE",
"298 727 LINE",
"247 727 LINE",
"39 240 LINE",
"86 240 LINE"
);
}
);
width = 545;
},
{
layerId = "291433DC-531A-45CC-B814-57D397372F12";
paths = (
{
closed = 1;
nodes = (
"318 -165 LINE",
"318 727 LINE",
"227 727 LINE",
"227 -165 LINE"
);
},
{
closed = 1;
nodes = (
"273 637 LINE",
"435 219 LINE",
"530 219 LINE",
"318 727 LINE",
"227 727 LINE",
"15 219 LINE",
"110 219 LINE"
);
}
);
width = 545;
}
);
unicode = A65E;
},
{
color = 4;
glyphname = "Be-cy";
lastChange = "2023-07-14 09:44:56 +0000";
layers = (
{
layerId = "7C079D0C-96CD-4BD8-8800-0621C7635A78";
paths = (
{
closed = 1;
nodes = (
"281 0 LINE SMOOTH",
"429 0 OFFCURVE",
"476 54 OFFCURVE",
"476 225 CURVE SMOOTH",
"476 394 OFFCURVE",
"429 447 OFFCURVE",
"281 447 CURVE SMOOTH",
"131 447 LINE",
"131 685 LINE",
"404 685 LINE",
"404 727 LINE",
"85 727 LINE",
"85 0 LINE"
);
},
{
closed = 1;
nodes = (
"131 405 LINE",
"281 405 LINE SMOOTH",
"395 405 OFFCURVE",
"431 362 OFFCURVE",
"431 225 CURVE SMOOTH",
"431 85 OFFCURVE",
"395 42 OFFCURVE",
"281 42 CURVE SMOOTH",
"131 42 LINE"
);
}
);
width = 545;
},
{
layerId = "291433DC-531A-45CC-B814-57D397372F12";
paths = (
{
closed = 1;
nodes = (
"281 0 LINE SMOOTH",
"446 0 OFFCURVE",
"499 56 OFFCURVE",
"499 236 CURVE SMOOTH",
"499 415 OFFCURVE",
"446 471 OFFCURVE",
"281 471 CURVE SMOOTH",
"154 471 LINE",
"154 644 LINE",
"426 644 LINE",
"426 727 LINE",
"63 727 LINE",
"63 0 LINE"
);
},
{
closed = 1;
nodes = (
"154 387 LINE",
"281 387 LINE SMOOTH",
"377 387 OFFCURVE",
"408 351 OFFCURVE",
"408 236 CURVE SMOOTH",
"408 120 OFFCURVE",
"377 84 OFFCURVE",
"281 84 CURVE SMOOTH",
"154 84 LINE"
);
}
);
width = 545;
}
);
unicode = 0411;
},
{
color = 4;
glyphname = "Ge-cy";
lastChange = "2023-07-14 09:44:56 +0000";
layers = (
{
anchors = (
{
name = bottom;
position = "{162, 0}";
},
{
name = top;
position = "{273, 727}";
}
);
layerId = "7C079D0C-96CD-4BD8-8800-0621C7635A78";
paths = (
{
closed = 1;
nodes = (
"139 0 LINE",
"139 714 LINE",
"111 685 LINE",
"479 685 LINE",
"479 727 LINE",
"94 727 LINE",
"94 0 LINE"
);
}
);
width = 545;
},
{
anchors = (
{
name = bottom;
position = "{207, 0}";
},
{
name = top;
position = "{273, 727}";
}
);
layerId = "291433DC-531A-45CC-B814-57D397372F12";
paths = (
{
closed = 1;
nodes = (
"162 0 LINE",
"162 710 LINE",
"95 644 LINE",
"502 644 LINE",
"502 727 LINE",
"71 727 LINE",
"71 0 LINE"
);
}
);
width = 545;
}
);
unicode = 0413;
},
{
color = 4;
glyphname = "Gheupturn-cy";
lastChange = "2023-07-14 09:44:56 +0000";
layers = (
{
components = (
{
name = "Ge-cy";
}
);
layerId = "7C079D0C-96CD-4BD8-8800-0621C7635A78";
paths = (
{
closed = 1;
nodes = (
"479 841 LINE",
"479 727 LINE",
"434 727 LINE",
"434 841 LINE"
);
}
);
width = 545;
},
{
components = (
{
name = "Ge-cy";
}
);
layerId = "291433DC-531A-45CC-B814-57D397372F12";
paths = (
{
closed = 1;
nodes = (
"502 859 LINE",
"502 727 LINE",
"411 727 LINE",
"411 859 LINE"
);
}
);
width = 545;
}
);
unicode = 0490;
},
{
color = 4;
glyphname = "De-cy";
lastChange = "2023-07-14 09:44:56 +0000";
layers = (
{
layerId = "7C079D0C-96CD-4BD8-8800-0621C7635A78";
paths = (
{
closed = 1;
nodes = (
"121 42 LINE",
"188 105 OFFCURVE",
"220 313 OFFCURVE",
"241 685 CURVE",
"424 685 LINE",
"424 42 LINE",
"469 42 LINE",
"469 727 LINE",
"200 727 LINE",
"175 313 OFFCURVE",
"152 105 OFFCURVE",
"59 42 CURVE"
);
},
{
closed = 1;
nodes = (
"76 -80 LINE",
"76 0 LINE",
"469 0 LINE",
"469 -80 LINE",
"515 -80 LINE",
"515 42 LINE",
"31 42 LINE",
"31 -80 LINE"
);
}
);
width = 545;
},
{
layerId = "291433DC-531A-45CC-B814-57D397372F12";
paths = (
{
closed = 1;
nodes = (
"181 84 LINE",
"245 143 OFFCURVE",
"254 238 OFFCURVE",
"277 644 CURVE",
"386 644 LINE",
"386 84 LINE",
"477 84 LINE",
"477 727 LINE",
"193 727 LINE",
"165 242 OFFCURVE",
"158 144 OFFCURVE",
"51 84 CURVE"
);
},
{
closed = 1;
nodes = (
"114 -80 LINE",
"114 0 LINE",
"432 0 LINE",
"432 -80 LINE",
"523 -80 LINE",
"523 84 LINE",
"23 84 LINE",
"23 -80 LINE"
);
}
);
width = 545;
}
);
unicode = 0414;
},
{
color = 4;
glyphname = "Zhe-cy";
lastChange = "2023-07-14 09:44:56 +0000";
layers = (
{
anchors = (
{
name = bottomright;
position = "{527, 0}";
},
{
name = top;
position = "{273, 727}";
}
);
layerId = "7C079D0C-96CD-4BD8-8800-0621C7635A78";
paths = (
{
closed = 1;
nodes = (
"345 364 LINE",
"545 727 LINE",
"495 727 LINE",
"295 364 LINE"
);
},
{
closed = 1;
nodes = (
"50 0 LINE",
"250 364 LINE",
"200 364 LINE",
"0 0 LINE"
);
},
{
closed = 1;
nodes = (
"545 0 LINE",
"345 364 LINE",
"295 364 LINE",
"495 0 LINE"
);
},
{
closed = 1;
nodes = (
"295 0 LINE",
"295 727 LINE",
"250 727 LINE",
"250 0 LINE"
);
},
{
closed = 1;
nodes = (
"250 364 LINE",
"50 727 LINE",
"0 727 LINE",
"200 364 LINE"
);
}
);
width = 545;
},
{
anchors = (
{
name = bottomright;
position = "{500, 0}";
},
{
name = top;
position = "{273, 727}";
}
);
layerId = "291433DC-531A-45CC-B814-57D397372F12";
paths = (
{
closed = 1;
nodes = (
"419 364 LINE",
"545 727 LINE",
"445 727 LINE",
"318 364 LINE"
);
},
{
closed = 1;
nodes = (
"101 0 LINE",
"227 364 LINE",
"126 364 LINE",
"0 0 LINE"
);
},
{
closed = 1;
nodes = (
"545 0 LINE",
"419 364 LINE",
"318 364 LINE",
"445 0 LINE"
);
},
{
closed = 1;
nodes = (
"318 0 LINE",
"318 727 LINE",
"227 727 LINE",
"227 0 LINE"
);
},
{
closed = 1;
nodes = (
"227 364 LINE",
"101 727 LINE",
"0 727 LINE",
"126 364 LINE"
);
}
);
width = 545;
}
);
unicode = 0416;
},
{
color = 4;
glyphname = "Ii-cy";
lastChange = "2023-07-14 09:44:56 +0000";
layers = (
{
anchors = (
{
name = bottom;
position = "{273, -3}";
},
{
name = bottomright;
position = "{527, 0}";
},
{
name = top;
position = "{273, 727}";
}
);
layerId = "7C079D0C-96CD-4BD8-8800-0621C7635A78";
paths = (
{
closed = 1;
nodes = (
"127 0 LINE",
"467 727 LINE",
"422 727 LINE",
"422 0 LINE",
"467 0 LINE",
"467 727 LINE",
"418 727 LINE",
"78 0 LINE",
"124 0 LINE",
"124 727 LINE",
"78 727 LINE",
"78 0 LINE"
);
}
);
width = 545;
},
{
anchors = (
{
name = bottom;
position = "{273, -3}";
},
{
name = bottomright;
position = "{527, 0}";
},
{
name = top;
position = "{273, 727}";
}
);
layerId = "291433DC-531A-45CC-B814-57D397372F12";
paths = (
{
closed = 1;
nodes = (
"153 0 LINE",
"490 727 LINE",
"399 727 LINE",
"399 0 LINE",
"490 0 LINE",
"490 727 LINE",
"393 727 LINE",
"55 0 LINE",
"146 0 LINE",
"146 727 LINE",
"55 727 LINE",
"55 0 LINE"
);
}
);
width = 545;
}
);
unicode = 0418;
},
{
color = 4;
glyphname = "Ka-cy";
lastChange = "2023-07-14 09:44:56 +0000";
layers = (
{
anchors = (
{
name = bottomright;
position = "{489, 0}";
},
{
name = top;
position = "{273, 727}";
}
);
layerId = "7C079D0C-96CD-4BD8-8800-0621C7635A78";
paths = (
{
closed = 1;
nodes = (
"205 364 LINE",
"385 364 OFFCURVE",
"344 623 OFFCURVE",
"503 727 CURVE",
"438 727 LINE",
"307 623 OFFCURVE",
"347 405 OFFCURVE",
"184 405 CURVE",
"102 405 LINE",
"102 364 LINE"
);
},
{
closed = 1;
nodes = (
"127 0 LINE",
"127 727 LINE",
"82 727 LINE",
"82 0 LINE"
);
},
{
closed = 1;
nodes = (
"507 0 LINE",
"231 394 LINE",
"185 382 LINE",
"453 0 LINE"
);
}
);
width = 545;
},
{
anchors = (
{
name = bottomright;
position = "{455, 0}";
},
{
name = top;
position = "{273, 727}";
}
);
layerId = "291433DC-531A-45CC-B814-57D397372F12";
paths = (
{
closed = 1;
nodes = (
"160 343 LINE SMOOTH",
"356 343 OFFCURVE",
"355 615 OFFCURVE",
"527 727 CURVE",
"400 727 LINE",
"305 684 OFFCURVE",
"285 426 OFFCURVE",
"136 426 CURVE SMOOTH",
"51 426 LINE",
"51 343 LINE"
);
},
{
closed = 1;
nodes = (
"122 0 LINE",
"122 727 LINE",
"31 727 LINE",
"31 0 LINE"
);
},
{
closed = 1;
nodes = (
"503 0 LINE",
"195 418 LINE",
"104 395 LINE",
"394 0 LINE"
);
}
);
width = 545;
}
);
unicode = 041A;
},
{
color = 4;
glyphname = "El-cy";
lastChange = "2023-07-14 09:44:56 +0000";
layers = (
{
anchors = (
{
name = bottom;
position = "{496, 0}";
}
);
layerId = "7C079D0C-96CD-4BD8-8800-0621C7635A78";
paths = (
{
closed = 1;
nodes = (
"491 0 LINE",
"491 727 LINE",
"215 727 LINE",
"215 685 LINE",
"445 685 LINE",
"445 0 LINE"
);
},
{
closed = 1;
nodes = (
"199 0 OFFCURVE",
"208 152 OFFCURVE",
"240 727 CURVE",
"195 727 LINE",
"166 191 OFFCURVE",
"154 42 OFFCURVE",
"45 42 CURVE",
"45 0 LINE"
);
}
);
width = 545;
},
{
anchors = (
{
name = bottom;
position = "{527, 0}";
}
);
layerId = "291433DC-531A-45CC-B814-57D397372F12";
paths = (
{
closed = 1;
nodes = (
"500 0 LINE",
"500 727 LINE",
"205 727 LINE",
"205 644 LINE",
"409 644 LINE",
"409 0 LINE"
);
},
{
closed = 1;
nodes = (
"235 0 OFFCURVE",
"244 130 OFFCURVE",
"277 727 CURVE",
"186 727 LINE",
"162 150 OFFCURVE",
"130 85 OFFCURVE",
"36 85 CURVE",
"36 0 LINE"
);
}
);
width = 545;
}
);
unicode = 041B;
},
{
color = 4;
glyphname = "Pe-cy";
lastChange = "2023-07-14 09:44:56 +0000";
layers = (
{
anchors = (
{
name = bottomright;
position = "{482, 0}";
}
);
layerId = "7C079D0C-96CD-4BD8-8800-0621C7635A78";
paths = (
{
closed = 1;
nodes = (
"109 0 LINE",
"109 685 LINE",
"436 685 LINE",
"436 0 LINE",
"482 0 LINE",
"482 727 LINE",
"64 727 LINE",
"64 0 LINE"
);
}
);
width = 545;
},
{
anchors = (
{
name = bottomright;
position = "{495, 0}";
}
);
layerId = "291433DC-531A-45CC-B814-57D397372F12";
paths = (
{
closed = 1;
nodes = (
"141 0 LINE",
"141 644 LINE",
"405 644 LINE",
"405 0 LINE",
"495 0 LINE",
"495 727 LINE",
"50 727 LINE",
"50 0 LINE"
);
}
);
width = 545;
}
);
unicode = 041F;
},
{
color = 4;
glyphname = "U-cy";
lastChange = "2023-07-14 09:44:56 +0000";
layers = (
{
anchors = (
{
name = bottom;
position = "{293, -3}";
},
{
name = top;
position = "{291, 727}";
}
);
layerId = "7C079D0C-96CD-4BD8-8800-0621C7635A78";
paths = (
{
closed = 1;
nodes = (
"261 -13 OFFCURVE",
"316 29 OFFCURVE",
"354 163 CURVE SMOOTH",
"513 727 LINE",
"466 727 LINE",
"314 184 LINE SMOOTH",
"278 56 OFFCURVE",
"245 29 OFFCURVE",
"156 29 CURVE SMOOTH",
"135 29 OFFCURVE",
"119 34 OFFCURVE",
"93 48 CURVE",
"75 10 LINE",
"102 -7 OFFCURVE",
"122 -13 OFFCURVE",
"156 -13 CURVE SMOOTH"
);
},
{
closed = 1;
nodes = (
"305 101 LINE",
"97 727 LINE",
"50 727 LINE",
"273 55 LINE"
);
}
);
width = 545;
},
{
anchors = (
{
name = bottom;
position = "{293, -3}";
},
{
name = top;
position = "{291, 727}";
}
);
layerId = "291433DC-531A-45CC-B814-57D397372F12";
paths = (
{
closed = 1;
nodes = (
"276 -13 OFFCURVE",
"338 40 OFFCURVE",
"375 178 CURVE SMOOTH",
"524 727 LINE",
"431 727 LINE",
"292 210 LINE SMOOTH",
"260 93 OFFCURVE",
"235 71 OFFCURVE",
"156 71 CURVE SMOOTH",
"134 71 OFFCURVE",
"123 76 OFFCURVE",
"83 100 CURVE",
"46 24 LINE",
"84 -3 OFFCURVE",
"111 -13 OFFCURVE",
"156 -13 CURVE SMOOTH"
);
},
{
closed = 1;
nodes = (
"319 145 LINE",
"131 727 LINE",
"37 727 LINE",
"259 41 LINE"
);
}
);
width = 545;
}
);
unicode = 0423;
},
{
color = 4;
glyphname = "Ef-cy";
lastChange = "2023-07-14 09:44:56 +0000";
layers = (
{
layerId = "7C079D0C-96CD-4BD8-8800-0621C7635A78";
paths = (
{
closed = 1;
nodes = (
"472 89 OFFCURVE",
"535 155 OFFCURVE",
"535 365 CURVE SMOOTH",
"535 574 OFFCURVE",
"472 639 OFFCURVE",
"274 639 CURVE SMOOTH",
"74 639 OFFCURVE",
"11 574 OFFCURVE",
"11 365 CURVE SMOOTH",
"11 155 OFFCURVE",
"74 89 OFFCURVE",
"274 89 CURVE SMOOTH"
);
},
{
closed = 1;
nodes = (
"108 131 OFFCURVE",
"56 187 OFFCURVE",
"56 365 CURVE SMOOTH",
"56 542 OFFCURVE",
"108 597 OFFCURVE",
"274 597 CURVE SMOOTH",
"437 597 OFFCURVE",
"489 542 OFFCURVE",
"489 365 CURVE SMOOTH",
"489 187 OFFCURVE",
"437 131 OFFCURVE",
"274 131 CURVE SMOOTH"
);
},
{
closed = 1;
nodes = (
"295 0 LINE",
"295 727 LINE",
"250 727 LINE",
"250 0 LINE"
);
}
);
width = 545;
},
{
layerId = "291433DC-531A-45CC-B814-57D397372F12";
paths = (
{
closed = 1;
nodes = (
"474 77 OFFCURVE",
"536 146 OFFCURVE",
"536 365 CURVE SMOOTH",
"536 582 OFFCURVE",
"474 651 OFFCURVE",
"274 651 CURVE SMOOTH",
"73 651 OFFCURVE",
"9 582 OFFCURVE",
"9 365 CURVE SMOOTH",
"9 146 OFFCURVE",
"73 77 OFFCURVE",
"274 77 CURVE SMOOTH"
);
},
{
closed = 1;
nodes = (
"142 161 OFFCURVE",
"100 210 OFFCURVE",
"100 365 CURVE SMOOTH",
"100 518 OFFCURVE",
"142 567 OFFCURVE",
"274 567 CURVE SMOOTH",
"405 567 OFFCURVE",
"445 518 OFFCURVE",
"445 365 CURVE SMOOTH",
"445 210 OFFCURVE",
"405 161 OFFCURVE",
"274 161 CURVE SMOOTH"
);
},
{
closed = 1;
nodes = (
"318 0 LINE",
"318 727 LINE",
"227 727 LINE",
"227 0 LINE"
);
}
);
width = 545;
}
);
unicode = 0424;
},
{
color = 4;
glyphname = "Che-cy";
lastChange = "2023-07-14 09:44:56 +0000";
layers = (
{
anchors = (
{
name = bottom;
position = "{474, 0}";
},
{
name = bottomright;
position = "{527, 0}";
},
{
name = top;
position = "{273, 727}";
}
);
layerId = "7C079D0C-96CD-4BD8-8800-0621C7635A78";
paths = (
{
closed = 1;
nodes = (
"451 0 LINE",
"451 727 LINE",
"405 727 LINE",
"405 478 LINE SMOOTH",
"405 353 OFFCURVE",
"372 322 OFFCURVE",
"264 322 CURVE SMOOTH",
"155 322 OFFCURVE",
"121 368 OFFCURVE",
"121 515 CURVE SMOOTH",
"121 727 LINE",
"75 727 LINE",
"75 515 LINE SMOOTH",
"75 336 OFFCURVE",
"121 280 OFFCURVE",
"264 280 CURVE SMOOTH",
"334 280 OFFCURVE",
"385 297 OFFCURVE",
"405 353 CURVE",
"405 0 LINE"
);
}
);
width = 545;
},
{
anchors = (
{
name = bottom;
position = "{519, 0}";
},
{
name = bottomright;
position = "{527, 0}";
},
{
name = top;
position = "{273, 727}";
}
);
layerId = "291433DC-531A-45CC-B814-57D397372F12";
paths = (
{
closed = 1;
nodes = (
"474 0 LINE",
"474 727 LINE",
"383 727 LINE",
"383 485 LINE SMOOTH",
"383 364 OFFCURVE",
"361 340 OFFCURVE",
"264 340 CURVE SMOOTH",
"173 340 OFFCURVE",
"144 384 OFFCURVE",
"144 524 CURVE SMOOTH",
"144 727 LINE",
"53 727 LINE",
"53 524 LINE SMOOTH",
"53 321 OFFCURVE",
"104 256 OFFCURVE",
"264 256 CURVE SMOOTH",
"315 256 OFFCURVE",
"355 265 OFFCURVE",
"383 285 CURVE",
"383 0 LINE"
);
}
);
width = 545;
}
);
unicode = 0427;
},
{
color = 4;
glyphname = "Sha-cy";
lastChange = "2023-07-14 09:44:56 +0000";
layers = (
{
layerId = "7C079D0C-96CD-4BD8-8800-0621C7635A78";
paths = (
{
closed = 1;
nodes = (
"505 0 LINE",
"505 727 LINE",
"459 727 LINE",
"459 42 LINE",
"295 42 LINE",
"295 727 LINE",
"250 727 LINE",
"250 42 LINE",
"86 42 LINE",
"86 727 LINE",
"41 727 LINE",
"41 0 LINE"
);
}
);
width = 545;
},
{
layerId = "291433DC-531A-45CC-B814-57D397372F12";
paths = (
{
closed = 1;
nodes = (
"518 0 LINE",
"518 727 LINE",
"427 727 LINE",
"427 84 LINE",
"318 84 LINE",
"318 727 LINE",
"227 727 LINE",
"227 84 LINE",
"118 84 LINE",
"118 727 LINE",
"27 727 LINE",
"27 0 LINE"
);
}
);
width = 545;
}
);
unicode = 0428;
},
{
color = 4;
glyphname = "Shcha-cy";
lastChange = "2023-07-14 09:44:56 +0000";
layers = (
{
layerId = "7C079D0C-96CD-4BD8-8800-0621C7635A78";
paths = (
{
closed = 1;
nodes = (
"473 0 LINE",
"473 727 LINE",
"427 727 LINE",
"427 42 LINE",
"273 42 LINE",
"273 727 LINE",
"227 727 LINE",
"227 42 LINE",
"73 42 LINE",
"73 727 LINE",
"27 727 LINE",
"27 0 LINE"
);
},
{
closed = 1;
nodes = (
"518 -98 LINE",
"518 42 LINE",
"389 42 LINE",
"389 0 LINE",
"473 0 LINE",
"473 -98 LINE"
);
}
);
width = 545;
},
{
layerId = "291433DC-531A-45CC-B814-57D397372F12";
paths = (
{
closed = 1;
nodes = (
"455 0 LINE",
"455 727 LINE",
"364 727 LINE",
"364 84 LINE",
"273 84 LINE",
"273 727 LINE",
"182 727 LINE",
"182 84 LINE",
"91 84 LINE",
"91 727 LINE",
"0 727 LINE",
"0 0 LINE"
);
},
{
closed = 1;
nodes = (
"545 -98 LINE",
"545 84 LINE",
"371 84 LINE",
"371 0 LINE",
"455 0 LINE",
"455 -98 LINE"
);
}
);
width = 545;
}
);
unicode = 0429;
},
{
color = 4;
glyphname = "Softsign-cy";
lastChange = "2023-07-14 09:44:56 +0000";
layers = (
{
layerId = "7C079D0C-96CD-4BD8-8800-0621C7635A78";
paths = (
{
closed = 1;
nodes = (
"291 0 LINE SMOOTH",
"439 0 OFFCURVE",
"486 54 OFFCURVE",
"486 224 CURVE SMOOTH",
"486 394 OFFCURVE",
"439 447 OFFCURVE",
"291 447 CURVE SMOOTH",
"122 447 LINE",
"122 405 LINE",
"291 405 LINE SMOOTH",
"405 405 OFFCURVE",
"441 362 OFFCURVE",
"441 224 CURVE SMOOTH",
"441 85 OFFCURVE",
"405 42 OFFCURVE",
"291 42 CURVE SMOOTH",
"114 42 LINE",
"142 14 LINE",
"142 727 LINE",
"96 727 LINE",
"96 0 LINE"
);
}
);
width = 545;
},
{
layerId = "291433DC-531A-45CC-B814-57D397372F12";
paths = (
{
closed = 1;
nodes = (
"291 0 LINE SMOOTH",
"456 0 OFFCURVE",
"509 56 OFFCURVE",
"509 235 CURVE SMOOTH",
"509 415 OFFCURVE",
"456 471 OFFCURVE",
"291 471 CURVE SMOOTH",
"99 471 LINE",
"99 387 LINE",
"291 387 LINE SMOOTH",
"387 387 OFFCURVE",
"418 351 OFFCURVE",
"418 235 CURVE SMOOTH",
"418 120 OFFCURVE",
"387 84 OFFCURVE",
"291 84 CURVE SMOOTH",
"98 84 LINE",
"165 17 LINE",
"165 727 LINE",
"74 727 LINE",
"74 0 LINE"
);
}
);
width = 545;
}
);
unicode = 042C;
},
{
color = 4;
glyphname = "Hardsign-cy";
lastChange = "2023-07-14 09:44:56 +0000";
layers = (
{
layerId = "7C079D0C-96CD-4BD8-8800-0621C7635A78";
paths = (
{
closed = 1;
nodes = (
"160 685 LINE",
"160 727 LINE",
"23 727 LINE",
"23 685 LINE"
);
},
{
closed = 1;
nodes = (
"309 0 LINE SMOOTH",
"457 0 OFFCURVE",
"505 54 OFFCURVE",
"505 224 CURVE SMOOTH",
"505 394 OFFCURVE",
"457 447 OFFCURVE",
"309 447 CURVE SMOOTH",
"140 447 LINE",
"140 405 LINE",
"309 405 LINE SMOOTH",
"423 405 OFFCURVE",
"459 362 OFFCURVE",
"459 224 CURVE SMOOTH",
"459 85 OFFCURVE",
"423 42 OFFCURVE",
"309 42 CURVE SMOOTH",
"132 42 LINE",
"160 14 LINE",
"160 727 LINE",
"115 727 LINE",
"115 0 LINE"
);
}
);
width = 545;
},
{
layerId = "291433DC-531A-45CC-B814-57D397372F12";
paths = (
{
closed = 1;
nodes = (
"192 644 LINE",
"192 727 LINE",
"10 727 LINE",
"10 644 LINE"
);
},
{
closed = 1;
nodes = (
"318 0 LINE SMOOTH",
"484 0 OFFCURVE",
"536 56 OFFCURVE",
"536 235 CURVE SMOOTH",
"536 415 OFFCURVE",
"484 471 OFFCURVE",
"318 471 CURVE SMOOTH",
"126 471 LINE",
"126 387 LINE",
"318 387 LINE SMOOTH",
"415 387 OFFCURVE",
"445 351 OFFCURVE",
"445 235 CURVE SMOOTH",
"445 120 OFFCURVE",
"415 84 OFFCURVE",
"318 84 CURVE SMOOTH",
"125 84 LINE",
"192 17 LINE",
"192 727 LINE",
"101 727 LINE",
"101 0 LINE"
);
}
);
width = 545;
}
);
unicode = 042A;
},
{
color = 4;
glyphname = "Yeru-cy";
lastChange = "2023-07-14 09:44:56 +0000";
layers = (
{
anchors = (
{
name = top;
position = "{273, 727}";
}
);
layerId = "7C079D0C-96CD-4BD8-8800-0621C7635A78";
paths = (
{
closed = 1;
nodes = (
"209 0 LINE SMOOTH",
"344 0 OFFCURVE",
"386 54 OFFCURVE",
"386 224 CURVE SMOOTH",
"386 394 OFFCURVE",
"344 447 OFFCURVE",
"209 447 CURVE SMOOTH",
"75 447 LINE",
"75 405 LINE",
"209 405 LINE SMOOTH",
"309 405 OFFCURVE",
"341 362 OFFCURVE",
"341 224 CURVE SMOOTH",
"341 85 OFFCURVE",
"309 42 OFFCURVE",
"209 42 CURVE SMOOTH",
"67 42 LINE",
"95 14 LINE",
"95 727 LINE",
"50 727 LINE",
"50 0 LINE"
);
},
{
closed = 1;
nodes = (
"495 0 LINE",
"495 727 LINE",
"450 727 LINE",
"450 0 LINE"
);
}
);
width = 545;
},
{
anchors = (
{
name = top;
position = "{273, 727}";
}
);
layerId = "291433DC-531A-45CC-B814-57D397372F12";
paths = (
{
closed = 1;
nodes = (
"191 0 LINE SMOOTH",
"336 0 OFFCURVE",
"382 56 OFFCURVE",
"382 235 CURVE SMOOTH",
"382 415 OFFCURVE",
"336 471 OFFCURVE",
"191 471 CURVE SMOOTH",
"44 471 LINE",
"44 387 LINE",
"191 387 LINE SMOOTH",
"267 387 OFFCURVE",
"291 351 OFFCURVE",
"291 235 CURVE SMOOTH",
"291 120 OFFCURVE",
"267 84 OFFCURVE",
"191 84 CURVE SMOOTH",
"52 84 LINE",
"109 17 LINE",
"109 727 LINE",
"18 727 LINE",
"18 0 LINE"
);
},
{
closed = 1;
nodes = (
"527 0 LINE",
"527 727 LINE",
"436 727 LINE",
"436 0 LINE"
);
}
);
width = 545;
}
);
unicode = 042B;
},
{
color = 4;
glyphname = "Lje-cy";
lastChange = "2023-07-14 09:44:56 +0000";
layers = (
{
layerId = "7C079D0C-96CD-4BD8-8800-0621C7635A78";
paths = (
{
closed = 1;
nodes = (
"327 0 LINE",
"327 727 LINE",
"169 727 LINE",
"169 685 LINE",
"282 685 LINE",
"282 0 LINE"
);
},
{
closed = 1;
nodes = (
"154 0 OFFCURVE",
"163 152 OFFCURVE",
"195 727 CURVE",
"150 727 LINE",
"121 191 OFFCURVE",
"108 42 OFFCURVE",
"0 42 CURVE",
"0 0 LINE"
);
},
{
closed = 1;
nodes = (
"386 0 LINE SMOOTH",
"500 0 OFFCURVE",
"536 54 OFFCURVE",
"536 224 CURVE SMOOTH",
"536 394 OFFCURVE",
"500 447 OFFCURVE",
"386 447 CURVE SMOOTH",
"307 447 LINE",
"307 405 LINE",
"386 405 LINE SMOOTH",
"465 405 OFFCURVE",
"491 362 OFFCURVE",
"491 224 CURVE SMOOTH",
"491 85 OFFCURVE",
"465 42 OFFCURVE",
"386 42 CURVE SMOOTH",
"299 42 LINE",
"327 14 LINE",
"327 727 LINE",
"282 727 LINE",
"282 0 LINE"
);
}
);
width = 545;
},
{
layerId = "291433DC-531A-45CC-B814-57D397372F12";
paths = (
{
closed = 1;
nodes = (
"369 0 LINE",
"369 727 LINE",
"169 727 LINE",
"169 644 LINE",
"278 644 LINE",
"278 0 LINE"
);
},
{
closed = 1;
nodes = (
"198 0 OFFCURVE",
"207 130 OFFCURVE",
"241 727 CURVE",
"150 727 LINE",
"125 150 OFFCURVE",
"94 85 OFFCURVE",
"0 85 CURVE",
"0 0 LINE"
);
},
{
closed = 1;
nodes = (
"395 0 LINE SMOOTH",
"509 0 OFFCURVE",
"545 56 OFFCURVE",
"545 235 CURVE SMOOTH",
"545 415 OFFCURVE",
"509 471 OFFCURVE",
"395 471 CURVE SMOOTH",
"304 471 LINE",
"304 387 LINE",
"395 387 LINE SMOOTH",
"440 387 OFFCURVE",
"455 351 OFFCURVE",
"455 235 CURVE SMOOTH",
"455 120 OFFCURVE",
"440 84 OFFCURVE",
"395 84 CURVE SMOOTH",
"303 84 LINE",
"369 17 LINE",
"369 727 LINE",
"278 727 LINE",
"278 0 LINE"
);
}
);
width = 545;
}
);
unicode = 0409;
},
{
color = 4;
glyphname = "Nje-cy";
lastChange = "2023-07-14 09:44:56 +0000";
layers = (
{
layerId = "7C079D0C-96CD-4BD8-8800-0621C7635A78";
paths = (
{
closed = 1;
nodes = (
"67 0 LINE",
"67 727 LINE",
"22 727 LINE",
"22 0 LINE"
);
},
{
closed = 1;
nodes = (
"377 0 LINE SMOOTH",
"498 0 OFFCURVE",
"536 54 OFFCURVE",
"536 224 CURVE SMOOTH",
"536 394 OFFCURVE",
"498 447 OFFCURVE",
"377 447 CURVE SMOOTH",
"46 447 LINE",
"46 405 LINE",
"377 405 LINE SMOOTH",
"464 405 OFFCURVE",
"491 362 OFFCURVE",
"491 224 CURVE SMOOTH",
"491 85 OFFCURVE",
"464 42 OFFCURVE",
"377 42 CURVE SMOOTH",
"265 42 LINE",
"293 14 LINE",
"293 727 LINE",
"247 727 LINE",
"247 0 LINE"
);
}
);
width = 545;
},
{
layerId = "291433DC-531A-45CC-B814-57D397372F12";
paths = (
{
closed = 1;
nodes = (
"95 0 LINE",
"95 727 LINE",
"5 727 LINE",
"5 0 LINE"
);
},
{
closed = 1;
nodes = (
"374 0 LINE SMOOTH",
"505 0 OFFCURVE",
"545 56 OFFCURVE",
"545 235 CURVE SMOOTH",
"545 415 OFFCURVE",
"505 471 OFFCURVE",
"374 471 CURVE SMOOTH",
"50 471 LINE",
"50 387 LINE",
"374 387 LINE SMOOTH",
"435 387 OFFCURVE",
"455 351 OFFCURVE",
"455 235 CURVE SMOOTH",
"455 120 OFFCURVE",
"435 84 OFFCURVE",
"374 84 CURVE SMOOTH",
"247 84 LINE",
"314 17 LINE",
"314 727 LINE",
"223 727 LINE",
"223 0 LINE"
);
}
);
width = 545;
}
);
unicode = 040A;
},
{
color = 4;
glyphname = "E-cy";
lastChange = "2023-07-14 09:44:56 +0000";
layers = (
{
anchors = (
{
name = top;
position = "{273, 730}";
}
);
layerId = "7C079D0C-96CD-4BD8-8800-0621C7635A78";
paths = (
{
closed = 1;
nodes = (
"383 -13 OFFCURVE",
"427 15 OFFCURVE",
"458 101 CURVE",
"406 101 LINE",
"380 46 OFFCURVE",
"347 29 OFFCURVE",
"273 29 CURVE SMOOTH",
"146 29 OFFCURVE",
"106 101 OFFCURVE",
"106 327 CURVE SMOOTH",
"106 400 LINE SMOOTH",
"106 626 OFFCURVE",
"146 698 OFFCURVE",
"273 698 CURVE SMOOTH",
"349 698 OFFCURVE",
"382 681 OFFCURVE",
"408 626 CURVE",
"458 626 LINE",
"427 713 OFFCURVE",
"383 740 OFFCURVE",
"273 740 CURVE SMOOTH",
"112 740 OFFCURVE",
"61 658 OFFCURVE",
"61 400 CURVE SMOOTH",
"61 327 LINE SMOOTH",
"61 69 OFFCURVE",
"112 -13 OFFCURVE",
"273 -13 CURVE SMOOTH"
);
},
{
closed = 1;
nodes = (
"329 385 LINE",
"84 385 LINE",
"84 343 LINE",
"329 343 LINE"
);
}
);
width = 545;
},
{
anchors = (
{
name = top;
position = "{273, 730}";
}
);
layerId = "291433DC-531A-45CC-B814-57D397372F12";
paths = (
{
closed = 1;
nodes = (
"405 -13 OFFCURVE",
"457 25 OFFCURVE",
"488 143 CURVE",
"391 143 LINE",
"369 88 OFFCURVE",
"341 71 OFFCURVE",
"273 71 CURVE SMOOTH",
"164 71 OFFCURVE",
"129 133 OFFCURVE",
"129 327 CURVE SMOOTH",
"129 400 LINE SMOOTH",
"129 595 OFFCURVE",
"164 656 OFFCURVE",
"273 656 CURVE SMOOTH",
"342 656 OFFCURVE",
"371 639 OFFCURVE",
"393 585 CURVE",
"488 585 LINE",
"457 703 OFFCURVE",
"405 740 OFFCURVE",
"273 740 CURVE SMOOTH",
"95 740 OFFCURVE",
"38 658 OFFCURVE",
"38 400 CURVE SMOOTH",
"38 327 LINE SMOOTH",
"38 69 OFFCURVE",
"95 -13 OFFCURVE",
"273 -13 CURVE SMOOTH"
);
},
{
closed = 1;
nodes = (
"352 405 LINE",
"61 405 LINE",
"61 322 LINE",
"352 322 LINE"
);
}
);
width = 545;
}
);
unicode = 0404;
},
{
color = 4;
glyphname = "Ereversed-cy";
lastChange = "2023-07-14 09:44:56 +0000";
layers = (
{
anchors = (
{
name = bottom;
position = "{273, -3}";
},
{
name = center;
position = "{273, 364}";
},
{
name = ogonek;
position = "{509, 6}";
},
{
name = top;
position = "{273, 730}";
},
{
name = topleft;
position = "{-5, 730}";
},
{
name = topright;
position = "{550, 730}";
}
);
layerId = "7C079D0C-96CD-4BD8-8800-0621C7635A78";
paths = (
{
closed = 1;
nodes = (
"434 -13 OFFCURVE",
"485 69 OFFCURVE",
"485 327 CURVE SMOOTH",
"485 400 LINE SMOOTH",
"485 658 OFFCURVE",
"434 740 OFFCURVE",
"273 740 CURVE SMOOTH",
"163 740 OFFCURVE",
"118 713 OFFCURVE",
"87 626 CURVE",
"137 626 LINE",
"164 681 OFFCURVE",
"196 698 OFFCURVE",
"273 698 CURVE SMOOTH",
"399 698 OFFCURVE",
"439 626 OFFCURVE",
"439 400 CURVE SMOOTH",
"439 327 LINE SMOOTH",
"439 101 OFFCURVE",
"399 29 OFFCURVE",
"273 29 CURVE SMOOTH",
"198 29 OFFCURVE",
"165 46 OFFCURVE",
"139 101 CURVE",
"87 101 LINE",
"118 15 OFFCURVE",
"163 -13 OFFCURVE",
"273 -13 CURVE SMOOTH"
);
},
{
closed = 1;
nodes = (
"462 343 LINE",
"462 385 LINE",
"216 385 LINE",
"216 343 LINE"
);
}
);
width = 545;
},
{
anchors = (
{
name = bottom;
position = "{273, -3}";
},
{
name = center;
position = "{273, 364}";
},
{
name = ogonek;
position = "{509, 6}";
},
{
name = top;
position = "{273, 730}";
},
{
name = topleft;
position = "{-5, 730}";
},
{
name = topright;
position = "{550, 730}";
}
);
layerId = "291433DC-531A-45CC-B814-57D397372F12";
paths = (
{
closed = 1;
nodes = (
"451 -13 OFFCURVE",
"507 69 OFFCURVE",
"507 327 CURVE SMOOTH",
"507 400 LINE SMOOTH",
"507 658 OFFCURVE",
"451 740 OFFCURVE",
"273 740 CURVE SMOOTH",
"140 740 OFFCURVE",
"88 703 OFFCURVE",
"57 585 CURVE",
"153 585 LINE",
"175 639 OFFCURVE",
"204 656 OFFCURVE",
"273 656 CURVE SMOOTH",
"382 656 OFFCURVE",
"416 595 OFFCURVE",
"416 400 CURVE SMOOTH",
"416 327 LINE SMOOTH",
"416 133 OFFCURVE",
"382 71 OFFCURVE",
"273 71 CURVE SMOOTH",
"205 71 OFFCURVE",
"176 88 OFFCURVE",
"155 143 CURVE",
"57 143 LINE",
"88 25 OFFCURVE",
"140 -13 OFFCURVE",
"273 -13 CURVE SMOOTH"
);
},
{
closed = 1;
nodes = (
"485 322 LINE",
"485 405 LINE",
"194 405 LINE",
"194 322 LINE"
);
}
);
width = 545;
}
);
unicode = 042D;
},
{
color = 4;
glyphname = "Tshe-cy";
lastChange = "2023-07-14 09:44:56 +0000";
layers = (
{
layerId = "7C079D0C-96CD-4BD8-8800-0621C7635A78";
paths = (
{
closed = 1;
nodes = (
"0 727 LINE",
"0 685 LINE",
"308 685 LINE",
"308 727 LINE"
);
},
{
closed = 1;
nodes = (
"176 0 LINE",
"176 249 LINE SMOOTH",
"176 375 OFFCURVE",
"210 405 OFFCURVE",
"318 405 CURVE SMOOTH",
"426 405 OFFCURVE",
"461 359 OFFCURVE",
"461 213 CURVE SMOOTH",
"461 0 LINE",
"506 0 LINE",
"506 213 LINE SMOOTH",
"506 391 OFFCURVE",
"461 447 OFFCURVE",
"318 447 CURVE SMOOTH",
"248 447 OFFCURVE",
"196 430 OFFCURVE",
"176 375 CURVE",
"176 727 LINE",
"131 727 LINE",
"131 0 LINE"
);
}
);
width = 545;
},
{
layerId = "291433DC-531A-45CC-B814-57D397372F12";
paths = (
{
closed = 1;
nodes = (
"0 727 LINE",
"0 644 LINE",
"308 644 LINE",
"308 727 LINE"
);
},
{
closed = 1;
nodes = (
"199 0 LINE",
"199 243 LINE SMOOTH",
"199 364 OFFCURVE",
"221 387 OFFCURVE",
"318 387 CURVE SMOOTH",
"409 387 OFFCURVE",
"438 344 OFFCURVE",
"438 204 CURVE SMOOTH",
"438 0 LINE",
"529 0 LINE",
"529 204 LINE SMOOTH",
"529 406 OFFCURVE",
"478 471 OFFCURVE",
"318 471 CURVE SMOOTH",
"267 471 OFFCURVE",
"227 462 OFFCURVE",
"199 442 CURVE",
"199 727 LINE",
"108 727 LINE",
"108 0 LINE"
);
}
);
width = 545;
}
);
unicode = 040B;
},
{
color = 4;
glyphname = "Iu-cy";
lastChange = "2023-07-14 09:44:56 +0000";
layers = (
{
anchors = (
{
name = top;
position = "{273, 727}";
},
{
name = topleft;
position = "{541, 730}";
}
);
layerId = "7C079D0C-96CD-4BD8-8800-0621C7635A78";
paths = (
{
closed = 1;
nodes = (
"485 -13 OFFCURVE",
"527 69 OFFCURVE",
"527 327 CURVE SMOOTH",
"527 400 LINE SMOOTH",
"527 658 OFFCURVE",
"485 740 OFFCURVE",
"352 740 CURVE SMOOTH",
"218 740 OFFCURVE",
"176 658 OFFCURVE",
"176 400 CURVE SMOOTH",
"176 327 LINE SMOOTH",
"176 69 OFFCURVE",
"218 -13 OFFCURVE",
"352 -13 CURVE SMOOTH"
);
},
{
closed = 1;
nodes = (
"77 0 LINE",
"77 727 LINE",
"32 727 LINE",
"32 0 LINE"
);
},
{
closed = 1;
nodes = (
"205 343 LINE",
"205 385 LINE",
"53 385 LINE",
"53 343 LINE"
);
},
{
closed = 1;
nodes = (
"253 29 OFFCURVE",
"222 101 OFFCURVE",
"222 327 CURVE SMOOTH",
"222 400 LINE SMOOTH",
"222 626 OFFCURVE",
"253 698 OFFCURVE",
"352 698 CURVE SMOOTH",
"451 698 OFFCURVE",
"482 626 OFFCURVE",
"482 400 CURVE SMOOTH",
"482 327 LINE SMOOTH",
"482 101 OFFCURVE",
"451 29 OFFCURVE",
"352 29 CURVE SMOOTH"
);
}
);
width = 545;
},
{
anchors = (
{
name = top;
position = "{273, 727}";
},
{
name = topleft;
position = "{541, 730}";
}
);
layerId = "291433DC-531A-45CC-B814-57D397372F12";
paths = (
{
closed = 1;
nodes = (
"495 -13 OFFCURVE",
"541 69 OFFCURVE",
"541 327 CURVE SMOOTH",
"541 400 LINE SMOOTH",
"541 658 OFFCURVE",
"495 740 OFFCURVE",
"352 740 CURVE SMOOTH",
"208 740 OFFCURVE",
"163 658 OFFCURVE",
"163 400 CURVE SMOOTH",
"163 327 LINE SMOOTH",
"163 69 OFFCURVE",
"208 -13 OFFCURVE",
"352 -13 CURVE SMOOTH"
);
},
{
closed = 1;
nodes = (
"100 0 LINE",
"100 727 LINE",
"9 727 LINE",
"9 0 LINE"
);
},
{
closed = 1;
nodes = (
"214 322 LINE",
"214 405 LINE",
"51 405 LINE",
"51 322 LINE"
);
},
{
closed = 1;
nodes = (
"277 71 OFFCURVE",
"254 133 OFFCURVE",
"254 327 CURVE SMOOTH",
"254 400 LINE SMOOTH",
"254 595 OFFCURVE",
"277 656 OFFCURVE",
"352 656 CURVE SMOOTH",
"426 656 OFFCURVE",
"450 595 OFFCURVE",
"450 400 CURVE SMOOTH",
"450 327 LINE SMOOTH",
"450 133 OFFCURVE",
"426 71 OFFCURVE",
"352 71 CURVE SMOOTH"
);
}
);
width = 545;
}
);
unicode = 042E;
},
{
color = 4;
glyphname = "Ia-cy";
lastChange = "2023-07-14 09:44:56 +0000";
layers = (
{
anchors = (
{
name = bottom;
position = "{273, 0}";
},
{
name = top;
position = "{273, 727}";
}
);
layerId = "7C079D0C-96CD-4BD8-8800-0621C7635A78";
paths = (
{
closed = 1;
nodes = (
"456 727 LINE",
"262 727 LINE SMOOTH",
"114 727 OFFCURVE",
"66 678 OFFCURVE",
"66 525 CURVE SMOOTH",
"66 371 OFFCURVE",
"114 322 OFFCURVE",
"262 322 CURVE SMOOTH",
"440 322 LINE",
"440 364 LINE",
"262 364 LINE SMOOTH",
"148 364 OFFCURVE",
"112 402 OFFCURVE",
"112 525 CURVE SMOOTH",
"112 647 OFFCURVE",
"148 685 OFFCURVE",
"262 685 CURVE SMOOTH",
"411 685 LINE",
"411 0 LINE",
"456 0 LINE"
);
},
{
closed = 1;
nodes = (
"325 344 LINE",
"272 344 LINE",
"49 0 LINE",
"102 0 LINE"
);
}
);
width = 545;
},
{
anchors = (
{
name = bottom;
position = "{273, 0}";
},
{
name = top;
position = "{273, 727}";
}
);
layerId = "291433DC-531A-45CC-B814-57D397372F12";
paths = (
{
closed = 1;
nodes = (
"479 727 LINE",
"262 727 LINE SMOOTH",
"101 727 OFFCURVE",
"44 669 OFFCURVE",
"44 513 CURVE SMOOTH",
"44 347 OFFCURVE",
"101 298 OFFCURVE",
"262 298 CURVE SMOOTH",
"454 298 LINE",
"454 382 LINE",
"262 382 LINE SMOOTH",
"162 382 OFFCURVE",
"135 402 OFFCURVE",
"135 513 CURVE SMOOTH",
"135 615 OFFCURVE",
"162 644 OFFCURVE",
"262 644 CURVE SMOOTH",
"388 644 LINE",
"388 0 LINE",
"479 0 LINE"
);
},
{
closed = 1;
nodes = (
"362 358 LINE",
"255 358 LINE",
"9 0 LINE",
"115 0 LINE"
);
}
);
width = 545;
}
);
unicode = 042F;
},
{
color = 4;
glyphname = "Dje-cy";
lastChange = "2023-07-14 09:44:56 +0000";
layers = (
{
layerId = "7C079D0C-96CD-4BD8-8800-0621C7635A78";
paths = (
{
closed = 1;
nodes = (
"486 -13 OFFCURVE",
"527 42 OFFCURVE",
"527 216 CURVE SMOOTH",
"527 392 OFFCURVE",
"480 447 OFFCURVE",
"329 447 CURVE SMOOTH",
"240 447 OFFCURVE",
"205 428 OFFCURVE",
"185 369 CURVE",
"185 727 LINE",
"139 727 LINE",
"139 0 LINE",
"185 0 LINE",
"185 249 LINE SMOOTH",
"185 368 OFFCURVE",
"219 405 OFFCURVE",
"329 405 CURVE SMOOTH",
"445 405 OFFCURVE",
"482 360 OFFCURVE",
"482 216 CURVE SMOOTH",
"482 74 OFFCURVE",
"452 29 OFFCURVE",
"356 29 CURVE SMOOTH",
"327 29 OFFCURVE",
"314 32 OFFCURVE",
"300 40 CURVE",
"300 -2 LINE",
"314 -10 OFFCURVE",
"327 -13 OFFCURVE",
"356 -13 CURVE SMOOTH"
);
},
{
closed = 1;
nodes = (
"326 685 LINE",
"326 727 LINE",
"0 727 LINE",
"0 685 LINE"
);
}
);
width = 545;
},
{
layerId = "291433DC-531A-45CC-B814-57D397372F12";
paths = (
{
closed = 1;
nodes = (
"496 -13 OFFCURVE",
"541 45 OFFCURVE",
"541 228 CURVE SMOOTH",
"541 413 OFFCURVE",
"490 471 OFFCURVE",
"329 471 CURVE SMOOTH",
"270 471 OFFCURVE",
"241 463 OFFCURVE",
"207 437 CURVE",
"207 727 LINE",
"116 727 LINE",
"116 0 LINE",
"207 0 LINE",
"207 249 LINE SMOOTH",
"207 355 OFFCURVE",
"236 387 OFFCURVE",
"329 387 CURVE SMOOTH",
"421 387 OFFCURVE",
"450 349 OFFCURVE",
"450 228 CURVE SMOOTH",
"450 109 OFFCURVE",
"427 71 OFFCURVE",
"356 71 CURVE SMOOTH",
"325 71 OFFCURVE",
"311 74 OFFCURVE",
"300 83 CURVE",
"300 -2 LINE",
"311 -10 OFFCURVE",
"325 -13 OFFCURVE",
"356 -13 CURVE SMOOTH"
);
},
{
closed = 1;
nodes = (
"326 644 LINE",
"326 727 LINE",
"0 727 LINE",
"0 644 LINE"
);
}
);
width = 545;
}
);
unicode = 0402;
},
{
color = 4;
glyphname = "Yat-cy";
lastChange = "2023-07-14 09:44:56 +0000";
layers = (
{
components = (
{
name = "Softsign-cy";
transform = "{1, 0, 0, 1, 18, 0}";
}
);
layerId = "7C079D0C-96CD-4BD8-8800-0621C7635A78";
paths = (
{
closed = 1;
nodes = (
"326 574 LINE",
"326 615 LINE",
"18 615 LINE",
"18 574 LINE"
);
}
);
width = 545;
},
{
components = (
{
name = "Softsign-cy";
transform = "{1, 0, 0, 1, 9, 0}";
}
);
layerId = "291433DC-531A-45CC-B814-57D397372F12";
paths = (
{
closed = 1;
nodes = (
"317 562 LINE",
"317 645 LINE",
"9 645 LINE",
"9 562 LINE"
);
}
);
width = 545;
}
);
unicode = 0462;
},
{
color = 4;
glyphname = "Eiotified-cy";
lastChange = "2023-07-14 09:44:56 +0000";
layers = (
{
layerId = "7C079D0C-96CD-4BD8-8800-0621C7635A78";
paths = (
{
closed = 1;
nodes = (
"444 -13 OFFCURVE",
"481 15 OFFCURVE",
"505 102 CURVE",
"457 102 LINE",
"436 46 OFFCURVE",
"411 29 OFFCURVE",
"352 29 CURVE SMOOTH",
"253 29 OFFCURVE",
"222 101 OFFCURVE",
"222 327 CURVE SMOOTH",
"222 400 LINE SMOOTH",
"222 626 OFFCURVE",
"253 698 OFFCURVE",
"352 698 CURVE SMOOTH",
"410 698 OFFCURVE",
"435 682 OFFCURVE",
"456 628 CURVE",
"505 628 LINE",
"480 713 OFFCURVE",
"443 740 OFFCURVE",
"352 740 CURVE SMOOTH",
"218 740 OFFCURVE",
"176 658 OFFCURVE",
"176 400 CURVE SMOOTH",
"176 327 LINE SMOOTH",
"176 69 OFFCURVE",
"218 -13 OFFCURVE",
"352 -13 CURVE SMOOTH"
);
},
{
closed = 1;
nodes = (
"77 0 LINE",
"77 727 LINE",
"32 727 LINE",
"32 0 LINE"
);
},
{
closed = 1;
nodes = (
"385 343 LINE",
"385 385 LINE",
"53 385 LINE",
"53 343 LINE"
);
}
);
width = 545;
},
{
layerId = "291433DC-531A-45CC-B814-57D397372F12";
paths = (
{
closed = 1;
nodes = (
"465 -13 OFFCURVE",
"507 26 OFFCURVE",
"529 151 CURVE",
"436 151 LINE",
"422 90 OFFCURVE",
"402 71 OFFCURVE",
"352 71 CURVE SMOOTH",
"277 71 OFFCURVE",
"254 133 OFFCURVE",
"254 327 CURVE SMOOTH",
"254 400 LINE SMOOTH",
"254 595 OFFCURVE",
"277 656 OFFCURVE",
"352 656 CURVE SMOOTH",
"399 656 OFFCURVE",
"418 639 OFFCURVE",
"434 585 CURVE",
"527 585 LINE",
"505 703 OFFCURVE",
"463 740 OFFCURVE",
"352 740 CURVE SMOOTH",
"208 740 OFFCURVE",
"163 658 OFFCURVE",
"163 400 CURVE SMOOTH",
"163 327 LINE SMOOTH",
"163 69 OFFCURVE",
"208 -13 OFFCURVE",
"352 -13 CURVE SMOOTH"
);
},
{
closed = 1;
nodes = (
"100 0 LINE",
"100 727 LINE",
"9 727 LINE",
"9 0 LINE"
);
},
{
closed = 1;
nodes = (
"414 322 LINE",
"414 405 LINE",
"51 405 LINE",
"51 322 LINE"
);
}
);
width = 545;
}
);
unicode = 0464;
},
{
color = 4;
glyphname = "Yuslittle-cy";
lastChange = "2023-07-14 09:44:56 +0000";
layers = (
{
components = (
{
name = A;
}
);
layerId = "7C079D0C-96CD-4BD8-8800-0621C7635A78";
paths = (
{
closed = 1;
nodes = (
"295 215 LINE",
"250 215 LINE",
"250 0 LINE",
"295 0 LINE"
);
}
);
width = 545;
},
{
components = (
{
name = A;
}
);
layerId = "291433DC-531A-45CC-B814-57D397372F12";
paths = (
{
closed = 1;
nodes = (
"318 217 LINE",
"227 217 LINE",
"227 0 LINE",
"318 0 LINE"
);
}
);
width = 545;
}
);
unicode = 0466;
},
{
color = 4;
glyphname = "Yusbig-cy";
lastChange = "2023-07-14 09:44:56 +0000";
layers = (
{
layerId = "7C079D0C-96CD-4BD8-8800-0621C7635A78";
paths = (
{
closed = 1;
nodes = (
"327 364 LINE",
"502 685 LINE",
"452 685 LINE",
"277 364 LINE"
);
},
{
closed = 1;
nodes = (
"295 0 LINE",
"295 364 LINE",
"250 364 LINE",
"250 0 LINE"
);
},
{
closed = 1;
nodes = (
"268 364 LINE",
"94 685 LINE",
"44 685 LINE",
"218 364 LINE"
);
},
{
closed = 1;
nodes = (
"361 351 OFFCURVE",
"402 293 OFFCURVE",
"444 108 CURVE SMOOTH",
"456 51 OFFCURVE",
"467 25 OFFCURVE",
"492 0 CURVE",
"537 0 LINE",
"513 24 OFFCURVE",
"502 49 OFFCURVE",
"489 108 CURVE SMOOTH",
"443 325 OFFCURVE",
"391 393 OFFCURVE",
"273 393 CURVE",
"273 351 LINE"
);
},
{
closed = 1;
nodes = (
"44 727 LINE",
"44 685 LINE",
"502 685 LINE",
"502 727 LINE"
);
},
{
closed = 1;
nodes = (
"273 393 LINE",
"155 393 OFFCURVE",
"103 325 OFFCURVE",
"56 108 CURVE SMOOTH",
"44 49 OFFCURVE",
"33 24 OFFCURVE",
"8 0 CURVE",
"54 0 LINE",
"78 25 OFFCURVE",
"89 51 OFFCURVE",
"102 108 CURVE SMOOTH",
"143 293 OFFCURVE",
"185 351 OFFCURVE",
"273 351 CURVE"
);
}
);
width = 545;
},
{
layerId = "291433DC-531A-45CC-B814-57D397372F12";
paths = (
{
closed = 1;
nodes = (
"341 343 LINE",
"506 644 LINE",
"406 644 LINE",
"241 343 LINE"
);
},
{
closed = 1;
nodes = (
"318 0 LINE",
"318 385 LINE",
"227 385 LINE",
"227 0 LINE"
);
},
{
closed = 1;
nodes = (
"305 343 LINE",
"139 644 LINE",
"39 644 LINE",
"205 343 LINE"
);
},
{
closed = 1;
nodes = (
"344 329 OFFCURVE",
"352 315 OFFCURVE",
"395 122 CURVE SMOOTH",
"409 56 OFFCURVE",
"421 31 OFFCURVE",
"436 0 CURVE",
"535 0 LINE",
"501 55 OFFCURVE",
"496 74 OFFCURVE",
"484 131 CURVE SMOOTH",
"431 368 OFFCURVE",
"403 413 OFFCURVE",
"273 413 CURVE",
"273 329 LINE"
);
},
{
closed = 1;
nodes = (
"39 727 LINE",
"39 644 LINE",
"506 644 LINE",
"506 727 LINE"
);
},
{
closed = 1;
nodes = (
"273 413 LINE",
"143 413 OFFCURVE",
"115 368 OFFCURVE",
"62 131 CURVE SMOOTH",
"49 74 OFFCURVE",
"45 55 OFFCURVE",
"10 0 CURVE",
"109 0 LINE",
"125 31 OFFCURVE",
"136 56 OFFCURVE",
"151 122 CURVE SMOOTH",
"194 315 OFFCURVE",
"202 329 OFFCURVE",
"273 329 CURVE"
);
}
);
width = 545;
}
);
unicode = 046A;
},
{
color = 4;
glyphname = "Fita-cy";
lastChange = "2023-07-14 09:44:56 +0000";
layers = (
{
components = (
{
name = "O-cy";
}
);
layerId = "7C079D0C-96CD-4BD8-8800-0621C7635A78";
paths = (
{
closed = 1;
nodes = (
"419 376 OFFCURVE",
"395 369 OFFCURVE",
"345 369 CURVE SMOOTH",
"309 369 OFFCURVE",
"251 401 OFFCURVE",
"202 401 CURVE SMOOTH",
"135 401 OFFCURVE",
"105 391 OFFCURVE",
"72 358 CURVE",
"105 329 LINE",
"127 352 OFFCURVE",
"151 359 OFFCURVE",
"202 359 CURVE SMOOTH",
"242 359 OFFCURVE",
"294 327 OFFCURVE",
"345 327 CURVE SMOOTH",
"411 327 OFFCURVE",
"442 337 OFFCURVE",
"475 370 CURVE",
"442 399 LINE"
);
}
);
width = 545;
},
{
components = (
{
name = "O-cy";
}
);
layerId = "291433DC-531A-45CC-B814-57D397372F12";
paths = (
{
closed = 1;
nodes = (
"405 399 OFFCURVE",
"382 390 OFFCURVE",
"335 390 CURVE SMOOTH",
"305 390 OFFCURVE",
"259 422 OFFCURVE",
"211 422 CURVE SMOOTH",
"129 422 OFFCURVE",
"91 406 OFFCURVE",
"50 356 CURVE",
"115 299 LINE",
"142 329 OFFCURVE",
"165 338 OFFCURVE",
"211 338 CURVE SMOOTH",
"245 338 OFFCURVE",
"278 306 OFFCURVE",
"335 306 CURVE SMOOTH",
"417 306 OFFCURVE",
"455 322 OFFCURVE",
"496 372 CURVE",
"431 429 LINE"
);
}
);
width = 545;
}
);
unicode = 0472;
},
{
color = 4;
glyphname = "Izhitsa-cy";
lastChange = "2023-07-14 09:44:56 +0000";
layers = (
{
layerId = "7C079D0C-96CD-4BD8-8800-0621C7635A78";
paths = (
{
closed = 1;
nodes = (
"298 0 LINE",
"471 634 LINE",
"484 673 OFFCURVE",
"499 685 OFFCURVE",
"535 685 CURVE",
"535 727 LINE",
"469 727 OFFCURVE",
"444 709 OFFCURVE",
"426 650 CURVE",
"273 82 LINE",
"98 727 LINE",
"49 727 LINE",
"247 0 LINE"
);
}
);
width = 545;
},
{
layerId = "291433DC-531A-45CC-B814-57D397372F12";
paths = (
{
closed = 1;
nodes = (
"316 0 LINE",
"484 607 LINE",
"493 635 OFFCURVE",
"506 644 OFFCURVE",
"539 644 CURVE",
"539 726 LINE",
"448 726 OFFCURVE",
"414 705 OFFCURVE",
"395 635 CURVE SMOOTH",
"273 168 LINE",
"125 727 LINE",
"29 727 LINE",
"229 0 LINE"
);
}
);
width = 545;
}
);
unicode = 0474;
},
{
color = 4;
glyphname = "Ghestroke-cy";
lastChange = "2023-07-14 09:44:56 +0000";
layers = (
{
layerId = "7C079D0C-96CD-4BD8-8800-0621C7635A78";
paths = (
{
closed = 1;
nodes = (
"153 0 LINE",
"153 714 LINE",
"125 685 LINE",
"493 685 LINE",
"493 727 LINE",
"107 727 LINE",
"107 0 LINE"
);
},
{
closed = 1;
nodes = (
"326 322 LINE",
"326 364 LINE",
"53 364 LINE",
"53 322 LINE"
);
}
);
width = 545;
},
{
layerId = "291433DC-531A-45CC-B814-57D397372F12";
paths = (
{
closed = 1;
nodes = (
"175 0 LINE",
"175 701 LINE",
"118 644 LINE",
"515 644 LINE",
"515 727 LINE",
"85 727 LINE",
"85 0 LINE"
);
},
{
closed = 1;
nodes = (
"349 301 LINE",
"349 385 LINE",
"30 385 LINE",
"30 301 LINE"
);
}
);
width = 545;
}
);
unicode = 0492;
},
{
color = 4;
glyphname = "Kaverticalstroke-cy";
lastChange = "2023-07-14 09:44:56 +0000";
layers = (
{
anchors = (
{
name = bottomright;
position = "{489, 0}";
},
{
name = top;
position = "{273, 727}";
}
);
layerId = "7C079D0C-96CD-4BD8-8800-0621C7635A78";
paths = (
{
closed = 1;
nodes = (
"224 364 LINE",
"404 377 OFFCURVE",
"362 623 OFFCURVE",
"521 727 CURVE",
"456 727 LINE",
"325 623 OFFCURVE",
"365 414 OFFCURVE",
"202 405 CURVE",
"84 405 LINE",
"84 364 LINE"
);
},
{
closed = 1;
nodes = (
"109 0 LINE",
"109 727 LINE",
"64 727 LINE",
"64 0 LINE"
);
},
{
closed = 1;
nodes = (
"525 0 LINE",
"249 394 LINE",
"204 382 LINE",
"471 0 LINE"
);
},
{
closed = 1;
nodes = (
"216 557 LINE",
"171 557 LINE",
"171 212 LINE",
"216 212 LINE"
);
}
);
width = 545;
},
{
anchors = (
{
name = bottomright;
position = "{455, 0}";
},
{
name = top;
position = "{273, 727}";
}
);
layerId = "291433DC-531A-45CC-B814-57D397372F12";
paths = (
{
closed = 1;
nodes = (
"178 343 LINE SMOOTH",
"375 343 OFFCURVE",
"374 615 OFFCURVE",
"545 727 CURVE",
"418 727 LINE",
"324 684 OFFCURVE",
"304 426 OFFCURVE",
"155 426 CURVE SMOOTH",
"33 426 LINE",
"33 343 LINE"
);
},
{
closed = 1;
nodes = (
"104 0 LINE",
"104 727 LINE",
"13 727 LINE",
"13 0 LINE"
);
},
{
closed = 1;
nodes = (
"521 0 LINE",
"292 418 LINE",
"201 395 LINE",
"412 0 LINE"
);
},
{
closed = 1;
nodes = (
"230 578 LINE",
"139 578 LINE",
"139 191 LINE",
"230 191 LINE"
);
}
);
width = 545;
}
);
unicode = 049C;
},
{
color = 4;
glyphname = "Kastroke-cy";
lastChange = "2023-07-14 09:44:56 +0000";
layers = (
{
components = (
{
name = "Ka-cy";
}
);
layerId = "7C079D0C-96CD-4BD8-8800-0621C7635A78";
paths = (
{
closed = 1;
nodes = (
"191 620 LINE",
"191 662 LINE",
"18 662 LINE",
"18 620 LINE"
);
}
);
width = 545;
},
{
components = (
{
name = "Ka-cy";
transform = "{1, 0, 0, 1, 9, 0}";
}
);
layerId = "291433DC-531A-45CC-B814-57D397372F12";
paths = (
{
closed = 1;
nodes = (
"177 590 LINE",
"177 674 LINE",
"-9 674 LINE",
"-9 590 LINE"
);
}
);
width = 545;
}
);
unicode = 049E;
},
{
color = 4;
glyphname = "Kabashkir-cy";
lastChange = "2023-07-14 09:44:56 +0000";
layers = (
{
components = (
{
name = "Ka-cy";
}
);
layerId = "7C079D0C-96CD-4BD8-8800-0621C7635A78";
paths = (
{
closed = 1;
nodes = (
"105 685 LINE",
"105 727 LINE",
"0 727 LINE",
"0 685 LINE"
);
}
);
width = 545;
},
{
components = (
{
name = "Ka-cy";
transform = "{1, 0, 0, 1, 18, 0}";
}
);
layerId = "291433DC-531A-45CC-B814-57D397372F12";
paths = (
{
closed = 1;
nodes = (
"95 644 LINE",
"95 727 LINE",
"-9 727 LINE",
"-9 644 LINE"
);
}
);
width = 545;
}
);
unicode = 04A0;
},
{
color = 4;
glyphname = "Enghe-cy";
lastChange = "2023-07-14 09:44:56 +0000";
layers = (
{
components = (
{
name = "En-cy";
transform = "{1, 0, 0, 1, -45, 0}";
}
);
layerId = "7C079D0C-96CD-4BD8-8800-0621C7635A78";
paths = (
{
closed = 1;
nodes = (
"541 685 LINE",
"541 727 LINE",
"404 727 LINE",
"404 685 LINE"
);
}
);
width = 545;
},
{
components = (
{
name = "En-cy";
transform = "{1, 0, 0, 1, -40, 0}";
}
);
layerId = "291433DC-531A-45CC-B814-57D397372F12";
paths = (
{
closed = 1;
nodes = (
"541 644 LINE",
"541 727 LINE",
"410 727 LINE",
"410 644 LINE"
);
}
);
width = 545;
}
);
unicode = 04A4;
},
{
color = 4;
glyphname = "Pemiddlehook-cy";
lastChange = "2023-07-14 09:44:56 +0000";
layers = (
{
layerId = "7C079D0C-96CD-4BD8-8800-0621C7635A78";
paths = (
{
closed = 1;
nodes = (
"45 0 LINE",
"45 685 LINE",
"243 685 LINE",
"243 0 LINE",
"288 0 LINE",
"288 727 LINE",
"0 727 LINE",
"0 0 LINE"
);
},
{
closed = 1;
nodes = (
"288 368 OFFCURVE",
"315 405 OFFCURVE",
"399 405 CURVE SMOOTH",
"475 405 OFFCURVE",
"500 343 OFFCURVE",
"500 143 CURVE SMOOTH",
"500 -69 OFFCURVE",
"478 -136 OFFCURVE",
"408 -136 CURVE SMOOTH",
"379 -136 OFFCURVE",
"365 -134 OFFCURVE",
"352 -125 CURVE",
"352 -167 LINE",
"365 -175 OFFCURVE",
"379 -178 OFFCURVE",
"408 -178 CURVE SMOOTH",
"513 -178 OFFCURVE",
"545 -101 OFFCURVE",
"545 143 CURVE SMOOTH",
"545 375 OFFCURVE",
"510 447 OFFCURVE",
"399 447 CURVE SMOOTH",
"326 447 OFFCURVE",
"300 428 OFFCURVE",
"288 369 CURVE",
"288 249 LINE"
);
}
);
width = 545;
},
{
layerId = "291433DC-531A-45CC-B814-57D397372F12";
paths = (
{
closed = 1;
nodes = (
"91 0 LINE",
"91 644 LINE",
"218 644 LINE",
"218 0 LINE",
"309 0 LINE",
"309 727 LINE",
"0 727 LINE",
"0 0 LINE"
);
},
{
closed = 1;
nodes = (
"309 331 OFFCURVE",
"325 364 OFFCURVE",
"376 364 CURVE SMOOTH",
"435 364 OFFCURVE",
"455 309 OFFCURVE",
"455 135 CURVE SMOOTH",
"455 -39 OFFCURVE",
"438 -95 OFFCURVE",
"385 -95 CURVE SMOOTH",
"354 -95 OFFCURVE",
"340 -92 OFFCURVE",
"329 -83 CURVE",
"329 -167 LINE",
"340 -175 OFFCURVE",
"354 -178 OFFCURVE",
"385 -178 CURVE SMOOTH",
"507 -178 OFFCURVE",
"545 -103 OFFCURVE",
"545 135 CURVE SMOOTH",
"545 373 OFFCURVE",
"505 447 OFFCURVE",
"376 447 CURVE SMOOTH",
"343 447 OFFCURVE",
"326 439 OFFCURVE",
"309 414 CURVE",
"309 225 LINE"
);
}
);
width = 545;
}
);
unicode = 04A6;
},
{
color = 4;
glyphname = "Haabkhasian-cy";
lastChange = "2023-07-14 09:44:56 +0000";
layers = (
{
layerId = "7C079D0C-96CD-4BD8-8800-0621C7635A78";
paths = (
{
closed = 1;
nodes = (
"257 658 OFFCURVE",
"195 520 OFFCURVE",
"195 314 CURVE SMOOTH",
"195 118 OFFCURVE",
"278 -13 OFFCURVE",
"402 -13 CURVE SMOOTH",
"455 -13 OFFCURVE",
"511 11 OFFCURVE",
"543 46 CURVE",
"509 75 LINE",
"485 47 OFFCURVE",
"442 29 OFFCURVE",
"402 29 CURVE SMOOTH",
"305 29 OFFCURVE",
"241 143 OFFCURVE",
"241 314 CURVE SMOOTH",
"241 495 OFFCURVE",
"285 616 OFFCURVE",
"349 616 CURVE SMOOTH",
"414 616 OFFCURVE",
"457 523 OFFCURVE",
"457 382 CURVE SMOOTH",
"457 327 LINE SMOOTH",
"457 148 OFFCURVE",
"375 29 OFFCURVE",
"254 29 CURVE SMOOTH",
"143 29 OFFCURVE",
"69 148 OFFCURVE",
"69 327 CURVE SMOOTH",
"69 400 LINE SMOOTH",
"69 579 OFFCURVE",
"143 698 OFFCURVE",
"254 698 CURVE",
"254 740 LINE",
"115 740 OFFCURVE",
"24 604 OFFCURVE",
"24 400 CURVE SMOOTH",
"24 327 LINE SMOOTH",
"24 124 OFFCURVE",
"115 -13 OFFCURVE",
"254 -13 CURVE SMOOTH",
"403 -13 OFFCURVE",
"503 124 OFFCURVE",
"503 327 CURVE SMOOTH",
"503 382 LINE SMOOTH",
"503 547 OFFCURVE",
"441 658 OFFCURVE",
"349 658 CURVE SMOOTH"
);
}
);
width = 545;
},
{
layerId = "291433DC-531A-45CC-B814-57D397372F12";
paths = (
{
closed = 1;
nodes = (
"236 640 OFFCURVE",
"172 502 OFFCURVE",
"172 295 CURVE SMOOTH",
"172 111 OFFCURVE",
"264 -13 OFFCURVE",
"401 -13 CURVE SMOOTH",
"457 -13 OFFCURVE",
"523 20 OFFCURVE",
"564 70 CURVE",
"496 126 LINE",
"469 93 OFFCURVE",
"431 71 OFFCURVE",
"401 71 CURVE SMOOTH",
"318 71 OFFCURVE",
"263 161 OFFCURVE",
"263 295 CURVE SMOOTH",
"263 452 OFFCURVE",
"291 556 OFFCURVE",
"333 556 CURVE SMOOTH",
"372 556 OFFCURVE",
"397 471 OFFCURVE",
"397 343 CURVE SMOOTH",
"397 330 LINE SMOOTH",
"397 175 OFFCURVE",
"339 71 OFFCURVE",
"253 71 CURVE SMOOTH",
"155 71 OFFCURVE",
"91 182 OFFCURVE",
"91 348 CURVE SMOOTH",
"91 379 LINE SMOOTH",
"91 545 OFFCURVE",
"150 655 OFFCURVE",
"239 655 CURVE",
"239 740 LINE",
"95 740 OFFCURVE",
"0 595 OFFCURVE",
"0 379 CURVE SMOOTH",
"0 348 LINE SMOOTH",
"0 132 OFFCURVE",
"101 -13 OFFCURVE",
"253 -13 CURVE SMOOTH",
"394 -13 OFFCURVE",
"488 125 OFFCURVE",
"488 330 CURVE SMOOTH",
"488 343 LINE SMOOTH",
"488 521 OFFCURVE",
"426 640 OFFCURVE",
"333 640 CURVE SMOOTH"
);
}
);
width = 545;
}
);
unicode = 04A8;
},
{
color = 4;
glyphname = "Esdescender-cy";
lastChange = "2023-07-14 09:44:56 +0000";
layers = (
{
anchors = (
{
name = _bottom;
position = "{273, 0}";
},
{
name = _bottomright;
position = "{250, 0}";
}
);
components = (
{
name = "Es-cy";
}
);
layerId = "7C079D0C-96CD-4BD8-8800-0621C7635A78";
paths = (
{
closed = 1;
nodes = (
"295 -107 LINE",
"295 15 LINE",
"221 15 LINE",
"221 0 LINE",
"250 0 LINE",
"250 -107 LINE"
);
}
);
width = 545;
},
{
anchors = (
{
name = _bottom;
position = "{273, 0}";
},
{
name = _bottomright;
position = "{227, 0}";
}
);
components = (
{
name = "Es-cy";
}
);
layerId = "291433DC-531A-45CC-B814-57D397372F12";
paths = (
{
closed = 1;
nodes = (
"318 -107 LINE",
"318 38 LINE",
"198 38 LINE",
"198 0 LINE",
"227 0 LINE",
"227 -107 LINE"
);
}
);
width = 545;
}
);
unicode = 04AA;
},
{
color = 4;
glyphname = "Ustraightstroke-cy";
lastChange = "2023-07-14 09:44:56 +0000";
layers = (
{
components = (
{
name = "Ustraight-cy";
}
);
layerId = "7C079D0C-96CD-4BD8-8800-0621C7635A78";
paths = (
{
closed = 1;
nodes = (
"436 238 LINE",
"436 280 LINE",
"110 280 LINE",
"110 238 LINE"
);
}
);
width = 545;
},
{
components = (
{
name = "Ustraight-cy";
}
);
layerId = "291433DC-531A-45CC-B814-57D397372F12";
paths = (
{
closed = 1;
nodes = (
"427 182 LINE",
"427 265 LINE",
"119 265 LINE",
"119 182 LINE"
);
}
);
width = 545;
}
);
unicode = 04B0;
},
{
color = 4;
glyphname = "Tetse-cy";
lastChange = "2023-07-14 09:44:56 +0000";
layers = (
{
components = (
{
alignment = -1;
anchor = bottomright;
name = "descStraight-cy";
transform = "{1, 0, 0, 1, 247, 0}";
}
);
layerId = "7C079D0C-96CD-4BD8-8800-0621C7635A78";
paths = (
{
closed = 1;
nodes = (
"178 0 LINE",
"178 727 LINE",
"133 727 LINE",
"133 0 LINE"
);
},
{
closed = 1;
nodes = (
"308 685 LINE",
"308 727 LINE",
"3 727 LINE",
"3 685 LINE"
);
},
{
closed = 1;
nodes = (
"497 0 LINE",
"497 727 LINE",
"452 727 LINE",
"452 42 LINE",
"178 42 LINE",
"178 727 LINE",
"133 727 LINE",
"133 0 LINE"
);
}
);
width = 545;
},
{
components = (
{
alignment = -1;
anchor = bottomright;
name = "descStraight-cy";
transform = "{1, 0, 0, 1, 236, 0}";
}
);
layerId = "291433DC-531A-45CC-B814-57D397372F12";
paths = (
{
closed = 1;
nodes = (
"173 0 LINE",
"173 727 LINE",
"82 727 LINE",
"82 0 LINE"
);
},
{
closed = 1;
nodes = (
"275 644 LINE",
"275 727 LINE",
"-21 727 LINE",
"-21 644 LINE"
);
},
{
closed = 1;
nodes = (
"464 0 LINE",
"464 727 LINE",
"373 727 LINE",
"373 84 LINE",
"173 84 LINE",
"173 727 LINE",
"82 727 LINE",
"82 0 LINE"
);
}
);
width = 545;
}
);
unicode = 04B4;
},
{
color = 4;
glyphname = "Cheverticalstroke-cy";
lastChange = "2023-07-14 09:44:56 +0000";
layers = (
{
components = (
{
name = "Che-cy";
}
);
layerId = "7C079D0C-96CD-4BD8-8800-0621C7635A78";
paths = (
{
closed = 1;
nodes = (
"286 427 LINE",
"241 427 LINE",
"241 173 LINE",
"286 173 LINE"
);
}
);
width = 545;
},
{
components = (
{
name = "Che-cy";
}
);
layerId = "291433DC-531A-45CC-B814-57D397372F12";
paths = (
{
closed = 1;
nodes = (
"310 432 LINE",
"219 432 LINE",
"219 172 LINE",
"310 172 LINE"
);
}
);
width = 545;
}
);
unicode = 04B8;
},
{
color = 4;
glyphname = "Cheabkhasian-cy";
lastChange = "2023-07-14 09:44:56 +0000";
layers = (
{
layerId = "7C079D0C-96CD-4BD8-8800-0621C7635A78";
paths = (
{
closed = 1;
nodes = (
"411 -13 OFFCURVE",
"453 9 OFFCURVE",
"495 78 CURVE",
"458 103 LINE",
"423 46 OFFCURVE",
"390 29 OFFCURVE",
"319 29 CURVE SMOOTH",
"205 29 OFFCURVE",
"170 111 OFFCURVE",
"170 372 CURVE SMOOTH",
"170 620 OFFCURVE",
"205 698 OFFCURVE",
"319 698 CURVE SMOOTH",
"432 698 OFFCURVE",
"467 623 OFFCURVE",
"467 385 CURVE",
"145 385 LINE SMOOTH",
"76 385 OFFCURVE",
"55 394 OFFCURVE",
"55 424 CURVE SMOOTH",
"55 445 OFFCURVE",
"57 457 OFFCURVE",
"65 471 CURVE",
"25 471 LINE",
"16 457 OFFCURVE",
"14 445 OFFCURVE",
"14 424 CURVE SMOOTH",
"14 362 OFFCURVE",
"45 343 OFFCURVE",
"145 343 CURVE SMOOTH",
"514 343 LINE",
"514 645 OFFCURVE",
"467 740 OFFCURVE",
"319 740 CURVE SMOOTH",
"171 740 OFFCURVE",
"125 650 OFFCURVE",
"125 364 CURVE SMOOTH",
"125 77 OFFCURVE",
"171 -13 OFFCURVE",
"319 -13 CURVE SMOOTH"
);
}
);
width = 545;
},
{
layerId = "291433DC-531A-45CC-B814-57D397372F12";
paths = (
{
closed = 1;
nodes = (
"435 -13 OFFCURVE",
"481 15 OFFCURVE",
"532 105 CURVE",
"459 153 LINE",
"423 91 OFFCURVE",
"394 71 OFFCURVE",
"339 71 CURVE SMOOTH",
"254 71 OFFCURVE",
"226 143 OFFCURVE",
"226 372 CURVE SMOOTH",
"226 588 OFFCURVE",
"254 656 OFFCURVE",
"339 656 CURVE SMOOTH",
"424 656 OFFCURVE",
"451 596 OFFCURVE",
"451 405 CURVE",
"179 405 LINE SMOOTH",
"108 405 OFFCURVE",
"86 412 OFFCURVE",
"86 433 CURVE SMOOTH",
"86 451 OFFCURVE",
"90 463 OFFCURVE",
"102 483 CURVE",
"15 483 LINE",
"4 465 OFFCURVE",
"0 452 OFFCURVE",
"0 424 CURVE SMOOTH",
"0 346 OFFCURVE",
"43 322 OFFCURVE",
"179 322 CURVE SMOOTH",
"543 322 LINE",
"543 640 OFFCURVE",
"494 740 OFFCURVE",
"339 740 CURVE SMOOTH",
"185 740 OFFCURVE",
"135 650 OFFCURVE",
"135 364 CURVE SMOOTH",
"135 77 OFFCURVE",
"185 -13 OFFCURVE",
"339 -13 CURVE SMOOTH"
);
}
);
width = 545;
}
);
unicode = 04BC;
},
{
color = 4;
glyphname = "Chedescenderabkhasian-cy";
lastChange = "2023-07-14 09:44:56 +0000";
layers = (
{
components = (
{
name = "Cheabkhasian-cy";
}
);
layerId = "7C079D0C-96CD-4BD8-8800-0621C7635A78";
paths = (
{
closed = 1;
nodes = (
"341 -107 LINE",
"341 15 LINE",
"266 15 LINE",
"266 0 LINE",
"295 0 LINE",
"295 -107 LINE"
);
}
);
width = 545;
},
{
components = (
{
name = "Cheabkhasian-cy";
}
);
layerId = "291433DC-531A-45CC-B814-57D397372F12";
paths = (
{
closed = 1;
nodes = (
"384 -107 LINE",
"384 38 LINE",
"264 38 LINE",
"264 0 LINE",
"293 0 LINE",
"293 -107 LINE"
);
}
);
width = 545;
}
);
unicode = 04BE;
},
{
color = 4;
glyphname = "Kahook-cy";
lastChange = "2023-07-14 09:44:56 +0000";
layers = (
{
layerId = "7C079D0C-96CD-4BD8-8800-0621C7635A78";
paths = (
{
closed = 1;
nodes = (
"425 -178 OFFCURVE",
"475 -108 OFFCURVE",
"475 114 CURVE SMOOTH",
"475 335 OFFCURVE",
"410 405 OFFCURVE",
"205 405 CURVE",
"205 364 LINE",
"375 364 OFFCURVE",
"430 304 OFFCURVE",
"430 114 CURVE SMOOTH",
"430 -76 OFFCURVE",
"391 -136 OFFCURVE",
"268 -136 CURVE SMOOTH",
"239 -136 OFFCURVE",
"225 -134 OFFCURVE",
"212 -125 CURVE",
"212 -167 LINE",
"225 -175 OFFCURVE",
"239 -178 OFFCURVE",
"268 -178 CURVE SMOOTH"
);
},
{
closed = 1;
nodes = (
"127 0 LINE",
"127 727 LINE",
"82 727 LINE",
"82 0 LINE"
);
},
{
closed = 1;
nodes = (
"205 364 LINE SMOOTH",
"385 364 OFFCURVE",
"344 623 OFFCURVE",
"503 727 CURVE",
"438 727 LINE",
"307 623 OFFCURVE",
"347 414 OFFCURVE",
"184 405 CURVE",
"102 405 LINE",
"102 364 LINE"
);
}
);
width = 545;
},
{
layerId = "291433DC-531A-45CC-B814-57D397372F12";
paths = (
{
closed = 1;
nodes = (
"442 -178 OFFCURVE",
"497 -103 OFFCURVE",
"497 125 CURVE SMOOTH",
"497 352 OFFCURVE",
"439 426 OFFCURVE",
"166 426 CURVE",
"166 343 LINE",
"370 343 OFFCURVE",
"406 288 OFFCURVE",
"406 125 CURVE SMOOTH",
"406 -39 OFFCURVE",
"373 -95 OFFCURVE",
"267 -95 CURVE SMOOTH",
"235 -95 OFFCURVE",
"222 -92 OFFCURVE",
"211 -83 CURVE",
"211 -167 LINE",
"222 -175 OFFCURVE",
"235 -178 OFFCURVE",
"267 -178 CURVE SMOOTH"
);
},
{
closed = 1;
nodes = (
"122 0 LINE",
"122 727 LINE",
"31 727 LINE",
"31 0 LINE"
);
},
{
closed = 1;
nodes = (
"160 343 LINE SMOOTH",
"356 343 OFFCURVE",
"355 615 OFFCURVE",
"527 727 CURVE",
"400 727 LINE",
"305 684 OFFCURVE",
"285 426 OFFCURVE",
"136 426 CURVE SMOOTH",
"51 426 LINE",
"51 343 LINE"
);
}
);
width = 545;
}
);
unicode = 04C3;
},
{
color = 4;
glyphname = "Schwa-cy";
lastChange = "2023-07-14 09:44:56 +0000";
layers = (
{
anchors = (
{
name = top;
position = "{273, 727}";
}
);
layerId = "7C079D0C-96CD-4BD8-8800-0621C7635A78";
paths = (
{
closed = 1;
nodes = (
"171 740 OFFCURVE",
"122 718 OFFCURVE",
"71 649 CURVE",
"107 625 LINE",
"152 681 OFFCURVE",
"192 698 OFFCURVE",
"274 698 CURVE SMOOTH",
"407 698 OFFCURVE",
"450 616 OFFCURVE",
"450 355 CURVE SMOOTH",
"450 107 OFFCURVE",
"407 29 OFFCURVE",
"274 29 CURVE SMOOTH",
"140 29 OFFCURVE",
"98 105 OFFCURVE",
"98 343 CURVE",
"475 343 LINE",
"475 385 LINE",
"52 385 LINE",
"52 83 OFFCURVE",
"105 -13 OFFCURVE",
"274 -13 CURVE SMOOTH",
"442 -13 OFFCURVE",
"495 77 OFFCURVE",
"495 364 CURVE SMOOTH",
"495 650 OFFCURVE",
"442 740 OFFCURVE",
"274 740 CURVE SMOOTH"
);
}
);
width = 545;
},
{
anchors = (
{
name = top;
position = "{273, 727}";
}
);
layerId = "291433DC-531A-45CC-B814-57D397372F12";
paths = (
{
closed = 1;
nodes = (
"165 740 OFFCURVE",
"113 712 OFFCURVE",
"53 623 CURVE",
"125 575 LINE",
"171 636 OFFCURVE",
"206 656 OFFCURVE",
"273 656 CURVE SMOOTH",
"379 656 OFFCURVE",
"413 585 OFFCURVE",
"413 355 CURVE SMOOTH",
"413 139 OFFCURVE",
"379 71 OFFCURVE",
"273 71 CURVE SMOOTH",
"167 71 OFFCURVE",
"134 131 OFFCURVE",
"134 322 CURVE",
"460 322 LINE",
"460 405 LINE",
"42 405 LINE",
"42 87 OFFCURVE",
"97 -13 OFFCURVE",
"273 -13 CURVE SMOOTH",
"448 -13 OFFCURVE",
"504 77 OFFCURVE",
"504 364 CURVE SMOOTH",
"504 650 OFFCURVE",
"448 740 OFFCURVE",
"273 740 CURVE SMOOTH"
);
}
);
width = 545;
}
);
unicode = 04D8;
},
{
color = 4;
glyphname = "Dzeabkhasian-cy";
lastChange = "2023-07-14 09:44:56 +0000";
layers = (
{
layerId = "7C079D0C-96CD-4BD8-8800-0621C7635A78";
paths = (
{
closed = 1;
nodes = (
"424 -13 OFFCURVE",
"472 35 OFFCURVE",
"472 189 CURVE SMOOTH",
"472 354 OFFCURVE",
"428 405 OFFCURVE",
"291 405 CURVE SMOOTH",
"227 405 LINE",
"227 364 LINE",
"291 364 LINE",
"394 356 OFFCURVE",
"426 315 OFFCURVE",
"426 189 CURVE SMOOTH",
"426 67 OFFCURVE",
"389 29 OFFCURVE",
"273 29 CURVE SMOOTH",
"156 29 OFFCURVE",
"119 62 OFFCURVE",
"119 165 CURVE",
"74 165 LINE",
"74 30 OFFCURVE",
"122 -13 OFFCURVE",
"273 -13 CURVE SMOOTH"
);
},
{
closed = 1;
nodes = (
"240 364 LINE",
"459 727 LINE",
"85 727 LINE",
"85 685 LINE",
"382 685 LINE",
"187 364 LINE"
);
}
);
width = 545;
},
{
layerId = "291433DC-531A-45CC-B814-57D397372F12";
paths = (
{
closed = 1;
nodes = (
"441 -13 OFFCURVE",
"495 38 OFFCURVE",
"495 200 CURVE SMOOTH",
"495 372 OFFCURVE",
"445 426 OFFCURVE",
"290 426 CURVE SMOOTH",
"223 426 LINE",
"223 343 LINE",
"290 343 LINE",
"376 336 OFFCURVE",
"404 302 OFFCURVE",
"404 200 CURVE SMOOTH",
"404 102 OFFCURVE",
"372 71 OFFCURVE",
"273 71 CURVE SMOOTH",
"174 71 OFFCURVE",
"142 101 OFFCURVE",
"142 197 CURVE",
"51 197 LINE",
"51 37 OFFCURVE",
"105 -13 OFFCURVE",
"273 -13 CURVE SMOOTH"
);
},
{
closed = 1;
nodes = (
"266 343 LINE",
"497 727 LINE",
"63 727 LINE",
"63 644 LINE",
"344 644 LINE",
"162 343 LINE"
);
}
);
width = 545;
}
);
unicode = 04E0;
},
{
color = 4;
glyphname = "Obarred-cy";
lastChange = "2023-07-14 09:44:56 +0000";
layers = (
{
anchors = (
{
name = top;
position = "{273, 730}";
}
);
components = (
{
name = O;
}
);
layerId = "7C079D0C-96CD-4BD8-8800-0621C7635A78";
paths = (
{
closed = 1;
nodes = (
"461 343 LINE",
"461 385 LINE",
"85 385 LINE",
"85 343 LINE"
);
}
);
width = 545;
},
{
anchors = (
{
name = top;
position = "{273, 730}";
}
);
components = (
{
name = O;
}
);
layerId = "291433DC-531A-45CC-B814-57D397372F12";
paths = (
{
closed = 1;
nodes = (
"462 322 LINE",
"462 405 LINE",
"84 405 LINE",
"84 322 LINE"
);
}
);
width = 545;
}
);
unicode = 04E8;
},
{
color = 4;
glyphname = "Hahook-cy";
lastChange = "2023-07-14 09:44:56 +0000";
layers = (
{
components = (
{
name = "Ha-cy";
}
);
layerId = "7C079D0C-96CD-4BD8-8800-0621C7635A78";
paths = (
{
closed = 1;
nodes = (
"486 -141 OFFCURVE",
"526 -68 OFFCURVE",
"490 0 CURVE",
"440 0 LINE",
"477 -68 OFFCURVE",
"434 -99 OFFCURVE",
"363 -99 CURVE",
"363 -141 LINE"
);
}
);
width = 545;
},
{
components = (
{
name = "Ha-cy";
}
);
layerId = "291433DC-531A-45CC-B814-57D397372F12";
paths = (
{
closed = 1;
nodes = (
"540 -160 OFFCURVE",
"557 -57 OFFCURVE",
"526 0 CURVE",
"425 0 LINE",
"459 -59 OFFCURVE",
"416 -77 OFFCURVE",
"355 -77 CURVE",
"355 -161 LINE"
);
}
);
width = 545;
}
);
unicode = 04FC;
},
{
color = 4;
glyphname = "Ertick-cy";
lastChange = "2023-07-14 09:44:56 +0000";
layers = (
{
components = (
{
name = P;
}
);
layerId = "7C079D0C-96CD-4BD8-8800-0621C7635A78";
paths = (
{
closed = 1;
nodes = (
"285 480 LINE",
"252 451 LINE",
"460 238 LINE",
"493 267 LINE"
);
}
);
width = 545;
},
{
components = (
{
name = P;
}
);
layerId = "291433DC-531A-45CC-B814-57D397372F12";
paths = (
{
closed = 1;
nodes = (
"304 510 LINE",
"238 452 LINE",
"477 208 LINE",
"543 266 LINE"
);
}
);
width = 545;
}
);
unicode = 048E;
},
{
color = 4;
glyphname = "De-cy.loclBGR";
lastChange = "2023-07-14 09:44:56 +0000";
layers = (
{
layerId = "7C079D0C-96CD-4BD8-8800-0621C7635A78";
paths = (
{
closed = 1;
nodes = (
"76 -80 LINE",
"76 0 LINE",
"469 0 LINE",
"469 -80 LINE",
"515 -80 LINE",
"515 42 LINE",
"31 42 LINE",
"31 -80 LINE"
);
},
{
closed = 1;
nodes = (
"103 42 LINE",
"273 659 LINE",
"443 42 LINE",
"489 42 LINE",
"300 727 LINE",
"245 727 LINE",
"56 42 LINE"
);
}
);
width = 545;
},
{
layerId = "291433DC-531A-45CC-B814-57D397372F12";
paths = (
{
closed = 1;
nodes = (
"114 -80 LINE",
"114 0 LINE",
"432 0 LINE",
"432 -80 LINE",
"523 -80 LINE",
"523 84 LINE",
"23 84 LINE",
"23 -80 LINE"
);
},
{
closed = 1;
nodes = (
"150 84 LINE",
"273 567 LINE",
"395 84 LINE",
"482 84 LINE",
"318 727 LINE",
"227 727 LINE",
"64 84 LINE"
);
}
);
width = 545;
}
);
},
{
color = 4;
glyphname = "Ef-cy.loclBGR";
lastChange = "2023-07-14 09:44:56 +0000";
layers = (
{
layerId = "7C079D0C-96CD-4BD8-8800-0621C7635A78";
paths = (
{
closed = 1;
nodes = (
"472 -13 OFFCURVE",
"535 78 OFFCURVE",
"535 365 CURVE SMOOTH",
"535 650 OFFCURVE",
"472 740 OFFCURVE",
"274 740 CURVE SMOOTH",
"74 740 OFFCURVE",
"11 650 OFFCURVE",
"11 365 CURVE SMOOTH",
"11 78 OFFCURVE",
"74 -13 OFFCURVE",
"274 -13 CURVE SMOOTH"
);
},
{
closed = 1;
nodes = (
"108 29 OFFCURVE",
"56 110 OFFCURVE",
"56 365 CURVE SMOOTH",
"56 618 OFFCURVE",
"108 698 OFFCURVE",
"274 698 CURVE SMOOTH",
"437 698 OFFCURVE",
"489 618 OFFCURVE",
"489 365 CURVE SMOOTH",
"489 110 OFFCURVE",
"437 29 OFFCURVE",
"274 29 CURVE SMOOTH"
);
},
{
closed = 1;
nodes = (
"295 -111 LINE",
"295 837 LINE",
"250 837 LINE",
"250 -111 LINE"
);
}
);
width = 545;
},
{
layerId = "291433DC-531A-45CC-B814-57D397372F12";
paths = (
{
closed = 1;
nodes = (
"474 -13 OFFCURVE",
"536 78 OFFCURVE",
"536 365 CURVE SMOOTH",
"536 650 OFFCURVE",
"474 740 OFFCURVE",
"274 740 CURVE SMOOTH",
"73 740 OFFCURVE",
"9 650 OFFCURVE",
"9 365 CURVE SMOOTH",
"9 78 OFFCURVE",
"73 -13 OFFCURVE",
"274 -13 CURVE SMOOTH"
);
},
{
closed = 1;
nodes = (
"142 71 OFFCURVE",
"100 142 OFFCURVE",
"100 365 CURVE SMOOTH",
"100 586 OFFCURVE",
"142 656 OFFCURVE",
"274 656 CURVE SMOOTH",
"405 656 OFFCURVE",
"445 586 OFFCURVE",
"445 365 CURVE SMOOTH",
"445 142 OFFCURVE",
"405 71 OFFCURVE",
"274 71 CURVE SMOOTH"
);
},
{
closed = 1;
nodes = (
"318 -99 LINE",
"318 825 LINE",
"227 825 LINE",
"227 -99 LINE"
);
}
);
width = 545;
}
);
},
{
color = 4;
glyphname = "be-cy";
lastChange = "2023-07-14 09:44:56 +0000";
layers = (
{
layerId = "7C079D0C-96CD-4BD8-8800-0621C7635A78";
paths = (
{
closed = 1;
nodes = (
"429 -13 OFFCURVE",
"478 43 OFFCURVE",
"478 217 CURVE SMOOTH",
"478 392 OFFCURVE",
"429 447 OFFCURVE",
"273 447 CURVE SMOOTH",
"186 447 OFFCURVE",
"148 430 OFFCURVE",
"113 374 CURVE",
"113 436 LINE SMOOTH",
"113 560 OFFCURVE",
"176 643 OFFCURVE",
"272 643 CURVE SMOOTH",
"395 643 OFFCURVE",
"477 676 OFFCURVE",
"477 727 CURVE",
"432 727 LINE",
"432 702 OFFCURVE",
"368 685 OFFCURVE",
"272 685 CURVE SMOOTH",
"149 685 OFFCURVE",
"67 585 OFFCURVE",
"67 436 CURVE SMOOTH",
"67 216 LINE SMOOTH",
"67 42 OFFCURVE",
"116 -13 OFFCURVE",
"273 -13 CURVE SMOOTH"
);
},
{
closed = 1;
nodes = (
"151 29 OFFCURVE",
"113 74 OFFCURVE",
"113 216 CURVE SMOOTH",
"113 360 OFFCURVE",
"151 405 OFFCURVE",
"273 405 CURVE SMOOTH",
"395 405 OFFCURVE",
"433 360 OFFCURVE",
"433 217 CURVE SMOOTH",
"433 75 OFFCURVE",
"395 29 OFFCURVE",
"273 29 CURVE SMOOTH"
);
}
);
width = 545;
},
{
layerId = "291433DC-531A-45CC-B814-57D397372F12";
paths = (
{
closed = 1;
nodes = (
"443 -13 OFFCURVE",
"501 42 OFFCURVE",
"501 228 CURVE SMOOTH",
"501 415 OFFCURVE",
"443 468 OFFCURVE",
"273 468 CURVE SMOOTH",
"209 468 OFFCURVE",
"168 458 OFFCURVE",
"135 434 CURVE",
"135 436 LINE SMOOTH",
"135 536 OFFCURVE",
"190 604 OFFCURVE",
"272 604 CURVE SMOOTH",
"407 604 OFFCURVE",
"498 653 OFFCURVE",
"498 727 CURVE",
"403 727 LINE",
"403 704 OFFCURVE",
"350 687 OFFCURVE",
"272 687 CURVE SMOOTH",
"135 687 OFFCURVE",
"45 587 OFFCURVE",
"45 436 CURVE SMOOTH",
"45 227 LINE SMOOTH",
"45 42 OFFCURVE",
"103 -13 OFFCURVE",
"273 -13 CURVE SMOOTH"
);
},
{
closed = 1;
nodes = (
"165 71 OFFCURVE",
"135 95 OFFCURVE",
"135 227 CURVE SMOOTH",
"135 360 OFFCURVE",
"165 385 OFFCURVE",
"273 385 CURVE SMOOTH",
"380 385 OFFCURVE",
"410 360 OFFCURVE",
"410 228 CURVE SMOOTH",
"410 96 OFFCURVE",
"380 71 OFFCURVE",
"273 71 CURVE SMOOTH"
);
}
);
width = 545;
}
);
unicode = 0431;
},
{
color = 4;
glyphname = "ve-cy";
lastChange = "2023-07-14 09:44:56 +0000";
layers = (
{
layerId = "7C079D0C-96CD-4BD8-8800-0621C7635A78";
paths = (
{
closed = 1;
nodes = (
"281 0 LINE SMOOTH",
"429 0 OFFCURVE",
"476 39 OFFCURVE",
"476 162 CURVE SMOOTH",
"476 256 OFFCURVE",
"449 291 OFFCURVE",
"361 306 CURVE",
"432 324 OFFCURVE",
"454 352 OFFCURVE",
"454 423 CURVE SMOOTH",
"454 528 OFFCURVE",
"406 562 OFFCURVE",
"258 562 CURVE SMOOTH",
"85 562 LINE",
"85 0 LINE"
);
},
{
closed = 1;
nodes = (
"131 281 LINE",
"281 281 LINE SMOOTH",
"395 281 OFFCURVE",
"431 253 OFFCURVE",
"431 162 CURVE SMOOTH",
"431 71 OFFCURVE",
"395 42 OFFCURVE",
"281 42 CURVE SMOOTH",
"131 42 LINE"
);
},
{
closed = 1;
nodes = (
"131 520 LINE",
"258 520 LINE SMOOTH",
"372 520 OFFCURVE",
"408 496 OFFCURVE",
"408 423 CURVE SMOOTH",
"408 346 OFFCURVE",
"372 323 OFFCURVE",
"258 323 CURVE SMOOTH",
"131 323 LINE"
);
}
);
width = 545;
},
{
layerId = "291433DC-531A-45CC-B814-57D397372F12";
paths = (
{
closed = 1;
nodes = (
"281 0 LINE SMOOTH",
"433 0 OFFCURVE",
"490 47 OFFCURVE",
"490 172 CURVE SMOOTH",
"490 251 OFFCURVE",
"470 285 OFFCURVE",
"417 309 CURVE",
"453 332 OFFCURVE",
"467 356 OFFCURVE",
"467 413 CURVE SMOOTH",
"467 520 OFFCURVE",
"409 562 OFFCURVE",
"258 562 CURVE SMOOTH",
"72 562 LINE",
"72 0 LINE"
);
},
{
closed = 1;
nodes = (
"163 260 LINE",
"281 260 LINE SMOOTH",
"374 260 OFFCURVE",
"399 250 OFFCURVE",
"399 172 CURVE SMOOTH",
"399 105 OFFCURVE",
"374 84 OFFCURVE",
"281 84 CURVE SMOOTH",
"163 84 LINE"
);
},
{
closed = 1;
nodes = (
"163 478 LINE",
"258 478 LINE SMOOTH",
"353 478 OFFCURVE",
"376 462 OFFCURVE",
"376 413 CURVE SMOOTH",
"376 350 OFFCURVE",
"353 344 OFFCURVE",
"258 344 CURVE SMOOTH",
"163 344 LINE"
);
}
);
width = 545;
}
);
unicode = 0432;
},
{
color = 4;
glyphname = "ge-cy";
lastChange = "2023-07-14 09:44:56 +0000";
layers = (
{
anchors = (
{
name = bottomright;
position = "{139, 0}";
},
{
name = top;
position = "{273, 562}";
}
);
layerId = "7C079D0C-96CD-4BD8-8800-0621C7635A78";
paths = (
{
closed = 1;
nodes = (
"139 0 LINE",
"139 548 LINE",
"111 520 LINE",
"470 520 LINE",
"470 562 LINE",
"94 562 LINE",
"94 0 LINE"
);
}
);
width = 545;
},
{
anchors = (
{
name = bottomright;
position = "{162, 0}";
},
{
name = top;
position = "{273, 562}";
}
);
layerId = "291433DC-531A-45CC-B814-57D397372F12";
paths = (
{
closed = 1;
nodes = (
"162 0 LINE",
"162 545 LINE",
"95 478 LINE",
"493 478 LINE",
"493 562 LINE",
"71 562 LINE",
"71 0 LINE"
);
}
);
width = 545;
}
);
unicode = 0433;
},
{
color = 4;
glyphname = "gheupturn-cy";
lastChange = "2023-07-14 09:44:56 +0000";
layers = (
{
components = (
{
name = "ge-cy";
}
);
layerId = "7C079D0C-96CD-4BD8-8800-0621C7635A78";
paths = (
{
closed = 1;
nodes = (
"470 675 LINE",
"470 562 LINE",
"425 562 LINE",
"425 675 LINE"
);
}
);
width = 545;
},
{
components = (
{
name = "ge-cy";
}
);
layerId = "291433DC-531A-45CC-B814-57D397372F12";
paths = (
{
closed = 1;
nodes = (
"493 694 LINE",
"493 562 LINE",
"402 562 LINE",
"402 694 LINE"
);
}
);
width = 545;
}
);
unicode = 0491;
},
{
color = 4;
glyphname = "de-cy";
lastChange = "2023-07-14 09:44:56 +0000";
layers = (
{
layerId = "7C079D0C-96CD-4BD8-8800-0621C7635A78";
paths = (
{
closed = 1;
nodes = (
"121 42 LINE",
"188 105 OFFCURVE",
"220 256 OFFCURVE",
"241 520 CURVE",
"424 520 LINE",
"424 42 LINE",
"469 42 LINE",
"469 562 LINE",
"200 562 LINE",
"175 256 OFFCURVE",
"152 105 OFFCURVE",
"59 42 CURVE"
);
},
{
closed = 1;
nodes = (
"76 -80 LINE",
"76 0 LINE",
"469 0 LINE",
"469 -80 LINE",
"515 -80 LINE",
"515 42 LINE",
"31 42 LINE",
"31 -80 LINE"
);
}
);
width = 545;
},
{
layerId = "291433DC-531A-45CC-B814-57D397372F12";
paths = (
{
closed = 1;
nodes = (
"181 84 LINE",
"245 143 OFFCURVE",
"254 280 OFFCURVE",
"277 478 CURVE",
"386 478 LINE",
"386 84 LINE",
"477 84 LINE",
"477 562 LINE",
"193 562 LINE",
"165 284 OFFCURVE",
"158 144 OFFCURVE",
"51 84 CURVE"
);
},
{
closed = 1;
nodes = (
"114 -80 LINE",
"114 0 LINE",
"432 0 LINE",
"432 -80 LINE",
"523 -80 LINE",
"523 84 LINE",
"23 84 LINE",
"23 -80 LINE"
);
}
);
width = 545;
}
);
unicode = 0434;
},
{
color = 4;
glyphname = "zhe-cy";
lastChange = "2023-07-14 09:44:56 +0000";
layers = (
{
anchors = (
{
name = bottomright;
position = "{518, 0}";
},
{
name = top;
position = "{273, 562}";
}
);
layerId = "7C079D0C-96CD-4BD8-8800-0621C7635A78";
paths = (
{
closed = 1;
nodes = (
"348 281 LINE",
"544 562 LINE",
"491 562 LINE",
"295 281 LINE"
);
},
{
closed = 1;
nodes = (
"55 0 LINE",
"250 281 LINE",
"196 281 LINE",
"1 0 LINE"
);
},
{
closed = 1;
nodes = (
"250 281 LINE",
"55 562 LINE",
"1 562 LINE",
"196 281 LINE"
);
},
{
closed = 1;
nodes = (
"295 0 LINE",
"295 562 LINE",
"250 562 LINE",
"250 0 LINE"
);
},
{
closed = 1;
nodes = (
"544 0 LINE",
"348 281 LINE",
"295 281 LINE",
"491 0 LINE"
);
}
);
width = 545;
},
{
anchors = (
{
name = bottomright;
position = "{500, 0}";
},
{
name = top;
position = "{273, 562}";
}
);
layerId = "291433DC-531A-45CC-B814-57D397372F12";
paths = (
{
closed = 1;
nodes = (
"414 281 LINE",
"542 562 LINE",
"446 562 LINE",
"318 281 LINE"
);
},
{
closed = 1;
nodes = (
"99 0 LINE",
"227 281 LINE",
"132 281 LINE",
"4 0 LINE"
);
},
{
closed = 1;
nodes = (
"227 281 LINE",
"99 562 LINE",
"4 562 LINE",
"132 281 LINE"
);
},
{
closed = 1;
nodes = (
"318 0 LINE",
"318 562 LINE",
"227 562 LINE",
"227 0 LINE"
);
},
{
closed = 1;
nodes = (
"542 0 LINE",
"414 281 LINE",
"318 281 LINE",
"446 0 LINE"
);
}
);
width = 545;
}
);
unicode = 0436;
},
{
color = 4;
glyphname = "ze-cy";
lastChange = "2023-07-14 09:44:56 +0000";
layers = (
{
layerId = "7C079D0C-96CD-4BD8-8800-0621C7635A78";
paths = (
{
closed = 1;
nodes = (
"424 -13 OFFCURVE",
"472 23 OFFCURVE",
"472 135 CURVE SMOOTH",
"472 215 OFFCURVE",
"450 252 OFFCURVE",
"383 285 CURVE",
"450 317 OFFCURVE",
"472 352 OFFCURVE",
"472 428 CURVE SMOOTH",
"472 539 OFFCURVE",
"424 575 OFFCURVE",
"273 575 CURVE SMOOTH",
"122 575 OFFCURVE",
"74 544 OFFCURVE",
"74 446 CURVE",
"119 446 LINE",
"119 512 OFFCURVE",
"156 533 OFFCURVE",
"273 533 CURVE SMOOTH",
"389 533 OFFCURVE",
"426 507 OFFCURVE",
"426 428 CURVE SMOOTH",
"426 342 OFFCURVE",
"394 313 OFFCURVE",
"291 305 CURVE",
"227 305 LINE",
"227 264 LINE",
"291 264 LINE",
"394 256 OFFCURVE",
"426 225 OFFCURVE",
"426 135 CURVE SMOOTH",
"426 55 OFFCURVE",
"389 29 OFFCURVE",
"273 29 CURVE SMOOTH",
"156 29 OFFCURVE",
"119 51 OFFCURVE",
"119 120 CURVE",
"74 120 LINE",
"74 19 OFFCURVE",
"122 -13 OFFCURVE",
"273 -13 CURVE SMOOTH"
);
}
);
width = 545;
},
{
layerId = "291433DC-531A-45CC-B814-57D397372F12";
paths = (
{
closed = 1;
nodes = (
"441 -13 OFFCURVE",
"495 25 OFFCURVE",
"495 145 CURVE SMOOTH",
"495 216 OFFCURVE",
"478 250 OFFCURVE",
"426 285 CURVE",
"478 318 OFFCURVE",
"495 350 OFFCURVE",
"495 417 CURVE SMOOTH",
"495 536 OFFCURVE",
"441 575 OFFCURVE",
"273 575 CURVE SMOOTH",
"105 575 OFFCURVE",
"52 536 OFFCURVE",
"52 414 CURVE",
"143 414 LINE",
"143 473 OFFCURVE",
"174 491 OFFCURVE",
"273 491 CURVE SMOOTH",
"372 491 OFFCURVE",
"404 474 OFFCURVE",
"404 417 CURVE SMOOTH",
"404 355 OFFCURVE",
"376 333 OFFCURVE",
"290 326 CURVE",
"205 326 LINE",
"205 243 LINE",
"290 243 LINE",
"376 236 OFFCURVE",
"404 213 OFFCURVE",
"404 145 CURVE SMOOTH",
"404 89 OFFCURVE",
"372 71 OFFCURVE",
"273 71 CURVE SMOOTH",
"174 71 OFFCURVE",
"143 91 OFFCURVE",
"143 153 CURVE",
"52 153 LINE",
"52 27 OFFCURVE",
"105 -13 OFFCURVE",
"273 -13 CURVE SMOOTH"
);
}
);
width = 545;
}
);
unicode = 0437;
},
{
color = 4;
glyphname = "ii-cy";
lastChange = "2023-07-14 09:44:56 +0000";
layers = (
{
anchors = (
{
name = bottom;
position = "{273, -3}";
},
{
name = bottomright;
position = "{527, 0}";
},
{
name = top;
position = "{273, 562}";
}
);
layerId = "7C079D0C-96CD-4BD8-8800-0621C7635A78";
paths = (
{
closed = 1;
nodes = (
"130 0 LINE",
"467 562 LINE",
"422 562 LINE",
"422 0 LINE",
"467 0 LINE",
"467 562 LINE",
"415 562 LINE",
"78 0 LINE",
"124 0 LINE",
"124 562 LINE",
"78 562 LINE",
"78 0 LINE"
);
}
);
width = 545;
},
{
anchors = (
{
name = bottom;
position = "{273, -3}";
},
{
name = bottomright;
position = "{527, 0}";
},
{
name = top;
position = "{273, 562}";
}
);
layerId = "291433DC-531A-45CC-B814-57D397372F12";
paths = (
{
closed = 1;
nodes = (
"157 0 LINE",
"490 562 LINE",
"399 562 LINE",
"399 0 LINE",
"490 0 LINE",
"490 562 LINE",
"388 562 LINE",
"55 0 LINE",
"146 0 LINE",
"146 562 LINE",
"55 562 LINE",
"55 0 LINE"
);
}
);
width = 545;
}
);
unicode = 0438;
},
{
color = 4;
glyphname = "ka-cy";
lastChange = "2023-07-14 09:44:56 +0000";
layers = (
{
anchors = (
{
name = bottomright;
position = "{474, 0}";
},
{
name = top;
position = "{273, 562}";
}
);
layerId = "7C079D0C-96CD-4BD8-8800-0621C7635A78";
paths = (
{
closed = 1;
nodes = (
"215 280 LINE",
"376 280 OFFCURVE",
"335 457 OFFCURVE",
"494 562 CURVE",
"429 562 LINE",
"298 457 OFFCURVE",
"338 322 OFFCURVE",
"193 322 CURVE",
"111 322 LINE",
"111 280 LINE"
);
},
{
closed = 1;
nodes = (
"136 0 LINE",
"136 562 LINE",
"91 562 LINE",
"91 0 LINE"
);
},
{
closed = 1;
nodes = (
"498 0 LINE",
"258 310 LINE",
"213 298 LINE",
"444 0 LINE"
);
}
);
width = 545;
},
{
anchors = (
{
name = bottomright;
position = "{435, 0}";
},
{
name = top;
position = "{273, 562}";
}
);
layerId = "291433DC-531A-45CC-B814-57D397372F12";
paths = (
{
closed = 1;
nodes = (
"187 259 LINE SMOOTH",
"359 259 OFFCURVE",
"374 483 OFFCURVE",
"518 562 CURVE",
"391 562 LINE",
"317 518 OFFCURVE",
"273 343 OFFCURVE",
"164 343 CURVE SMOOTH",
"60 343 LINE",
"60 259 LINE"
);
},
{
closed = 1;
nodes = (
"131 0 LINE",
"131 562 LINE",
"40 562 LINE",
"40 0 LINE"
);
},
{
closed = 1;
nodes = (
"518 0 LINE",
"265 334 LINE",
"168 310 LINE",
"405 0 LINE"
);
}
);
width = 545;
}
);
unicode = 043A;
},
